<svg width="63" height="44" viewBox="0 0 63 44" fill="none" xmlns="http://www.w3.org/2000/svg">
<g clip-path="url(#clip0_1430_2706)">
<path d="M4.24789 33.3185C5.6409 31.8841 6.87317 30.5337 8.18964 29.2672C15.2465 22.4539 22.3111 15.656 29.3833 8.85797C30.96 7.33967 31.3656 7.40071 32.4755 9.31574C36.4096 16.0908 40.3284 22.8659 44.2472 29.6487C45.2498 31.3806 45.0432 31.8689 43.0761 32.4411C39.6165 33.4406 36.1493 34.4401 32.6668 35.3709C31.5264 35.6761 30.7074 36.0804 30.7151 37.4538C30.738 40.4293 29.1077 41.8789 26.2452 42.1994C25.564 42.2757 24.8751 42.4893 24.2399 42.764C21.163 44.1068 18.4229 44.2518 16.3946 40.9481C16.1803 40.5972 15.346 40.5972 14.7873 40.498C14.5577 40.4598 14.2975 40.6048 14.0525 40.6735C10.8532 41.5483 8.40906 40.526 6.7201 37.6064C5.90113 36.1873 5.07451 34.7681 4.24023 33.3185H4.24789ZM18.4841 39.3917C19.3337 41.2457 20.4435 41.6501 22.1044 40.9787C23.3826 40.4598 24.745 40.0478 26.1074 39.8342C28.0515 39.5214 28.4725 38.3541 28.373 36.5535C25.0512 37.5072 21.8519 38.4227 18.4841 39.3917Z" fill="white"/>
<path d="M6.62056 42.8403C6.36033 43.1455 6.03887 43.9009 5.6026 43.9695C4.96732 44.0763 3.91109 43.9161 3.62024 43.4812C2.30377 41.4975 1.09445 39.4299 0.0688298 37.286C-0.168441 36.7901 0.252523 35.6532 0.742373 35.2565C1.10211 34.9589 2.42623 35.1421 2.68646 35.5312C4.07182 37.6141 5.25817 39.8266 6.4981 42.0011C6.5823 42.1537 6.55933 42.3673 6.62822 42.8403H6.62056Z" fill="white"/>
<path d="M46.9015 0.00356833L40.855 11.772L42.4763 12.5997L48.5229 0.831333L46.9015 0.00356833Z" fill="white"/>
<path d="M49.4528 23.0783L49.0149 24.833L61.8868 28.025L62.3247 26.2703L49.4528 23.0783Z" fill="white"/>
<path d="M60.2027 8.60524L47.7046 16.2817L48.6602 17.8277L61.1583 10.1512L60.2027 8.60524Z" fill="white"/>
</g>
<defs>
<clipPath id="clip0_1430_2706">
<rect width="62.3333" height="44" fill="white"/>
</clipPath>
</defs>
</svg>
