<svg width="23" height="20" viewBox="0 0 23 20" fill="none" xmlns="http://www.w3.org/2000/svg">
<g clip-path="url(#clip0_2564_2574)">
<path d="M6.3036 4.33165H16.6895C16.9206 4.33165 17.1096 4.14259 17.1096 3.91151C17.1096 3.8737 17.1054 3.83589 17.0928 3.80228L16.7315 2.48303C16.3324 1.01674 15.0047 0 13.488 0H9.50507C7.98836 0 6.66072 1.01674 6.25738 2.47883L5.89606 3.79807C5.83304 4.02075 5.96748 4.25183 6.19016 4.31485C6.22797 4.32325 6.26158 4.33165 6.29939 4.33165H6.3036ZM16.1391 3.49137H6.85398L7.06825 2.70151C7.37075 1.60494 8.36649 0.844483 9.50507 0.840282H13.488C14.6266 0.840282 15.6223 1.60494 15.9248 2.70151L16.1391 3.49137Z" fill="#222D55"/>
<path d="M11.4972 12.0291C11.535 12.0291 11.5686 12.0249 11.6064 12.0165L19.2866 9.99561V19.7051H3.7162V9.99561L11.3964 12.0165C11.43 12.0249 11.4678 12.0291 11.5014 12.0291H11.4972ZM8.76629 18.0581H14.2281V17.2178H8.76209V18.0581H8.76629Z" fill="#222D55"/>
<path d="M0.420162 3.51221H22.5784C22.8095 3.51221 22.9985 3.70127 22.9985 3.93235V8.15056L11.4993 11.1756L2.09808e-05 8.15056V3.93235C2.09808e-05 3.70127 0.189083 3.51221 0.420162 3.51221ZM11.4993 9.77231C11.9278 9.77231 12.2765 9.42359 12.2765 8.99505C12.2765 8.5665 11.9278 8.21779 11.4993 8.21779C11.0707 8.21779 10.722 8.5665 10.722 8.99505C10.722 9.42359 11.0707 9.77231 11.4993 9.77231Z" fill="#222D55"/>
<path d="M22.9989 19.285C22.9989 19.5161 22.8098 19.7052 22.5787 19.7052H20.1293V9.77725L23.0031 9.021V19.285H22.9989Z" fill="#222D55"/>
<path d="M2.87219 19.7045H0.422772C0.191694 19.7045 0.00263095 19.5154 0.00263095 19.2844V9.01611L2.87219 9.77237V19.7045Z" fill="#222D55"/>
</g>
<defs>
<clipPath id="clip0_2564_2574">
<rect width="22.9985" height="19.7046" fill="white" transform="matrix(-1 0 0 1 22.9985 0)"/>
</clipPath>
</defs>
</svg>
