<svg width="33" height="37" viewBox="0 0 33 37" fill="none" xmlns="http://www.w3.org/2000/svg">
<g clip-path="url(#clip0_1430_1334)">
<path d="M13.1035 3.1642V3.34405C14.1337 3.11081 15.2046 2.98716 16.3048 2.98716C17.4051 2.98716 18.4684 3.10613 19.5061 3.33843V3.1642C19.5061 1.42005 18.0704 0 16.3048 0C14.5393 0 13.1035 1.41911 13.1035 3.1642Z" fill="white"/>
<path d="M29.9064 26.4226C29.1691 24.9857 28.7796 23.3745 28.7796 21.7634V21.3896H3.82963V21.7634C3.82963 23.3745 3.44013 24.9857 2.70282 26.4226L0 31.6934H32.6102L29.9073 26.4226H29.9064Z" fill="white"/>
<path d="M3.83008 17.2392V19.5154H28.78V17.2392C28.78 10.4134 23.1839 4.8606 16.3046 4.8606C9.42527 4.8606 3.83008 10.4143 3.83008 17.2392Z" fill="white"/>
<path d="M16.3187 36.9999H16.4153C18.5278 36.9999 20.298 35.5274 20.734 33.5669H12.001C12.436 35.5274 14.2063 36.9999 16.3187 36.9999Z" fill="white"/>
</g>
<defs>
<clipPath id="clip0_1430_1334">
<rect width="32.6102" height="37" fill="white"/>
</clipPath>
</defs>
</svg>
