<svg width="47" height="43" viewBox="0 0 47 43" fill="none" xmlns="http://www.w3.org/2000/svg">
<g clip-path="url(#clip0_2757_9492)">
<path d="M41.9328 16.5336H41.4427L40.0268 12.7215C43.2943 10.8699 44.4379 6.73107 42.6408 3.46358C40.7892 0.196086 36.6504 -0.947537 33.3829 0.849584C31.8036 1.72092 30.6055 3.24575 30.1699 4.98841L25.1052 4.44383C24.724 2.04767 22.4912 0.35946 20.0951 0.740668C17.9168 1.06742 16.3375 2.919 16.3375 5.09733C16.3375 5.85974 16.5553 6.62216 16.9365 7.33011L10.8372 13.3205C9.69356 12.4492 8.27765 11.9591 6.80728 11.9591C3.04966 11.9591 0 15.0087 0 18.7663C0 22.524 3.04966 25.5736 6.80728 25.5736L8.16873 33.7424C5.93595 34.7226 4.90124 37.3366 5.88149 39.5694C6.86174 41.8022 9.47573 42.8369 11.7085 41.8566C13.7779 40.9853 14.8126 38.6981 14.2136 36.5197L19.0059 34.0146C22.11 37.4455 27.4469 37.7178 30.9323 34.6137C32.6749 33.0344 33.7096 30.7471 33.7096 28.4054C33.7096 27.8064 33.6552 27.1529 33.4918 26.5539L38.7743 23.831C40.408 25.6825 43.1854 25.8459 45.0369 24.2122C46.8885 22.5784 47.0519 19.801 45.4182 17.9495C44.3835 17.0781 43.1854 16.5336 41.9328 16.5336ZM41.9328 18.1673C42.6408 18.1673 43.1854 18.7119 43.1854 19.4198C43.1854 20.1278 42.6408 20.6724 41.9328 20.6724C41.2249 20.6724 40.6803 20.1278 40.6803 19.4198C40.6803 18.7119 41.2249 18.1673 41.9328 18.1673ZM36.7048 2.64671C37.7396 2.64671 38.6109 3.51804 38.6109 4.55274C38.6109 5.58745 37.7396 6.45878 36.7048 6.45878C35.6701 6.45878 34.7988 5.58745 34.7988 4.55274C34.7988 3.51804 35.6157 2.64671 36.7048 2.64671ZM32.8383 8.85494C32.8383 8.58265 33.0017 8.2559 33.2195 8.09253C33.7641 7.71132 34.4176 7.38457 35.0711 7.2212C35.5612 7.05782 36.1058 7.00336 36.6504 7.00336C37.195 7.00336 37.7395 7.11228 38.2297 7.2212C38.8832 7.38457 39.5367 7.71132 40.0813 8.14699C40.2991 8.31036 40.4625 8.63711 40.4625 8.9094V10.3798H32.8383V8.85494ZM20.6941 2.31996C21.4021 2.31996 21.9467 2.86454 21.9467 3.5725C21.9467 4.28045 21.4021 4.82503 20.6941 4.82503C19.9862 4.82503 19.4416 4.28045 19.4416 3.5725C19.4416 2.919 19.9862 2.31996 20.6941 2.31996ZM18.1346 6.40432C18.1346 6.18649 18.2435 6.02312 18.4069 5.9142C18.7881 5.64191 19.2238 5.47853 19.6594 5.36962C19.9862 5.2607 20.3674 5.20624 20.6941 5.20624C21.0209 5.20624 21.4021 5.2607 21.7288 5.36962C22.1645 5.47853 22.5457 5.69637 22.9269 5.96866C23.0903 6.07757 23.1992 6.29541 23.1992 6.45878V7.43903H18.189V6.40432H18.1346ZM6.69836 14.6275C7.73307 14.6275 8.6044 15.4988 8.6044 16.5336C8.6044 17.5683 7.73307 18.4396 6.69836 18.4396C5.66366 18.4396 4.79232 17.5683 4.79232 16.5336C4.84678 15.4988 5.66366 14.6275 6.69836 14.6275ZM2.88629 22.3061V20.8358C2.88629 20.5635 3.04966 20.2367 3.26749 20.0733C3.81208 19.6921 4.46557 19.3654 5.11907 19.202C5.6092 19.0386 6.15378 18.9842 6.69836 18.9842C7.24294 18.9842 7.78753 19.0931 8.27765 19.202C8.93115 19.3654 9.58465 19.6921 10.1292 20.1278C10.3471 20.2912 10.5104 20.6179 10.5104 20.8902V22.3606L2.88629 22.3061ZM12.3076 40.0595H7.24294V39.0793C7.24294 38.8614 7.35186 38.6981 7.51523 38.5891C7.89644 38.3168 8.33211 38.099 8.76777 37.9901C9.09452 37.8812 9.47573 37.8267 9.80248 37.8267C10.1292 37.8267 10.5104 37.8812 10.8372 37.9901C11.2729 38.099 11.6541 38.3168 12.0353 38.5891C12.1986 38.6981 12.3076 38.9159 12.3076 39.0793V40.0595ZM8.49548 36.2474C8.49548 35.5395 9.04006 34.9949 9.74802 34.9949C10.456 34.9949 11.0006 35.5395 11.0006 36.2474C11.0006 36.9554 10.456 37.5 9.74802 37.5C9.09452 37.5544 8.54994 36.9554 8.49548 36.2474ZM12.8521 34.7226C12.1442 34.0146 11.1639 33.579 10.1837 33.4701L8.82223 25.3013C10.1292 24.8657 11.2729 24.0488 12.0897 22.9596L17.1543 25.6281C16.3375 27.8064 16.5008 30.257 17.59 32.3264L12.8521 34.7226ZM18.189 23.6131L13.1789 20.9991C13.3967 20.2912 13.5056 19.5832 13.5056 18.8208C13.5056 17.4049 13.07 16.0434 12.2531 14.8998L18.3524 8.96386C20.4218 10.2164 23.1447 9.61736 24.3973 7.54795C24.5607 7.27565 24.6696 7.00336 24.7785 6.73107L29.8431 7.27565C29.952 9.23615 30.9323 11.0877 32.5116 12.2858L28.046 20.6179C24.5062 19.202 20.4218 20.4545 18.189 23.6131ZM27.4469 25.6281C27.4469 26.9351 26.3578 27.9698 25.0508 27.9698C23.7438 27.9698 22.7091 26.9351 22.7091 25.6281C22.7091 24.3211 23.7438 23.2864 25.0508 23.2864H25.1052C26.4122 23.2864 27.4469 24.3211 27.4469 25.6281ZM29.7886 32.7621H20.3674V30.965C20.3674 30.5838 20.5308 30.257 20.8575 30.0392C21.5655 29.5491 22.3279 29.1679 23.1447 28.8956C23.7982 28.7322 24.4517 28.6233 25.1052 28.6233C25.7587 28.6233 26.4122 28.7322 27.0657 28.8956C27.8826 29.1134 28.6995 29.4946 29.353 30.0392C29.6253 30.257 29.8431 30.6382 29.8431 30.965L29.7886 32.7621ZM37.5217 20.9991C37.5217 21.3259 37.5762 21.6526 37.6851 21.9794L32.6749 24.5934C32.0759 23.3953 31.1501 22.415 30.0609 21.6526L34.5265 13.3205C35.2345 13.5928 35.9969 13.7017 36.7593 13.7017C37.195 13.7017 37.6306 13.6473 38.0663 13.5928L39.4822 17.4049C38.1752 18.1673 37.4673 19.5288 37.5217 20.9991ZM44.4379 23.1775H39.3733V22.1972C39.3733 21.9794 39.4822 21.816 39.6456 21.7071C40.0268 21.4348 40.4625 21.217 40.8981 21.108C41.2249 20.9991 41.6061 20.9447 41.9328 20.9447C42.2596 20.9447 42.6408 20.9991 42.9675 21.108C43.4032 21.217 43.7844 21.4348 44.1656 21.7071C44.329 21.816 44.4379 22.0338 44.4379 22.1972V23.1775Z" fill="white"/>
</g>
<defs>
<clipPath id="clip0_2757_9492">
<rect width="46.54" height="42.2269" fill="white"/>
</clipPath>
</defs>
</svg>
