<svg width="39" height="44" viewBox="0 0 39 44" fill="none" xmlns="http://www.w3.org/2000/svg">
<g clip-path="url(#clip0_1430_1294)">
<path d="M14.391 16.9017C19.1363 16.9017 22.9888 13.1046 22.9888 8.4277C22.9888 3.75079 19.1363 0 14.391 0C9.64583 0 5.84027 3.7971 5.84027 8.4277C5.79329 13.1046 9.64583 16.9017 14.391 16.9017Z" fill="white"/>
<path d="M21.4383 16.8555C19.512 18.4299 17.069 19.4023 14.391 19.4023C11.713 19.4023 9.2699 18.4299 7.34363 16.8555C3.81996 18.1057 1.18895 21.2545 0.719126 25.0979L0.0143921 31.3956C-0.126555 32.6458 0.860073 33.7109 2.17558 33.7109H22.5659C22.6129 33.3404 22.7068 33.0626 22.8008 32.7847V32.6921C22.8008 32.6921 22.7538 32.6921 22.7538 32.6458C22.143 32.1828 21.0625 31.4419 21.0625 30.1453C21.0625 28.8487 22.143 28.0615 22.7538 27.6448C22.7538 27.6448 22.8008 27.6448 22.8008 27.5985V27.5059C22.5659 26.8113 22.19 25.6073 22.9417 24.5886C23.7404 23.5235 25.009 23.5235 25.7607 23.5235H25.8547V23.4309C26.0426 22.9216 26.2775 22.1344 26.8883 21.625C25.8077 19.4023 23.8344 17.689 21.4383 16.8555Z" fill="white"/>
<path d="M29.4716 39.2211L27.2635 43.7591C27.1225 44.0833 26.6527 44.0833 26.4648 43.7591L25.3842 41.8606L23.223 42.231C22.8471 42.2773 22.5652 41.9069 22.7532 41.5828L25.0083 36.8132C25.2902 36.8132 25.5721 36.8595 25.807 36.8595H25.901V36.9522C26.1359 37.6467 26.5587 38.8507 27.8273 39.2675C28.0622 39.3601 28.2971 39.4064 28.579 39.4064C28.9079 39.3601 29.1898 39.3138 29.4716 39.2211Z" fill="white"/>
<path d="M38.445 42.231L36.2369 41.8606L35.2033 43.7591C35.0153 44.0833 34.5455 44.0833 34.3576 43.7591L32.1494 39.2211C32.4313 39.3138 32.7602 39.4064 33.0891 39.4064C33.324 39.4064 33.6059 39.3601 33.8408 39.2675C35.1093 38.8507 35.4852 37.6467 35.767 36.9522V36.8595H35.861C36.0959 36.8595 36.3308 36.8595 36.6597 36.8132L38.9618 41.5828C39.1028 41.9069 38.8209 42.2773 38.445 42.231Z" fill="white"/>
<path d="M38.7275 30.1915C38.7275 29.4506 37.177 28.9413 36.9421 28.2467C36.7072 27.5521 37.6469 26.2092 37.224 25.6072C36.8012 25.0053 35.2038 25.5146 34.593 25.0516C33.9822 24.6348 33.9822 23.0141 33.2775 22.7826C32.5728 22.551 31.5861 23.8476 30.8344 23.8476C30.0827 23.8476 29.0961 22.551 28.3914 22.7826C27.6866 23.0141 27.6396 24.6348 27.0758 25.0516C26.4651 25.4683 24.9147 25.0053 24.4448 25.6072C24.022 26.2092 24.9616 27.5058 24.7267 28.2467C24.4918 28.9413 22.9414 29.4506 22.9414 30.1915C22.9414 30.9324 24.4918 31.4418 24.7267 32.1364C24.9616 32.831 24.022 34.1739 24.4448 34.7758C24.8677 35.3778 26.4651 34.8685 27.0758 35.3315C27.6866 35.7483 27.6866 37.369 28.3914 37.6005C29.0961 37.832 30.0827 36.5355 30.8344 36.5355C31.5861 36.5355 32.5728 37.832 33.2775 37.6005C33.9822 37.369 33.9822 35.7483 34.593 35.3315C35.2038 34.9148 36.7542 35.3778 37.224 34.7758C37.6469 34.1739 36.7072 32.8773 36.9421 32.1364C37.177 31.4418 38.7275 30.9324 38.7275 30.1915ZM34.734 29.5433L32.9017 31.1177L33.4654 33.433C33.5594 33.7571 33.1835 33.9886 32.9017 33.8034L30.8344 32.5531L28.7672 33.8034C28.4853 33.9886 28.1564 33.7108 28.2034 33.433L28.7672 31.1177L26.9349 29.5433C26.7 29.3117 26.8409 28.9413 27.1228 28.895L29.5189 28.7097L30.4586 26.4871C30.5995 26.2092 31.0224 26.2092 31.1163 26.4871L32.056 28.7097L34.4521 28.895C34.8279 28.9413 34.9689 29.358 34.734 29.5433Z" fill="white"/>
</g>
<defs>
<clipPath id="clip0_1430_1294">
<rect width="39" height="44" fill="white"/>
</clipPath>
</defs>
</svg>
