<svg width="36" height="36" viewBox="0 0 36 36" fill="none" xmlns="http://www.w3.org/2000/svg">
<g clip-path="url(#clip0_2564_3514)">
<path d="M10 10C10.2652 10 10.5196 9.89464 10.7071 9.70711C10.8946 9.51957 11 9.26522 11 9V3C11 2.73478 10.8946 2.48043 10.7071 2.29289C10.5196 2.10536 10.2652 2 10 2C9.73478 2 9.48043 2.10536 9.29289 2.29289C9.10536 2.48043 9 2.73478 9 3V9C9 9.26522 9.10536 9.51957 9.29289 9.70711C9.48043 9.89464 9.73478 10 10 10Z" fill="#007A47"/>
<path d="M26 10C26.2652 10 26.5196 9.89464 26.7071 9.70711C26.8946 9.51957 27 9.26522 27 9V3C27 2.73478 26.8946 2.48043 26.7071 2.29289C26.5196 2.10536 26.2652 2 26 2C25.7348 2 25.4804 2.10536 25.2929 2.29289C25.1054 2.48043 25 2.73478 25 3V9C25 9.26522 25.1054 9.51957 25.2929 9.70711C25.4804 9.89464 25.7348 10 26 10Z" fill="#007A47"/>
<path d="M32.2498 6.00012H28.2498V9.00012C28.2498 9.58359 28.018 10.1432 27.6054 10.5557C27.1928 10.9683 26.6332 11.2001 26.0498 11.2001C25.4663 11.2001 24.9067 10.9683 24.4941 10.5557C24.0816 10.1432 23.8498 9.58359 23.8498 9.00012V6.00012H12.1998V9.00012C12.1998 9.58359 11.968 10.1432 11.5554 10.5557C11.1428 10.9683 10.5832 11.2001 9.99977 11.2001C9.41629 11.2001 8.85671 10.9683 8.44413 10.5557C8.03155 10.1432 7.79977 9.58359 7.79977 9.00012V6.00012H3.79977C3.56179 5.99741 3.32569 6.04245 3.10542 6.13258C2.88516 6.22271 2.6852 6.35609 2.51738 6.52484C2.34956 6.69359 2.21729 6.89428 2.12838 7.11505C2.03948 7.33581 1.99574 7.57216 1.99977 7.81012V30.1901C1.9958 30.4239 2.03791 30.6561 2.12371 30.8736C2.20952 31.0911 2.33732 31.2895 2.49983 31.4576C2.66234 31.6257 2.85637 31.7601 3.07084 31.8532C3.2853 31.9463 3.51601 31.9962 3.74977 32.0001H32.2498C32.4835 31.9962 32.7142 31.9463 32.9287 31.8532C33.1432 31.7601 33.3372 31.6257 33.4997 31.4576C33.6622 31.2895 33.79 31.0911 33.8758 30.8736C33.9616 30.6561 34.0037 30.4239 33.9998 30.1901V7.81012C34.0037 7.57635 33.9616 7.3441 33.8758 7.12662C33.79 6.90913 33.6622 6.71069 33.4997 6.54261C33.3372 6.37453 33.1432 6.2401 32.9287 6.14702C32.7142 6.05394 32.4835 6.00402 32.2498 6.00012ZM25.9398 16.5801L16.2698 26.2501L10.9998 20.9401C10.7663 20.6833 10.6398 20.347 10.6463 20C10.6527 19.653 10.7916 19.3216 11.0344 19.0736C11.2772 18.8257 11.6057 18.6799 11.9525 18.6663C12.2993 18.6526 12.6382 18.772 12.8998 19.0001L16.2798 22.3801L23.9998 14.6601C24.1265 14.5334 24.2769 14.4329 24.4425 14.3643C24.6081 14.2957 24.7856 14.2604 24.9648 14.2604C25.144 14.2604 25.3214 14.2957 25.487 14.3643C25.6526 14.4329 25.803 14.5334 25.9298 14.6601C26.0565 14.7868 26.157 14.9373 26.2256 15.1029C26.2942 15.2684 26.3295 15.4459 26.3295 15.6251C26.3295 15.8043 26.2942 15.9818 26.2256 16.1474C26.157 16.3129 26.0565 16.4634 25.9298 16.5901L25.9398 16.5801Z" fill="#007A47"/>
</g>
<defs>
<clipPath id="clip0_2564_3514">
<rect width="36" height="36" fill="white"/>
</clipPath>
</defs>
</svg>
