<svg width="68" height="68" viewBox="0 0 68 68" fill="none" xmlns="http://www.w3.org/2000/svg">
<circle cx="34" cy="34" r="34" fill="#222D55"/>
<path d="M45.9074 21.5115H40.6126V26.8063H42.3775V29.9703L35.3178 37.03V18.3487L36.903 19.9275C37.2727 20.2446 37.8298 20.2022 38.1468 19.8313C38.4292 19.5014 38.4292 19.0136 38.1468 18.6838L34.436 14.9678L30.7251 18.6838C30.4081 19.0534 30.4517 19.6105 30.8214 19.9275C31.1513 20.2112 31.6391 20.2112 31.9689 19.9275L33.5529 18.3487V40.5598L26.4932 33.5001V29.7405C27.8717 29.2528 28.5944 27.7407 28.1079 26.3621C27.6202 24.9836 26.1068 24.2609 24.7282 24.7487C23.351 25.2364 22.6283 26.7485 23.1148 28.1271C23.3818 28.8818 23.9748 29.4748 24.7282 29.7405V34.2331L33.5529 43.0577V45.4529C31.666 45.9406 30.5313 47.866 31.0178 49.7528C31.5056 51.641 33.4309 52.7757 35.3178 52.2879C37.2059 51.8014 38.3406 49.8761 37.8542 47.9879C37.5333 46.7454 36.5616 45.7737 35.3178 45.4529V39.5278L44.1424 30.7032V26.8063H45.9074V21.5115Z" fill="white"/>
</svg>
