<svg width="68" height="68" viewBox="0 0 68 68" fill="none" xmlns="http://www.w3.org/2000/svg">
<circle cx="34" cy="34" r="34" fill="#222D55"/>
<path d="M23.5592 28.3433C19.9293 28.3433 16.9871 31.2855 16.9871 34.9154C16.9871 38.5454 19.9293 41.4876 23.5592 41.4876C27.1892 41.4876 30.1314 38.5454 30.1314 34.9154C30.1314 31.2855 27.1892 28.3433 23.5592 28.3433ZM23.5592 30.888C24.5782 30.8854 25.4073 31.7087 25.41 32.7282C25.4131 33.7477 24.5887 34.5758 23.5698 34.5789C22.5503 34.5816 21.7216 33.7582 21.719 32.7387C21.719 32.7371 21.719 32.735 21.719 32.7335C21.719 31.7161 22.5419 30.8906 23.5592 30.888ZM27.2396 38.2856H19.8788V36.866C19.8856 36.5779 20.0208 36.3082 20.2469 36.13C20.7937 35.7514 21.3993 35.4675 22.0397 35.2887C22.534 35.1468 23.045 35.0711 23.5592 35.0626C24.074 35.0642 24.5861 35.1405 25.0787 35.2887C25.7307 35.458 26.3421 35.7567 26.8769 36.1668C27.1029 36.345 27.2381 36.6147 27.2449 36.9028L27.2396 38.2856Z" fill="white"/>
<path d="M37.4396 26.624L31.0042 30.4832C31.3664 31.092 31.6561 31.7414 31.8664 32.4181L38.4964 28.4537C38.0527 27.9011 37.6967 27.2844 37.4396 26.624Z" fill="white"/>
<path d="M48.5335 24.1372C48.5335 26.7509 46.4152 28.8692 43.8015 28.8692C41.1879 28.8692 39.0696 26.7509 39.0696 24.1372C39.0696 21.5236 41.1879 19.4053 43.8015 19.4053C46.4152 19.4053 48.5335 21.5236 48.5335 24.1372Z" fill="white"/>
<path d="M38.4964 41.388L31.8664 37.3921C31.6561 38.0688 31.3664 38.7181 31.0042 39.3269L37.4396 43.2071C37.6978 42.551 38.0542 41.9374 38.4964 41.388Z" fill="white"/>
<path d="M48.5335 45.6939C48.5335 48.3075 46.4152 50.4258 43.8015 50.4258C41.1879 50.4258 39.0696 48.3075 39.0696 45.6939C39.0696 43.0803 41.1879 40.9619 43.8015 40.9619C46.4152 40.9619 48.5335 43.0803 48.5335 45.6939Z" fill="white"/>
</svg>
