<svg width="44" height="48" viewBox="0 0 44 48" fill="none" xmlns="http://www.w3.org/2000/svg">
<g clip-path="url(#clip0_1430_1326)">
<path d="M24.1334 21.536C24.1387 21.4347 24.1441 21.328 24.1441 21.2214C24.1441 19.6854 23.2374 18.7947 21.8187 18.6987C20.5814 18.6134 19.6481 19.1094 19.2267 19.9254C19.0827 20.2027 19.0027 20.544 18.9707 20.9174C18.9227 21.1147 18.8961 21.312 18.8961 21.5254C18.8961 21.5254 18.8907 21.5307 18.8854 21.5307C18.7041 21.5627 18.6241 21.9467 18.6987 22.3947C18.7681 22.8054 18.9547 23.12 19.1254 23.1414C19.3441 23.7227 19.6854 24.288 20.1067 24.704C20.3467 24.9387 20.6134 25.1254 20.8961 25.2374C21.0881 25.3174 21.2961 25.3547 21.5041 25.3547C21.7121 25.3547 21.9147 25.312 22.1121 25.2374C22.4054 25.12 22.6774 24.928 22.9281 24.6827C23.3387 24.272 23.6747 23.712 23.8881 23.1414C24.0534 23.0934 24.2241 22.7894 24.2934 22.3947C24.3681 21.968 24.2934 21.6 24.1334 21.5414V21.536Z" fill="white"/>
<path d="M37.6907 27.92C35.9627 27.92 34.416 28.736 33.4293 30.0053L27.8507 26.9387C27.904 26.832 27.9467 26.72 27.9947 26.608C27.9947 26.5973 28 26.5867 28.0053 26.5813C28.048 26.48 28.0853 26.3787 28.1227 26.2773C28.128 26.2613 28.1333 26.24 28.1387 26.224C28.1707 26.128 28.2027 26.032 28.2293 25.936C28.2347 25.9093 28.2453 25.888 28.2507 25.8613C28.2773 25.7707 28.2987 25.68 28.32 25.5893C28.3253 25.5573 28.336 25.5307 28.3413 25.4987C28.3573 25.4133 28.3787 25.3227 28.3947 25.2373C28.4 25.2 28.4053 25.168 28.4107 25.1307C28.4267 25.0453 28.4373 24.96 28.448 24.8747C28.448 24.8373 28.4587 24.8 28.464 24.7627C28.4747 24.672 28.48 24.5867 28.4853 24.496C28.4853 24.4587 28.4907 24.4267 28.496 24.3893C28.5013 24.2667 28.5067 24.1387 28.5067 24.0107C28.5067 22.96 28.272 21.968 27.856 21.0773L33.4347 18.0107C34.4267 19.28 35.968 20.096 37.696 20.096C40.6773 20.096 43.104 17.6693 43.104 14.688C43.104 11.7067 40.6773 9.28 37.696 9.28C34.7147 9.28 32.288 11.7067 32.288 14.688C32.288 15.6053 32.5173 16.4747 32.9227 17.232L27.408 20.2613C26.2507 18.4587 24.2827 17.2213 22.0213 17.072V10.7947C24.7893 10.56 26.9653 8.23467 26.9653 5.408C26.9653 2.42667 24.5387 0 21.5573 0C18.576 0 16.1493 2.42667 16.1493 5.408C16.1493 8.23467 18.3253 10.56 21.0933 10.7947V17.072C18.832 17.2213 16.864 18.4587 15.7067 20.2613L10.1867 17.2267C10.592 16.4693 10.8213 15.6 10.8213 14.6827C10.8213 11.7013 8.39467 9.27467 5.41333 9.27467C2.432 9.27467 0 11.7067 0 14.688C0 17.6693 2.42667 20.096 5.408 20.096C7.136 20.096 8.68267 19.28 9.66933 18.0107L15.248 21.0773C14.832 21.968 14.5973 22.9653 14.5973 24.0107C14.5973 24.1387 14.5973 24.2613 14.608 24.3893C14.608 24.4267 14.6133 24.4587 14.6133 24.496C14.6187 24.5867 14.624 24.672 14.6347 24.7627C14.6347 24.8 14.6453 24.8373 14.6507 24.8747C14.6613 24.96 14.672 25.0453 14.688 25.1307C14.6933 25.168 14.6987 25.2 14.7093 25.2373C14.7253 25.3227 14.7413 25.4133 14.7627 25.4987C14.768 25.5307 14.7787 25.5627 14.784 25.5893C14.8053 25.68 14.8267 25.7707 14.8533 25.8613C14.8587 25.888 14.8693 25.9147 14.8747 25.936C14.9013 26.032 14.9333 26.128 14.9653 26.2187C14.9707 26.24 14.976 26.256 14.9867 26.2773C15.0187 26.3787 15.0613 26.48 15.0987 26.576C15.0987 26.5867 15.1093 26.5973 15.1147 26.6133C15.1573 26.72 15.2053 26.8267 15.2533 26.9333C15.2533 26.9333 15.2533 26.9387 15.2533 26.944L9.67467 30.0107C8.68267 28.7413 7.14133 27.9253 5.41333 27.9253C2.432 27.9253 0.00533333 30.352 0.00533333 33.3333C0.00533333 36.3147 2.432 38.7413 5.41333 38.7413C8.39467 38.7413 10.8213 36.3147 10.8213 33.3333C10.8213 32.416 10.592 31.5467 10.1867 30.7893L15.7067 27.7547C16.0693 28.3147 16.5067 28.8213 17.008 29.2587C17.008 29.2587 17.0133 29.264 17.0187 29.2693C17.4187 29.616 17.8613 29.92 18.336 30.1707C18.4533 30.2293 18.5653 30.288 18.6827 30.3413C18.688 30.3413 18.6987 30.3467 18.704 30.352C18.8213 30.4053 18.944 30.4533 19.0613 30.5013C19.44 30.6453 19.8347 30.7573 20.2453 30.8373C20.2453 30.8373 20.2453 30.8373 20.2507 30.8373C20.3787 30.864 20.512 30.88 20.6453 30.9013C20.656 30.9013 20.6667 30.9013 20.6773 30.9013C20.8107 30.9173 20.944 30.9333 21.0773 30.9387C21.0773 30.9387 21.0773 30.9387 21.0827 30.9387V37.2C18.2987 37.4133 16.096 39.7493 16.096 42.5867C16.096 45.568 18.5227 47.9947 21.504 47.9947C24.4853 47.9947 26.912 45.568 26.912 42.5867C26.912 39.776 24.7573 37.4613 22.0107 37.2053V30.9387C22.0107 30.9387 22.0107 30.9387 22.016 30.9387C22.1493 30.928 22.2827 30.9173 22.416 30.9013C22.4267 30.9013 22.4373 30.9013 22.448 30.9013C22.5813 30.8853 22.7147 30.864 22.8427 30.8373C23.248 30.7573 23.648 30.6453 24.0267 30.5013C24.1493 30.4533 24.272 30.4053 24.3893 30.352C24.3947 30.352 24.4053 30.3467 24.4107 30.3413C25.0187 30.064 25.584 29.7013 26.0853 29.2693C26.0853 29.2693 26.0907 29.2693 26.096 29.264C26.5973 28.8267 27.0347 28.32 27.3973 27.76L32.9173 30.7893C32.512 31.5467 32.2827 32.416 32.2827 33.3333C32.2827 36.3147 34.7093 38.7413 37.6907 38.7413C40.672 38.7413 43.0987 36.3147 43.0987 33.3333C43.0987 30.352 40.672 27.9253 37.6907 27.9253V27.92ZM26.6347 27.44C26.432 26.7947 26.176 26.368 25.9147 26.0747C25.424 25.5253 24.928 25.4773 24.7787 25.4453C24.32 25.3387 23.7653 25.3813 23.4667 25.2907C23.4293 25.584 22.5867 26.5387 22.032 27.1413L21.792 26.2133C21.9733 26.1067 22.0107 25.872 22.0107 25.6747H21.0987C21.0987 25.8667 21.136 26.1013 21.3173 26.208L21.0827 27.136C20.528 26.5333 19.68 25.5787 19.648 25.2853C19.3493 25.376 18.7947 25.3333 18.336 25.44C18.1813 25.4773 17.6587 25.5253 17.1467 26.128C16.9067 26.416 16.6667 26.832 16.4747 27.4293C15.8133 26.448 15.424 25.2693 15.424 24C15.424 20.6133 18.1707 17.8667 21.5573 17.8667C24.944 17.8667 27.6907 20.6133 27.6907 24C27.6907 25.2747 27.3013 26.4533 26.64 27.4347L26.6347 27.44Z" fill="white"/>
</g>
<defs>
<clipPath id="clip0_1430_1326">
<rect width="43.0987" height="48" fill="white"/>
</clipPath>
</defs>
</svg>
