<svg width="30" height="38" viewBox="0 0 30 38" fill="none" xmlns="http://www.w3.org/2000/svg">
<g clip-path="url(#clip0_2757_9500)">
<path d="M10.2073 24.5551C10.2073 26.2295 10.0918 27.9096 10.2304 29.5608C10.5075 32.8864 13.4289 35.3979 16.7776 35.3286C20.1089 35.2593 22.938 32.6092 23.0419 29.2606C23.1458 26.062 23.0246 22.8577 23.0996 19.6591C23.1227 18.7065 22.453 18.6314 21.9276 18.3023C19.9069 17.0437 19.0986 14.5842 19.9992 12.4306C20.8653 10.3406 23.2209 9.12814 25.3975 9.64199C27.7127 10.1905 29.2774 12.2632 29.0753 14.6015C28.9252 16.3451 28.0591 17.6846 26.4772 18.4525C25.8017 18.7815 25.6342 19.1742 25.64 19.8728C25.6747 22.7884 25.6689 25.7041 25.6516 28.6139C25.6169 33.8968 21.6909 37.9209 16.6044 37.9094C11.5236 37.8978 7.63226 33.8737 7.59761 28.5677C7.58607 27.2341 7.59761 25.9004 7.59761 24.5609C3.46951 23.5852 0.779029 21.218 0.034239 17.0495C-0.121647 16.1661 0.328691 15.1788 0.496125 14.2377C0.576955 13.7816 0.703973 13.3255 0.709747 12.8636C0.727067 9.94798 0.709747 7.03233 0.721294 4.12245C0.721294 2.32687 2.33212 0.306123 4.08151 0.132916C4.68196 0.0751802 5.548 0.415821 5.91173 0.871933C6.22351 1.25876 6.24083 2.26914 5.9406 2.66174C5.58841 3.1294 4.76857 3.34879 4.12193 3.44694C3.72932 3.50468 3.26744 3.1294 2.63812 2.85804C2.56884 3.38921 2.45914 3.87419 2.45336 4.3534C2.43027 6.31064 2.61502 8.29097 2.4014 10.2251C2.1185 12.7713 3.0365 15.0576 3.66004 17.3843C4.31245 19.8035 6.77199 21.2757 9.31814 21.0852C11.8527 20.8947 13.6483 19.0356 14.4393 16.5934C15.7903 12.4133 15.1841 8.15818 15.3342 3.92615C15.34 3.69521 15.2938 3.45272 15.2418 3.22178C15.2245 3.14095 15.1321 3.07744 14.9936 2.90423C14.6991 3.05434 14.4047 3.26796 14.0698 3.37189C13.1056 3.67789 12.1183 3.53932 11.7546 2.56936C11.541 1.99778 11.7315 0.998951 12.1299 0.542839C12.7707 -0.18463 13.7291 -0.201951 14.549 0.542839C14.7915 0.762235 15.0513 0.987404 15.34 1.11442C16.6159 1.65136 17.072 2.63865 17.0547 3.96657C17.0316 6.50116 17.0374 9.02999 17.0547 11.5646C17.0605 12.7308 16.8873 13.8856 17.7187 14.9594C18.042 15.3809 17.915 16.2643 17.7995 16.8994C17.0143 21.1256 14.3758 23.5678 10.2015 24.5493L10.2073 24.5551ZM24.3121 11.2586C22.6782 11.2875 21.3272 12.6847 21.3618 14.3186C21.3907 15.9525 22.7879 17.3035 24.4218 17.2689C26.0557 17.24 27.4067 15.8428 27.3721 14.2089C27.3432 12.575 25.946 11.2239 24.3121 11.2586Z" fill="white"/>
<path d="M24.3121 11.2583C25.946 11.2294 27.3374 12.5746 27.3721 14.2086C27.4009 15.8425 26.0557 17.2339 24.4218 17.2686C22.7879 17.2974 21.3964 15.9522 21.3618 14.3183C21.3329 12.6843 22.6782 11.2929 24.3121 11.2583ZM26.506 14.3183C26.5349 13.1866 25.6285 12.1994 24.4911 12.1243C23.3075 12.0492 22.2567 13.0134 22.222 14.2028C22.1932 15.3344 23.0996 16.3217 24.237 16.3967C25.4206 16.4718 26.4714 15.5076 26.506 14.3183Z" fill="white"/>
</g>
<defs>
<clipPath id="clip0_2757_9500">
<rect width="29.093" height="37.9093" fill="white"/>
</clipPath>
</defs>
</svg>
