<svg width="41" height="41" viewBox="0 0 41 41" fill="none" xmlns="http://www.w3.org/2000/svg">
<path d="M25.6248 31.6042C23.594 31.606 21.6018 31.0492 19.8663 29.9946C18.1308 28.94 16.7188 27.4283 15.7848 25.625H25.6248L27.3332 22.2083H14.6573C14.5719 21.6446 14.5207 21.0808 14.5207 20.5C14.5207 19.9192 14.5719 19.3554 14.6573 18.7917H25.6248L27.3332 15.375H15.7848C16.7204 13.573 18.1328 12.0625 19.868 11.0082C21.6031 9.9538 23.5945 9.39609 25.6248 9.39584C28.3753 9.39584 30.9036 10.4038 32.8511 12.0779L35.8748 9.05417C33.0619 6.52151 29.4099 5.12159 25.6248 5.12501C18.9282 5.12501 13.2565 9.41292 11.1382 15.375H5.12484L3.4165 18.7917H10.3523C10.214 19.9264 10.214 21.0737 10.3523 22.2083H5.12484L3.4165 25.625H11.1382C13.2565 31.5871 18.9282 35.875 25.6248 35.875C29.5711 35.875 33.1586 34.3888 35.8748 31.9458L32.834 28.9221C30.9036 30.5963 28.3923 31.6042 25.6248 31.6042Z" fill="#007A47"/>
</svg>
