<svg width="68" height="68" viewBox="0 0 68 68" fill="none" xmlns="http://www.w3.org/2000/svg">
<circle cx="34" cy="34" r="34" fill="#C90000"/>
<path d="M29.5637 37.3748C29.5637 38.9668 28.2725 40.2581 26.6805 40.2581C25.0885 40.2581 23.7983 38.9668 23.7983 37.3748C23.7983 35.7829 25.0885 34.4927 26.6805 34.4927C28.2725 34.4927 29.5637 35.7829 29.5637 37.3748Z" fill="white"/>
<path d="M44.9363 37.3748C44.9363 38.9668 43.6461 40.2581 42.0541 40.2581C40.4622 40.2581 39.1709 38.9668 39.1709 37.3748C39.1709 35.7829 40.4622 34.4927 42.0541 34.4927C43.6461 34.4927 44.9363 35.7829 44.9363 37.3748Z" fill="white"/>
<path d="M20.9159 43.9105V46.812H27.3069V46.1524C27.2961 45.2955 27.6992 44.485 28.389 43.9773C29.2675 43.2886 30.2753 42.7841 31.3531 42.4953L31.2195 42.3433C30.5458 41.9272 29.8139 41.6136 29.0487 41.4099C28.2834 41.162 27.4847 41.0369 26.6807 41.0391C25.8777 41.0596 25.0811 41.1846 24.3094 41.4099C23.2833 41.6481 22.3216 42.1072 21.4903 42.7539C21.12 43.0212 20.9052 43.4535 20.9159 43.9105Z" fill="white"/>
<path d="M41.4153 46.8121H47.822V43.9105C47.8166 43.4567 47.6032 43.031 47.2442 42.754C46.3906 42.1428 45.4367 41.688 44.4246 41.4099C43.6583 41.1609 42.8585 41.0359 42.0534 41.0391C41.2514 41.0607 40.4549 41.1846 39.6853 41.4099C38.947 41.591 38.2389 41.8766 37.5814 42.2582C37.5146 42.339 37.4434 42.4209 37.3701 42.4985C38.4113 42.824 39.3954 43.3112 40.2857 43.9439L40.3342 43.9773L40.3741 44.014C41.0305 44.5292 41.4142 45.3171 41.4153 46.1524V46.8121Z" fill="white"/>
<path d="M28.6001 49.0345V46.1524C28.5882 45.6954 28.8049 45.2632 29.1778 45.0002C30.0088 44.3513 30.9713 43.8921 31.9974 43.655C32.7681 43.4276 33.5657 43.3036 34.3687 43.2842C35.1728 43.281 35.9725 43.406 36.7367 43.655C37.7499 43.9299 38.7049 44.3858 39.5564 45.0002C39.9185 45.2718 40.133 45.6986 40.1341 46.1524V49.0345H28.6001Z" fill="white"/>
<path d="M37.2522 39.6165C37.2522 41.2085 35.9609 42.4987 34.369 42.4987C32.777 42.4987 31.4868 41.2085 31.4868 39.6165C31.4868 38.0246 32.777 36.7344 34.369 36.7344C35.9609 36.7344 37.2522 38.0246 37.2522 39.6165Z" fill="white"/>
<path d="M20.8452 20.8761V29.0278C20.8452 29.8459 21.5087 30.5088 22.3273 30.5088H28.2551V32.7324L30.5897 30.5088H33.2207L34.554 32.7324L35.9994 30.5088H38.5183L40.8529 32.7324V30.5088H46.3176C47.1367 30.5088 47.7996 29.8459 47.7996 29.0278V20.8761C47.7996 20.058 47.1367 19.394 46.3176 19.394H22.3273C21.5087 19.394 20.8452 20.058 20.8452 20.8761ZM44.0951 23.4694H26.773V22.7289H44.0951V23.4694ZM30.4787 26.4335H44.0951V27.175H30.4787V26.4335ZM24.5505 24.5806H44.0951V25.3222H24.5505V24.5806Z" fill="white"/>
</svg>
