<svg width="222" height="163" viewBox="0 0 222 163" fill="none" xmlns="http://www.w3.org/2000/svg">
<mask id="mask0_3653_5252" style="mask-type:luminance" maskUnits="userSpaceOnUse" x="0" y="0" width="222" height="163">
<path d="M222 0H0V163H222V0Z" fill="white"/>
</mask>
<g mask="url(#mask0_3653_5252)">
<path d="M63.9274 27.1233C43.6516 27.1233 27.1211 43.6558 27.1211 63.9339C27.1211 84.2121 30.0914 80.5956 35.1281 86.9244H39.6481V91.5742C41.5853 93.3824 43.7808 94.8032 45.9762 96.0948H48.8174V97.5155C53.4666 99.5821 58.5033 100.745 63.9274 100.745C69.3515 100.745 69.7389 100.357 72.4509 99.7113L63.6691 83.1788C61.7319 83.1788 59.7947 82.7913 58.1159 82.2747H53.4666V80.0789C52.4335 79.4331 51.4003 78.529 50.4963 77.6249H48.8174V82.2747H44.1682V77.6249H48.8174V75.8167C46.2345 72.5877 44.5556 68.3254 44.5556 63.8048C44.5556 53.2136 53.2084 44.5599 63.7982 44.5599C74.3881 44.5599 75.6796 47.6598 79.1665 52.3095L91.6935 39.781C84.978 31.9022 74.9047 26.9941 63.7982 26.9941M53.4666 86.9244H58.1159V91.5742H53.4666V86.9244Z" fill="#273375"/>
</g>
<mask id="mask1_3653_5252" style="mask-type:luminance" maskUnits="userSpaceOnUse" x="0" y="0" width="222" height="163">
<path d="M222 0H0V163H222V0Z" fill="white"/>
</mask>
<g mask="url(#mask1_3653_5252)">
<path d="M53.4658 82.2745V77.7539H48.8165V82.2745H44.2965H39.6473V86.9243H44.2965V91.574H39.6473V96.0946H34.998V100.744H39.6473H44.2965V96.0946H48.8165V91.574H53.4658V86.9243H57.9858V82.2745H53.4658Z" fill="#E30613"/>
</g>
<mask id="mask2_3653_5252" style="mask-type:luminance" maskUnits="userSpaceOnUse" x="0" y="0" width="222" height="163">
<path d="M222 0H0V163H222V0Z" fill="white"/>
</mask>
<g mask="url(#mask2_3653_5252)">
<path d="M35.1277 86.9238H30.4785V91.5736H35.1277V86.9238Z" fill="#E30613"/>
</g>
<mask id="mask3_3653_5252" style="mask-type:luminance" maskUnits="userSpaceOnUse" x="0" y="0" width="222" height="163">
<path d="M222 0H0V163H222V0Z" fill="white"/>
</mask>
<g mask="url(#mask3_3653_5252)">
<path d="M53.4656 96.0957H48.8164V100.745H53.4656V96.0957Z" fill="#E30613"/>
</g>
<mask id="mask4_3653_5252" style="mask-type:luminance" maskUnits="userSpaceOnUse" x="0" y="0" width="222" height="163">
<path d="M222 0H0V163H222V0Z" fill="white"/>
</mask>
<g mask="url(#mask4_3653_5252)">
<path d="M126.045 65.6133H122.816L125.658 70.9088H128.886L126.045 65.6133Z" fill="#E30613"/>
</g>
<mask id="mask5_3653_5252" style="mask-type:luminance" maskUnits="userSpaceOnUse" x="0" y="0" width="222" height="163">
<path d="M222 0H0V163H222V0Z" fill="white"/>
</mask>
<g mask="url(#mask5_3653_5252)">
<path d="M82.395 60.963C82.1367 60.7047 82.0076 60.5756 81.7493 60.3172C80.7162 59.4131 79.2956 58.8965 77.7458 58.8965C76.1961 58.8965 76.5835 58.8965 76.0669 59.1548C73.484 59.9298 71.5469 62.2547 71.5469 65.0962C71.5469 67.9377 73.484 70.2626 76.0669 71.0375C76.5835 71.1667 77.1001 71.2959 77.7458 71.2959C79.2956 71.2959 80.587 70.7792 81.6202 69.8751C81.8785 69.6168 82.1368 69.4876 82.2659 69.2293L80.1996 67.1627C79.5539 67.9377 78.779 68.3252 77.7458 68.3252C76.7127 68.3252 77.7458 68.3252 77.4875 68.3252C75.8087 68.3252 74.5172 66.7753 74.5172 65.0962C74.5172 63.4171 75.8087 61.9963 77.4875 61.8672C77.4875 61.8672 77.6167 61.8672 77.7458 61.8672C78.779 61.8672 79.683 62.3838 80.3287 63.1588L82.395 61.0922V60.963Z" fill="#E30613"/>
</g>
<mask id="mask6_3653_5252" style="mask-type:luminance" maskUnits="userSpaceOnUse" x="0" y="0" width="222" height="163">
<path d="M222 0H0V163H222V0Z" fill="white"/>
</mask>
<g mask="url(#mask6_3653_5252)">
<path d="M124.882 59.2852H118.812V71.0387H121.783V67.5514H124.753C127.078 67.5514 128.886 65.614 128.886 63.4183C128.886 61.2226 127.078 59.2852 124.753 59.2852M124.882 64.5807H121.912V62.1267H124.882C125.528 62.1267 126.045 62.6433 126.045 63.2891C126.045 63.9349 125.528 64.4516 124.882 64.4516" fill="#E30613"/>
</g>
<mask id="mask7_3653_5252" style="mask-type:luminance" maskUnits="userSpaceOnUse" x="0" y="0" width="222" height="163">
<path d="M222 0H0V163H222V0Z" fill="white"/>
</mask>
<g mask="url(#mask7_3653_5252)">
<path d="M103.961 64.581C104.736 64.1935 105.252 63.2894 105.252 62.1269C105.252 60.4478 103.832 59.1562 102.282 59.1562H95.5664V70.9098H102.282C104.348 70.9098 105.898 69.3599 105.898 67.4225C105.898 65.7434 104.994 64.8393 104.09 64.581M98.4076 62.1269H101.507C102.024 62.1269 102.282 62.3853 102.282 62.7727C102.282 63.1602 102.024 63.4185 101.507 63.4185H98.4076V61.9978V62.1269ZM101.765 68.0683H98.4076V66.3892H101.765C102.282 66.3892 102.669 66.7767 102.669 67.2933C102.669 67.6808 102.282 68.1975 101.765 68.1975" fill="#E30613"/>
</g>
<mask id="mask8_3653_5252" style="mask-type:luminance" maskUnits="userSpaceOnUse" x="0" y="0" width="222" height="163">
<path d="M222 0H0V163H222V0Z" fill="white"/>
</mask>
<g mask="url(#mask8_3653_5252)">
<path d="M107.32 70.9096H116.748V68.068H110.291V66.5181H115.198V63.6766H110.291V62.1267H116.748V59.2852H107.32V70.9096Z" fill="#E30613"/>
</g>
<mask id="mask9_3653_5252" style="mask-type:luminance" maskUnits="userSpaceOnUse" x="0" y="0" width="222" height="163">
<path d="M222 0H0V163H222V0Z" fill="white"/>
</mask>
<g mask="url(#mask9_3653_5252)">
<path d="M88.8513 62.7725L86.9142 59.2852H83.6855L87.1725 66.0015L84.5896 70.9096H87.8182L94.0171 59.2852H90.7885L88.8513 62.7725Z" fill="#E30613"/>
</g>
<mask id="mask10_3653_5252" style="mask-type:luminance" maskUnits="userSpaceOnUse" x="0" y="0" width="222" height="163">
<path d="M222 0H0V163H222V0Z" fill="white"/>
</mask>
<g mask="url(#mask10_3653_5252)">
<path d="M78.7788 98.1621C79.2954 98.1621 79.6828 98.5496 79.6828 98.9371C79.6828 99.3245 79.2954 99.712 78.7788 99.712C78.2622 99.712 78.0039 99.3245 78.0039 98.9371C78.0039 98.5496 78.3913 98.1621 78.7788 98.1621Z" fill="#273375"/>
</g>
<mask id="mask11_3653_5252" style="mask-type:luminance" maskUnits="userSpaceOnUse" x="0" y="0" width="222" height="163">
<path d="M222 0H0V163H222V0Z" fill="white"/>
</mask>
<g mask="url(#mask11_3653_5252)">
<path d="M92.9842 94.2875V94.675C92.9842 97.904 90.9179 99.9705 87.8184 99.9705C84.7189 99.9705 85.8812 99.7122 85.2355 99.3247C83.5566 98.4206 82.5234 96.7415 82.5234 94.5458C82.5234 92.3501 83.04 91.446 84.2023 90.4127C85.1063 89.5086 86.3978 89.1211 87.8184 89.1211C89.239 89.1211 91.1761 89.7669 92.2093 91.3168L91.1761 92.0918C90.4013 90.8002 89.3681 90.1544 87.8184 90.1544C85.3646 90.1544 83.8149 91.9626 83.8149 94.5458C83.8149 97.129 85.4938 98.8081 87.8184 98.8081C90.143 98.8081 91.4344 97.3873 91.5636 95.4499H88.5932V94.2875H92.855H92.9842Z" fill="#273375"/>
</g>
<mask id="mask12_3653_5252" style="mask-type:luminance" maskUnits="userSpaceOnUse" x="0" y="0" width="222" height="163">
<path d="M222 0H0V163H222V0Z" fill="white"/>
</mask>
<g mask="url(#mask12_3653_5252)">
<path d="M104.478 98.2917C103.445 99.325 102.025 99.8416 100.604 99.8416C99.1834 99.8416 97.7628 99.325 96.7297 98.2917C95.6965 97.2584 95.0508 95.9668 95.0508 94.4169C95.0508 92.867 95.5674 91.5754 96.7297 90.5421C97.7628 89.5088 99.1834 88.9922 100.604 88.9922C102.025 88.9922 103.445 89.5088 104.478 90.5421C105.512 91.5754 106.028 92.867 106.028 94.4169C106.028 95.9668 105.512 97.2584 104.478 98.2917ZM103.574 97.5167C104.349 96.7418 104.866 95.7085 104.866 94.5461C104.866 93.3836 104.478 92.3503 103.574 91.5754C102.67 90.8004 101.766 90.2838 100.604 90.2838C99.4417 90.2838 98.4085 90.6713 97.6337 91.5754C96.8588 92.3503 96.3422 93.5128 96.3422 94.5461C96.3422 95.5793 96.7297 96.7418 97.6337 97.5167C98.4085 98.2917 99.4417 98.8083 100.604 98.8083C101.766 98.8083 102.799 98.4209 103.574 97.5167Z" fill="#273375"/>
</g>
<mask id="mask13_3653_5252" style="mask-type:luminance" maskUnits="userSpaceOnUse" x="0" y="0" width="222" height="163">
<path d="M222 0H0V163H222V0Z" fill="white"/>
</mask>
<g mask="url(#mask13_3653_5252)">
<path d="M109.643 89.3789V95.8369C109.643 97.9035 110.418 98.8076 112.355 98.8076C114.292 98.8076 115.067 97.9035 115.067 95.8369V89.3789H116.359V95.8369C116.359 98.6784 115.067 99.97 112.355 99.97C109.643 99.97 108.352 98.5493 108.352 95.8369V89.3789H109.643Z" fill="#273375"/>
</g>
<mask id="mask14_3653_5252" style="mask-type:luminance" maskUnits="userSpaceOnUse" x="0" y="0" width="222" height="163">
<path d="M222 0H0V163H222V0Z" fill="white"/>
</mask>
<g mask="url(#mask14_3653_5252)">
<path d="M118.426 89.3789H119.717L122.688 97.2577L125.787 89.3789H127.078L122.688 99.97L118.426 89.3789Z" fill="#273375"/>
</g>
<mask id="mask15_3653_5252" style="mask-type:luminance" maskUnits="userSpaceOnUse" x="0" y="0" width="222" height="163">
<path d="M222 0H0V163H222V0Z" fill="white"/>
</mask>
<g mask="url(#mask15_3653_5252)">
<path d="M127.982 98.1621C128.498 98.1621 128.886 98.5496 128.886 98.9371C128.886 99.3245 128.498 99.712 127.982 99.712C127.465 99.712 127.207 99.3245 127.207 98.9371C127.207 98.4204 127.594 98.1621 127.982 98.1621Z" fill="#273375"/>
</g>
<mask id="mask16_3653_5252" style="mask-type:luminance" maskUnits="userSpaceOnUse" x="0" y="0" width="222" height="163">
<path d="M222 0H0V163H222V0Z" fill="white"/>
</mask>
<g mask="url(#mask16_3653_5252)">
<path d="M132.244 89.3789H137.797V90.4122H133.536V93.3829H137.797V94.5453H133.536V99.5826H132.244V89.3789Z" fill="#273375"/>
</g>
<mask id="mask17_3653_5252" style="mask-type:luminance" maskUnits="userSpaceOnUse" x="0" y="0" width="222" height="163">
<path d="M222 0H0V163H222V0Z" fill="white"/>
</mask>
<g mask="url(#mask17_3653_5252)">
<path d="M140.639 89.3789H143.093C144.126 89.3789 144.772 89.3789 145.417 89.8955C146.063 90.4122 146.321 91.1872 146.321 92.2204C146.321 93.8995 145.417 94.8036 143.48 94.8036H143.222L147.096 99.7117H145.546L141.801 94.8036H141.672V99.7117H140.51V89.3789H140.639ZM141.801 93.7704H142.705C144.384 93.7704 145.159 93.512 145.159 92.0913C145.159 90.6705 144.384 90.283 142.705 90.283H141.801V93.7704Z" fill="#273375"/>
</g>
<mask id="mask18_3653_5252" style="mask-type:luminance" maskUnits="userSpaceOnUse" x="0" y="0" width="222" height="163">
<path d="M222 0H0V163H222V0Z" fill="white"/>
</mask>
<g mask="url(#mask18_3653_5252)">
<path d="M80.5859 79.8215V86.1503H83.5563V74.2676L80.5859 79.9506V79.8215Z" fill="#273375"/>
</g>
<mask id="mask19_3653_5252" style="mask-type:luminance" maskUnits="userSpaceOnUse" x="0" y="0" width="222" height="163">
<path d="M222 0H0V163H222V0Z" fill="white"/>
</mask>
<g mask="url(#mask19_3653_5252)">
<path d="M109.516 80.08L111.969 75.1719L109.516 79.9508V80.08Z" fill="#273375"/>
</g>
<mask id="mask20_3653_5252" style="mask-type:luminance" maskUnits="userSpaceOnUse" x="0" y="0" width="222" height="163">
<path d="M222 0H0V163H222V0Z" fill="white"/>
</mask>
<g mask="url(#mask20_3653_5252)">
<path d="M111.969 75.1717L112.485 74.2676L111.969 75.1717Z" fill="#273375"/>
</g>
<mask id="mask21_3653_5252" style="mask-type:luminance" maskUnits="userSpaceOnUse" x="0" y="0" width="222" height="163">
<path d="M222 0H0V163H222V0Z" fill="white"/>
</mask>
<g mask="url(#mask21_3653_5252)">
<path d="M182.482 78.142C182.741 77.8837 184.42 76.2046 184.549 76.0755C184.42 75.9463 184.161 75.688 183.903 75.4297L182.482 78.142Z" fill="#273375"/>
</g>
<mask id="mask22_3653_5252" style="mask-type:luminance" maskUnits="userSpaceOnUse" x="0" y="0" width="222" height="163">
<path d="M222 0H0V163H222V0Z" fill="white"/>
</mask>
<g mask="url(#mask22_3653_5252)">
<path d="M72.4512 74.1372V86.0199H75.4215V79.6911C75.8089 79.9494 77.617 81.1119 78.0044 81.3702C78.3918 81.1119 80.0707 80.0786 80.5873 79.6911L83.5576 74.0081C82.9119 74.3955 78.521 77.2371 78.0044 77.6245C77.4878 77.2371 73.226 74.5247 72.4512 73.8789" fill="#273375"/>
</g>
<mask id="mask23_3653_5252" style="mask-type:luminance" maskUnits="userSpaceOnUse" x="0" y="0" width="222" height="163">
<path d="M222 0H0V163H222V0Z" fill="white"/>
</mask>
<g mask="url(#mask23_3653_5252)">
<path d="M100.992 74.2676H97.8926V86.0211H104.35V83.1796H100.992V74.2676Z" fill="#273375"/>
</g>
<mask id="mask24_3653_5252" style="mask-type:luminance" maskUnits="userSpaceOnUse" x="0" y="0" width="222" height="163">
<path d="M222 0H0V163H222V0Z" fill="white"/>
</mask>
<g mask="url(#mask24_3653_5252)">
<path d="M136.377 74.2676H133.406V86.0211H139.863V83.1796H136.377V74.2676Z" fill="#273375"/>
</g>
<mask id="mask25_3653_5252" style="mask-type:luminance" maskUnits="userSpaceOnUse" x="0" y="0" width="222" height="163">
<path d="M222 0H0V163H222V0Z" fill="white"/>
</mask>
<g mask="url(#mask25_3653_5252)">
<path d="M144.771 74.2676H141.801V86.0211H148.258V83.1796H144.771V74.2676Z" fill="#273375"/>
</g>
<mask id="mask26_3653_5252" style="mask-type:luminance" maskUnits="userSpaceOnUse" x="0" y="0" width="222" height="163">
<path d="M222 0H0V163H222V0Z" fill="white"/>
</mask>
<g mask="url(#mask26_3653_5252)">
<path d="M112.486 74.2678L111.969 75.172L109.386 80.08L106.416 74.2678H103.188C103.446 74.7845 106.029 79.6925 107.837 82.9215C108.612 84.3423 109.257 85.5048 109.386 85.8922C109.903 84.6006 115.198 74.9136 115.585 74.1387H112.357L112.486 74.2678Z" fill="#273375"/>
</g>
<mask id="mask27_3653_5252" style="mask-type:luminance" maskUnits="userSpaceOnUse" x="0" y="0" width="222" height="163">
<path d="M222 0H0V163H222V0Z" fill="white"/>
</mask>
<g mask="url(#mask27_3653_5252)">
<path d="M90.6599 74.3965C90.1433 75.6881 84.7192 85.3751 84.4609 86.15H87.6896L88.2061 85.2459L88.4644 84.8584H93.1136L93.7594 86.15H96.988C96.7297 85.6334 94.1468 80.7253 92.3388 77.4963C91.5639 76.0756 90.9182 74.9131 90.789 74.5256M89.7559 82.0169L90.6599 80.3379L91.5639 82.0169H89.7559Z" fill="#273375"/>
</g>
<mask id="mask28_3653_5252" style="mask-type:luminance" maskUnits="userSpaceOnUse" x="0" y="0" width="222" height="163">
<path d="M222 0H0V163H222V0Z" fill="white"/>
</mask>
<g mask="url(#mask28_3653_5252)">
<path d="M155.232 74.3965C154.716 75.6881 149.421 85.3751 149.033 86.15H152.262L152.778 85.2459L153.037 84.8584H157.686L158.332 86.15H161.56C161.302 85.6334 158.719 80.7253 156.911 77.4963C156.136 76.0756 155.49 74.9131 155.361 74.5256M154.328 82.0169L155.232 80.3379L156.136 82.0169H154.328Z" fill="#273375"/>
</g>
<mask id="mask29_3653_5252" style="mask-type:luminance" maskUnits="userSpaceOnUse" x="0" y="0" width="222" height="163">
<path d="M222 0H0V163H222V0Z" fill="white"/>
</mask>
<g mask="url(#mask29_3653_5252)">
<path d="M116.877 86.0211H126.175V83.1796H119.847V81.6297H124.755V78.659H119.847V77.2383H126.175V74.2676H116.877V86.0211Z" fill="#273375"/>
</g>
<mask id="mask30_3653_5252" style="mask-type:luminance" maskUnits="userSpaceOnUse" x="0" y="0" width="222" height="163">
<path d="M222 0H0V163H222V0Z" fill="white"/>
</mask>
<g mask="url(#mask30_3653_5252)">
<path d="M131.34 74.2676H128.24V86.0211H131.34V74.2676Z" fill="#273375"/>
</g>
<mask id="mask31_3653_5252" style="mask-type:luminance" maskUnits="userSpaceOnUse" x="0" y="0" width="222" height="163">
<path d="M222 0H0V163H222V0Z" fill="white"/>
</mask>
<g mask="url(#mask31_3653_5252)">
<path d="M169.18 79.8217C168.534 79.3051 163.239 74.5262 162.723 74.1387V86.1506H165.693V80.5967C166.21 80.9842 171.505 85.7631 172.15 86.2797V74.2678H169.18V79.8217Z" fill="#273375"/>
</g>
<mask id="mask32_3653_5252" style="mask-type:luminance" maskUnits="userSpaceOnUse" x="0" y="0" width="222" height="163">
<path d="M222 0H0V163H222V0Z" fill="white"/>
</mask>
<g mask="url(#mask32_3653_5252)">
<path d="M180.027 83.3076H179.769C178.219 83.1784 176.928 81.7577 176.928 80.0786C176.928 78.3995 178.348 76.8496 180.027 76.8496C181.706 76.8496 181.964 77.6245 182.481 78.012L183.901 75.2997C182.997 74.5247 181.835 73.8789 180.027 73.8789C176.669 73.8789 173.828 76.4621 173.828 80.0786C173.828 83.6951 175.765 85.245 178.219 85.8908C178.736 86.02 179.381 86.1491 180.027 86.1491C182.223 86.1491 183.772 84.8575 184.547 83.9534C184.418 83.8242 182.739 82.016 182.481 81.8868C181.835 82.6618 181.06 83.1784 180.027 83.1784" fill="#273375"/>
</g>
<mask id="mask33_3653_5252" style="mask-type:luminance" maskUnits="userSpaceOnUse" x="0" y="0" width="222" height="163">
<path d="M222 0H0V163H222V0Z" fill="white"/>
</mask>
<g mask="url(#mask33_3653_5252)">
<path d="M195.267 77.2383V74.2676H185.969V86.0211H195.267V83.1796H188.939V81.6297H193.847V78.659H188.939V77.2383H195.267Z" fill="#273375"/>
</g>
<mask id="mask34_3653_5252" style="mask-type:luminance" maskUnits="userSpaceOnUse" x="0" y="0" width="222" height="163">
<path d="M222 0H0V163H222V0Z" fill="white"/>
</mask>
<g mask="url(#mask34_3653_5252)">
<path d="M62.6355 73.1055H57.9863V77.7552H62.6355V73.1055Z" fill="#E30613"/>
</g>
<mask id="mask35_3653_5252" style="mask-type:luminance" maskUnits="userSpaceOnUse" x="0" y="0" width="222" height="163">
<path d="M222 0H0V163H222V0Z" fill="white"/>
</mask>
<g mask="url(#mask35_3653_5252)">
<path d="M53.4656 68.584H48.8164V73.2337H53.4656V68.584Z" fill="#E30613"/>
</g>
<mask id="mask36_3653_5252" style="mask-type:luminance" maskUnits="userSpaceOnUse" x="0" y="0" width="222" height="163">
<path d="M222 0H0V163H222V0Z" fill="white"/>
</mask>
<g mask="url(#mask36_3653_5252)">
<path d="M37.9689 113.789H39.3894L42.6181 121.926H41.4558L40.5518 119.472H36.8066L35.9025 121.926H34.7402L37.9689 113.789ZM40.1643 118.568L38.6146 114.693L37.0648 118.568H40.0352H40.1643Z" fill="black"/>
</g>
<mask id="mask37_3653_5252" style="mask-type:luminance" maskUnits="userSpaceOnUse" x="0" y="0" width="222" height="163">
<path d="M222 0H0V163H222V0Z" fill="white"/>
</mask>
<g mask="url(#mask37_3653_5252)">
<path d="M45.2002 120.506C45.5876 121.022 46.1042 121.281 46.7499 121.281C47.3956 121.281 47.7831 120.893 47.7831 120.376C47.7831 119.085 44.9419 119.602 44.9419 117.406C44.9419 115.21 45.7168 115.727 46.8791 115.727C48.0414 115.727 48.4288 116.114 48.8162 116.631L48.1705 117.277C47.7831 116.76 47.3956 116.502 46.8791 116.502C46.3625 116.502 45.975 116.889 45.975 117.277C45.975 118.568 48.8162 118.181 48.8162 120.247C48.8162 121.281 47.9122 122.056 46.8791 122.056C45.8459 122.056 45.2002 121.668 44.6836 121.022L45.3293 120.376L45.2002 120.506Z" fill="black"/>
</g>
<mask id="mask38_3653_5252" style="mask-type:luminance" maskUnits="userSpaceOnUse" x="0" y="0" width="222" height="163">
<path d="M222 0H0V163H222V0Z" fill="white"/>
</mask>
<g mask="url(#mask38_3653_5252)">
<path d="M51.2705 120.506C51.6579 121.022 52.1745 121.281 52.8202 121.281C53.466 121.281 53.8534 120.893 53.8534 120.376C53.8534 119.085 51.0122 119.602 51.0122 117.406C51.0122 115.21 51.7871 115.727 52.9494 115.727C54.1117 115.727 54.4991 116.114 54.8865 116.631L54.2408 117.277C53.8534 116.76 53.4659 116.502 52.9494 116.502C52.4328 116.502 52.0454 116.889 52.0454 117.277C52.0454 118.568 54.8865 118.181 54.8865 120.247C54.8865 121.281 53.9825 122.056 52.9494 122.056C51.9162 122.056 51.2705 121.668 50.7539 121.022L51.3996 120.376L51.2705 120.506Z" fill="black"/>
</g>
<mask id="mask39_3653_5252" style="mask-type:luminance" maskUnits="userSpaceOnUse" x="0" y="0" width="222" height="163">
<path d="M222 0H0V163H222V0Z" fill="white"/>
</mask>
<g mask="url(#mask39_3653_5252)">
<path d="M57.2109 113.79C57.2109 113.403 57.4692 113.145 57.8567 113.145C58.2441 113.145 58.5024 113.403 58.5024 113.79C58.5024 114.178 58.2441 114.436 57.8567 114.436C57.4692 114.436 57.2109 114.178 57.2109 113.79ZM57.4692 115.986H58.5024V121.798H57.4692V115.986Z" fill="black"/>
</g>
<mask id="mask40_3653_5252" style="mask-type:luminance" maskUnits="userSpaceOnUse" x="0" y="0" width="222" height="163">
<path d="M222 0H0V163H222V0Z" fill="white"/>
</mask>
<g mask="url(#mask40_3653_5252)">
<path d="M61.6025 120.506C61.99 121.022 62.5065 121.281 63.1523 121.281C63.798 121.281 64.1854 120.893 64.1854 120.376C64.1854 119.085 61.3442 119.602 61.3442 117.406C61.3442 115.21 62.1191 115.727 63.2814 115.727C64.4437 115.727 64.8311 116.114 65.2186 116.631L64.5728 117.277C64.1854 116.76 63.798 116.502 63.2814 116.502C62.7648 116.502 62.3774 116.889 62.3774 117.277C62.3774 118.568 65.2186 118.181 65.2186 120.247C65.2186 121.281 64.3146 122.056 63.2814 122.056C62.2482 122.056 61.6025 121.668 61.0859 121.022L61.7317 120.376L61.6025 120.506Z" fill="black"/>
</g>
<mask id="mask41_3653_5252" style="mask-type:luminance" maskUnits="userSpaceOnUse" x="0" y="0" width="222" height="163">
<path d="M222 0H0V163H222V0Z" fill="white"/>
</mask>
<g mask="url(#mask41_3653_5252)">
<path d="M68.0588 116.889H66.8965V115.985H68.0588V114.564H69.0919V115.985H71.1583V116.889H69.0919V119.86C69.0919 120.764 69.6085 121.022 70.2543 121.022C70.9 121.022 70.9 121.022 71.1583 120.893V121.797C70.9 121.797 70.5125 121.927 70.1251 121.927C68.8337 121.927 68.0588 121.281 68.0588 119.86V116.889Z" fill="black"/>
</g>
<mask id="mask42_3653_5252" style="mask-type:luminance" maskUnits="userSpaceOnUse" x="0" y="0" width="222" height="163">
<path d="M222 0H0V163H222V0Z" fill="white"/>
</mask>
<g mask="url(#mask42_3653_5252)">
<path d="M73.3538 120.505C73.3538 119.601 73.9995 118.956 75.2909 118.697L77.2281 118.31V117.922C77.2281 117.147 76.5824 116.631 75.8075 116.631C75.0326 116.631 74.5161 116.889 74.2578 117.406L73.4829 116.889C73.9995 116.243 74.7743 115.727 75.8075 115.727C77.3572 115.727 78.1321 116.631 78.1321 117.922V121.797H77.099V121.022C76.7115 121.668 75.9367 122.055 75.1618 122.055C73.9995 122.055 73.2246 121.41 73.2246 120.376M75.4201 121.28C76.1949 121.28 76.8407 120.893 77.2281 120.247V119.085L75.5492 119.343C74.7743 119.472 74.3869 119.86 74.3869 120.376C74.3869 120.893 74.7743 121.28 75.5492 121.28" fill="black"/>
</g>
<mask id="mask43_3653_5252" style="mask-type:luminance" maskUnits="userSpaceOnUse" x="0" y="0" width="222" height="163">
<path d="M222 0H0V163H222V0Z" fill="white"/>
</mask>
<g mask="url(#mask43_3653_5252)">
<path d="M81.2327 115.985H82.2658V116.631C82.7824 116.114 83.299 115.727 84.203 115.727C85.4944 115.727 86.5276 116.631 86.5276 118.31V121.797H85.4944V118.31C85.4944 117.276 84.9779 116.631 83.9447 116.631C82.9115 116.631 82.5241 117.147 82.1367 117.793V121.797H81.1035V115.985H81.2327Z" fill="black"/>
</g>
<mask id="mask44_3653_5252" style="mask-type:luminance" maskUnits="userSpaceOnUse" x="0" y="0" width="222" height="163">
<path d="M222 0H0V163H222V0Z" fill="white"/>
</mask>
<g mask="url(#mask44_3653_5252)">
<path d="M93.888 120.378L94.6628 121.024C94.1463 121.799 93.2422 122.186 92.2091 122.186C90.2719 122.186 88.9805 120.765 88.9805 119.086C88.9805 117.407 90.2719 115.986 92.2091 115.986C94.1463 115.986 94.1463 116.503 94.6628 117.149L93.888 117.795C93.5005 117.278 92.984 116.89 92.2091 116.89C90.9176 116.89 90.0136 117.924 90.0136 119.086C90.0136 120.249 90.9176 121.282 92.2091 121.282C92.984 121.282 93.5005 120.894 93.888 120.378Z" fill="black"/>
</g>
<mask id="mask45_3653_5252" style="mask-type:luminance" maskUnits="userSpaceOnUse" x="0" y="0" width="222" height="163">
<path d="M222 0H0V163H222V0Z" fill="white"/>
</mask>
<g mask="url(#mask45_3653_5252)">
<path d="M99.5704 122.186C97.6332 122.186 96.3418 120.765 96.3418 119.086C96.3418 117.407 97.5041 115.986 99.3121 115.986C101.12 115.986 101.895 117.02 101.895 118.57C101.895 120.119 101.895 119.086 101.895 119.215H97.375C97.375 120.507 98.279 121.411 99.5704 121.411C100.862 121.411 100.991 121.024 101.378 120.507L102.153 121.024C101.637 121.799 100.733 122.186 99.6996 122.186M97.5041 118.182H100.991C100.991 117.278 100.345 116.632 99.3121 116.632C98.4081 116.632 97.6332 117.149 97.5041 118.182Z" fill="black"/>
</g>
<mask id="mask46_3653_5252" style="mask-type:luminance" maskUnits="userSpaceOnUse" x="0" y="0" width="222" height="163">
<path d="M222 0H0V163H222V0Z" fill="white"/>
</mask>
<g mask="url(#mask46_3653_5252)">
<path d="M111.58 122.186C109.643 122.186 108.352 120.765 108.352 119.086C108.352 117.407 109.514 115.986 111.322 115.986C113.13 115.986 113.905 117.02 113.905 118.57C113.905 120.119 113.905 119.086 113.905 119.215H109.385C109.385 120.507 110.289 121.411 111.58 121.411C112.872 121.411 113.001 121.024 113.388 120.507L114.163 121.024C113.647 121.799 112.742 122.186 111.709 122.186M109.385 118.182H112.872C112.872 117.278 112.226 116.632 111.193 116.632C110.289 116.632 109.514 117.149 109.385 118.182Z" fill="black"/>
</g>
<mask id="mask47_3653_5252" style="mask-type:luminance" maskUnits="userSpaceOnUse" x="0" y="0" width="222" height="163">
<path d="M222 0H0V163H222V0Z" fill="white"/>
</mask>
<g mask="url(#mask47_3653_5252)">
<path d="M117.006 116.889H115.844V115.985H117.006V114.564H118.039V115.985H120.106V116.889H118.039V119.86C118.039 120.764 118.556 121.022 119.202 121.022C119.847 121.022 119.847 121.022 120.106 120.893V121.797C119.847 121.797 119.46 121.927 119.072 121.927C117.781 121.927 117.006 121.281 117.006 119.86V116.889Z" fill="black"/>
</g>
<mask id="mask48_3653_5252" style="mask-type:luminance" maskUnits="userSpaceOnUse" x="0" y="0" width="222" height="163">
<path d="M222 0H0V163H222V0Z" fill="white"/>
</mask>
<g mask="url(#mask48_3653_5252)">
<path d="M126.691 115.985H127.725V116.631C128.241 116.114 129.016 115.727 129.791 115.727C131.599 115.727 132.761 117.147 132.761 118.826C132.761 120.505 131.599 121.926 129.791 121.926C127.983 121.926 128.241 121.668 127.725 121.022V124.509H126.691V115.727V115.985ZM129.662 121.151C130.953 121.151 131.728 120.118 131.728 118.956C131.728 117.793 130.824 116.76 129.662 116.76C128.499 116.76 128.112 117.147 127.725 117.922V120.118C128.241 120.893 128.887 121.28 129.662 121.28" fill="black"/>
</g>
<mask id="mask49_3653_5252" style="mask-type:luminance" maskUnits="userSpaceOnUse" x="0" y="0" width="222" height="163">
<path d="M222 0H0V163H222V0Z" fill="white"/>
</mask>
<g mask="url(#mask49_3653_5252)">
<path d="M135.473 115.987H136.506V116.762C136.893 116.245 137.41 115.857 138.185 115.857C138.96 115.857 138.572 115.857 138.702 115.857V116.891C138.572 116.891 138.314 116.891 138.056 116.891C137.281 116.891 136.764 117.278 136.377 117.924V121.928H135.344V116.116L135.473 115.987Z" fill="black"/>
</g>
<mask id="mask50_3653_5252" style="mask-type:luminance" maskUnits="userSpaceOnUse" x="0" y="0" width="222" height="163">
<path d="M222 0H0V163H222V0Z" fill="white"/>
</mask>
<g mask="url(#mask50_3653_5252)">
<path d="M143.481 122.186C141.543 122.186 140.252 120.765 140.252 119.086C140.252 117.407 141.414 115.986 143.222 115.986C145.03 115.986 145.805 117.019 145.805 118.569C145.805 120.119 145.805 119.086 145.805 119.215H141.285C141.285 120.507 142.189 121.411 143.481 121.411C144.772 121.411 144.901 121.023 145.289 120.507L146.063 121.023C145.547 121.798 144.643 122.186 143.61 122.186M141.414 118.182H144.901C144.901 117.278 144.255 116.632 143.222 116.632C142.189 116.632 141.543 117.148 141.414 118.182ZM142.835 115.082L143.997 113.145H145.159L143.739 115.082H142.835Z" fill="black"/>
</g>
<mask id="mask51_3653_5252" style="mask-type:luminance" maskUnits="userSpaceOnUse" x="0" y="0" width="222" height="163">
<path d="M222 0H0V163H222V0Z" fill="white"/>
</mask>
<g mask="url(#mask51_3653_5252)">
<path d="M148.646 115.986L150.584 120.894L152.392 115.986H153.425L151.229 121.928H149.938L147.613 115.986H148.646Z" fill="black"/>
</g>
<mask id="mask52_3653_5252" style="mask-type:luminance" maskUnits="userSpaceOnUse" x="0" y="0" width="222" height="163">
<path d="M222 0H0V163H222V0Z" fill="white"/>
</mask>
<g mask="url(#mask52_3653_5252)">
<path d="M158.332 122.186C156.395 122.186 155.104 120.765 155.104 119.086C155.104 117.407 156.266 115.986 158.074 115.986C159.882 115.986 160.657 117.02 160.657 118.57C160.657 120.119 160.657 119.086 160.657 119.215H156.137C156.137 120.507 157.041 121.411 158.332 121.411C159.624 121.411 159.753 121.024 160.14 120.507L160.915 121.024C160.398 121.799 159.494 122.186 158.461 122.186M156.266 118.182H159.753C159.753 117.278 159.107 116.632 158.074 116.632C157.17 116.632 156.395 117.149 156.266 118.182Z" fill="black"/>
</g>
<mask id="mask53_3653_5252" style="mask-type:luminance" maskUnits="userSpaceOnUse" x="0" y="0" width="222" height="163">
<path d="M222 0H0V163H222V0Z" fill="white"/>
</mask>
<g mask="url(#mask53_3653_5252)">
<path d="M163.498 115.985H164.531V116.631C165.048 116.114 165.565 115.727 166.469 115.727C167.76 115.727 168.793 116.631 168.793 118.31V121.797H167.76V118.31C167.76 117.276 167.243 116.631 166.21 116.631C165.177 116.631 164.79 117.147 164.402 117.793V121.797H163.369V115.985H163.498Z" fill="black"/>
</g>
<mask id="mask54_3653_5252" style="mask-type:luminance" maskUnits="userSpaceOnUse" x="0" y="0" width="222" height="163">
<path d="M222 0H0V163H222V0Z" fill="white"/>
</mask>
<g mask="url(#mask54_3653_5252)">
<path d="M172.022 116.889H170.859V115.985H172.022V114.564H173.055V115.985H175.121V116.889H173.055V119.86C173.055 120.764 173.571 121.022 174.217 121.022C174.863 121.022 174.863 121.022 175.121 120.893V121.797C174.863 121.797 174.475 121.927 174.088 121.927C172.797 121.927 172.022 121.281 172.022 119.86V116.889Z" fill="black"/>
</g>
<mask id="mask55_3653_5252" style="mask-type:luminance" maskUnits="userSpaceOnUse" x="0" y="0" width="222" height="163">
<path d="M222 0H0V163H222V0Z" fill="white"/>
</mask>
<g mask="url(#mask55_3653_5252)">
<path d="M177.445 113.79C177.445 113.403 177.704 113.145 178.091 113.145C178.478 113.145 178.737 113.403 178.737 113.79C178.737 114.178 178.478 114.436 178.091 114.436C177.704 114.436 177.445 114.178 177.445 113.79ZM177.574 115.986H178.608V121.798H177.574V115.986Z" fill="black"/>
</g>
<mask id="mask56_3653_5252" style="mask-type:luminance" maskUnits="userSpaceOnUse" x="0" y="0" width="222" height="163">
<path d="M222 0H0V163H222V0Z" fill="white"/>
</mask>
<g mask="url(#mask56_3653_5252)">
<path d="M187.647 118.957C187.647 120.636 186.355 122.057 184.418 122.057C182.481 122.057 181.189 120.636 181.189 118.957C181.189 117.278 182.481 115.857 184.418 115.857C186.355 115.857 187.647 117.278 187.647 118.957ZM186.614 118.957C186.614 117.795 185.71 116.762 184.547 116.762C183.385 116.762 182.352 117.795 182.352 118.957C182.352 120.12 183.256 121.153 184.547 121.153C185.71 121.153 186.614 120.12 186.614 118.957Z" fill="black"/>
</g>
<mask id="mask57_3653_5252" style="mask-type:luminance" maskUnits="userSpaceOnUse" x="0" y="0" width="222" height="163">
<path d="M222 0H0V163H222V0Z" fill="white"/>
</mask>
<g mask="url(#mask57_3653_5252)">
<path d="M190.231 115.985H191.264V116.631C191.78 116.114 192.297 115.727 193.201 115.727C194.492 115.727 195.526 116.631 195.526 118.31V121.797H194.492V118.31C194.492 117.276 193.976 116.631 192.943 116.631C191.91 116.631 191.522 117.147 191.135 117.793V121.797H190.102V115.985H190.231Z" fill="black"/>
</g>
<mask id="mask58_3653_5252" style="mask-type:luminance" maskUnits="userSpaceOnUse" x="0" y="0" width="222" height="163">
<path d="M222 0H0V163H222V0Z" fill="white"/>
</mask>
<g mask="url(#mask58_3653_5252)">
<path d="M38.0978 136.393C36.1606 136.393 34.8691 134.972 34.8691 133.293C34.8691 131.614 36.0314 130.193 37.8395 130.193C39.6475 130.193 40.4224 131.227 40.4224 132.777C40.4224 134.326 40.4224 133.293 40.4224 133.422H35.9023C35.9023 134.714 36.8063 135.618 38.0978 135.618C39.3892 135.618 39.5184 135.231 39.9058 134.714L40.6807 135.231C40.1641 136.006 39.2601 136.393 38.2269 136.393M36.0314 132.389H39.5184C39.5184 131.485 38.8726 130.839 37.8395 130.839C36.9355 130.839 36.1606 131.356 36.0314 132.389Z" fill="black"/>
</g>
<mask id="mask59_3653_5252" style="mask-type:luminance" maskUnits="userSpaceOnUse" x="0" y="0" width="222" height="163">
<path d="M222 0H0V163H222V0Z" fill="white"/>
</mask>
<g mask="url(#mask59_3653_5252)">
<path d="M43.2639 130.194H44.2971V130.84C44.8136 130.323 45.3302 129.936 46.2342 129.936C47.5257 129.936 48.5588 130.84 48.5588 132.519V136.006H47.5257V132.519C47.5257 131.485 46.88 130.84 45.9759 130.84C45.0719 130.84 44.5554 131.356 44.1679 132.002V136.006H43.1348V130.194H43.2639Z" fill="black"/>
</g>
<mask id="mask60_3653_5252" style="mask-type:luminance" maskUnits="userSpaceOnUse" x="0" y="0" width="222" height="163">
<path d="M222 0H0V163H222V0Z" fill="white"/>
</mask>
<g mask="url(#mask60_3653_5252)">
<path d="M55.79 134.715C56.1775 135.231 56.694 135.49 57.3398 135.49C57.9855 135.49 58.3729 135.102 58.3729 134.585C58.3729 133.294 55.5317 133.811 55.5317 131.615C55.5317 129.419 56.3066 129.936 57.4689 129.936C58.6312 129.936 59.0186 130.323 59.4061 130.84L58.7603 131.486C58.3729 130.969 57.9855 130.711 57.4689 130.711C56.9523 130.711 56.5649 131.098 56.5649 131.486C56.5649 132.777 59.4061 132.39 59.4061 134.456C59.4061 135.49 58.5021 136.265 57.4689 136.265C56.4357 136.265 55.79 135.877 55.2734 135.231L55.9192 134.585L55.79 134.715Z" fill="black"/>
</g>
<mask id="mask61_3653_5252" style="mask-type:luminance" maskUnits="userSpaceOnUse" x="0" y="0" width="222" height="163">
<path d="M222 0H0V163H222V0Z" fill="white"/>
</mask>
<g mask="url(#mask61_3653_5252)">
<path d="M64.5724 136.393C62.6352 136.393 61.3438 134.972 61.3438 133.293C61.3438 131.614 62.5061 130.193 64.3141 130.193C66.1221 130.193 66.897 131.226 66.897 132.776C66.897 134.326 66.897 133.293 66.897 133.422H62.3769C62.3769 134.714 63.2809 135.618 64.5724 135.618C65.8638 135.618 65.993 135.23 66.3804 134.714L67.1553 135.23C66.6387 136.005 65.7347 136.393 64.7015 136.393M62.3769 132.389H65.8638C65.8638 131.485 65.2181 130.839 64.1849 130.839C63.1518 130.839 62.5061 131.356 62.3769 132.389ZM63.7975 129.289L64.9598 127.352H66.1221L64.7015 129.289H63.7975Z" fill="black"/>
</g>
<mask id="mask62_3653_5252" style="mask-type:luminance" maskUnits="userSpaceOnUse" x="0" y="0" width="222" height="163">
<path d="M222 0H0V163H222V0Z" fill="white"/>
</mask>
<g mask="url(#mask62_3653_5252)">
<path d="M73.9993 134.585L74.7742 135.231C74.2576 136.006 73.3536 136.393 72.3204 136.393C70.3832 136.393 69.0918 134.972 69.0918 133.293C69.0918 131.614 70.3832 130.193 72.3204 130.193C74.2576 130.193 74.2576 130.71 74.7742 131.356L73.9993 132.002C73.6119 131.485 73.0953 131.097 72.3204 131.097C71.029 131.097 70.125 132.131 70.125 133.293C70.125 134.456 71.029 135.489 72.3204 135.489C73.0953 135.489 73.6119 135.101 73.9993 134.585Z" fill="black"/>
</g>
<mask id="mask63_3653_5252" style="mask-type:luminance" maskUnits="userSpaceOnUse" x="0" y="0" width="222" height="163">
<path d="M222 0H0V163H222V0Z" fill="white"/>
</mask>
<g mask="url(#mask63_3653_5252)">
<path d="M81.2322 130.193H82.2654V133.552C82.2654 135.36 81.2322 136.393 79.6825 136.393C78.1328 136.393 77.0996 135.36 77.0996 133.552V130.193H78.1328V133.552C78.1328 134.714 78.7785 135.36 79.8116 135.36C80.8448 135.36 81.3614 134.714 81.3614 133.552V130.193H81.2322Z" fill="black"/>
</g>
<mask id="mask64_3653_5252" style="mask-type:luminance" maskUnits="userSpaceOnUse" x="0" y="0" width="222" height="163">
<path d="M222 0H0V163H222V0Z" fill="white"/>
</mask>
<g mask="url(#mask64_3653_5252)">
<path d="M85.2366 130.194H86.2697V130.969C86.6572 130.452 87.1737 130.064 87.9486 130.064C88.7235 130.064 88.336 130.064 88.4652 130.064V131.098C88.336 131.098 88.0778 131.098 87.8195 131.098C87.0446 131.098 86.528 131.485 86.1406 132.131V136.135H85.1074V130.323L85.2366 130.194Z" fill="black"/>
</g>
<mask id="mask65_3653_5252" style="mask-type:luminance" maskUnits="userSpaceOnUse" x="0" y="0" width="222" height="163">
<path d="M222 0H0V163H222V0Z" fill="white"/>
</mask>
<g mask="url(#mask65_3653_5252)">
<path d="M90.6602 127.997C90.6602 127.61 90.9184 127.352 91.3059 127.352C91.6933 127.352 91.9516 127.61 91.9516 127.997C91.9516 128.385 91.6933 128.643 91.3059 128.643C90.9184 128.643 90.6602 128.385 90.6602 127.997ZM90.9185 130.193H91.9516V136.005H90.9185V130.193Z" fill="black"/>
</g>
<mask id="mask66_3653_5252" style="mask-type:luminance" maskUnits="userSpaceOnUse" x="0" y="0" width="222" height="163">
<path d="M222 0H0V163H222V0Z" fill="white"/>
</mask>
<g mask="url(#mask66_3653_5252)">
<path d="M95.3088 131.098H94.1465V130.194H95.3088V128.773H96.3419V130.194H98.4083V131.098H96.3419V134.069C96.3419 134.973 96.8585 135.231 97.5042 135.231C98.15 135.231 98.15 135.231 98.4083 135.102V136.006C98.15 136.006 97.7625 136.136 97.3751 136.136C96.0837 136.136 95.3088 135.49 95.3088 134.069V131.098Z" fill="black"/>
</g>
<mask id="mask67_3653_5252" style="mask-type:luminance" maskUnits="userSpaceOnUse" x="0" y="0" width="222" height="163">
<path d="M222 0H0V163H222V0Z" fill="white"/>
</mask>
<g mask="url(#mask67_3653_5252)">
<path d="M103.574 136.393C101.637 136.393 100.346 134.972 100.346 133.293C100.346 131.614 101.508 130.193 103.316 130.193C105.124 130.193 105.899 131.226 105.899 132.776C105.899 134.326 105.899 133.293 105.899 133.422H101.379C101.379 134.714 102.283 135.618 103.574 135.618C104.866 135.618 104.995 135.23 105.382 134.714L106.157 135.23C105.641 136.005 104.737 136.393 103.703 136.393M101.379 132.389H104.866C104.866 131.485 104.22 130.839 103.187 130.839C102.154 130.839 101.508 131.356 101.379 132.389ZM102.799 129.289L103.962 127.352H105.124L103.703 129.289H102.799Z" fill="black"/>
</g>
<mask id="mask68_3653_5252" style="mask-type:luminance" maskUnits="userSpaceOnUse" x="0" y="0" width="222" height="163">
<path d="M222 0H0V163H222V0Z" fill="white"/>
</mask>
<g mask="url(#mask68_3653_5252)">
<path d="M112.744 130.194H113.778V130.84C114.294 130.323 114.811 129.936 115.715 129.936C117.006 129.936 118.039 130.84 118.039 132.519V136.006H117.006V132.519C117.006 131.485 116.49 130.84 115.456 130.84C114.423 130.84 114.036 131.356 113.648 132.002V136.006H112.615V130.194H112.744Z" fill="black"/>
</g>
<mask id="mask69_3653_5252" style="mask-type:luminance" maskUnits="userSpaceOnUse" x="0" y="0" width="222" height="163">
<path d="M222 0H0V163H222V0Z" fill="white"/>
</mask>
<g mask="url(#mask69_3653_5252)">
<path d="M125.14 130.193H126.174V133.552C126.174 135.36 125.14 136.393 123.591 136.393C122.041 136.393 121.008 135.36 121.008 133.552V130.193H122.041V133.552C122.041 134.714 122.687 135.36 123.72 135.36C124.753 135.36 125.27 134.714 125.27 133.552V130.193H125.14Z" fill="black"/>
</g>
<mask id="mask70_3653_5252" style="mask-type:luminance" maskUnits="userSpaceOnUse" x="0" y="0" width="222" height="163">
<path d="M222 0H0V163H222V0Z" fill="white"/>
</mask>
<g mask="url(#mask70_3653_5252)">
<path d="M129.145 130.194H130.178V130.84C130.566 130.323 131.211 129.936 131.986 129.936C132.761 129.936 133.536 130.323 133.923 131.098C134.44 130.452 135.086 129.936 135.99 129.936C136.894 129.936 138.185 130.711 138.185 132.39V136.006H137.152V132.39C137.152 131.356 136.635 130.84 135.731 130.84C134.827 130.84 134.44 131.227 134.053 132.002C134.053 132.002 134.053 132.26 134.053 132.39V136.006H133.019V132.39C133.019 131.356 132.503 130.84 131.599 130.84C130.695 130.84 130.307 131.356 129.92 132.002V136.006H128.887V130.194H129.145Z" fill="black"/>
</g>
<mask id="mask71_3653_5252" style="mask-type:luminance" maskUnits="userSpaceOnUse" x="0" y="0" width="222" height="163">
<path d="M222 0H0V163H222V0Z" fill="white"/>
</mask>
<g mask="url(#mask71_3653_5252)">
<path d="M143.867 136.393C141.93 136.393 140.639 134.972 140.639 133.293C140.639 131.614 141.801 130.193 143.609 130.193C145.417 130.193 146.192 131.226 146.192 132.776C146.192 134.326 146.192 133.293 146.192 133.422H141.672C141.672 134.714 142.576 135.618 143.867 135.618C145.159 135.618 145.288 135.23 145.675 134.714L146.45 135.23C145.934 136.005 145.03 136.393 143.996 136.393M141.801 132.389H145.288C145.288 131.485 144.642 130.839 143.609 130.839C142.576 130.839 141.93 131.356 141.801 132.389ZM143.222 129.289L144.384 127.352H145.546L144.126 129.289H143.222Z" fill="black"/>
</g>
<mask id="mask72_3653_5252" style="mask-type:luminance" maskUnits="userSpaceOnUse" x="0" y="0" width="222" height="163">
<path d="M222 0H0V163H222V0Z" fill="white"/>
</mask>
<g mask="url(#mask72_3653_5252)">
<path d="M148.905 130.194H149.938V130.969C150.325 130.452 150.842 130.064 151.617 130.064C152.391 130.064 152.004 130.064 152.133 130.064V131.098C152.004 131.098 151.746 131.098 151.487 131.098C150.713 131.098 150.196 131.485 149.809 132.131V136.135H148.775V130.323L148.905 130.194Z" fill="black"/>
</g>
<mask id="mask73_3653_5252" style="mask-type:luminance" maskUnits="userSpaceOnUse" x="0" y="0" width="222" height="163">
<path d="M222 0H0V163H222V0Z" fill="white"/>
</mask>
<g mask="url(#mask73_3653_5252)">
<path d="M154.457 127.997C154.457 127.61 154.715 127.352 155.103 127.352C155.49 127.352 155.748 127.61 155.748 127.997C155.748 128.385 155.49 128.643 155.103 128.643C154.715 128.643 154.457 128.385 154.457 127.997ZM154.586 130.193H155.619V136.005H154.586V130.193Z" fill="black"/>
</g>
<mask id="mask74_3653_5252" style="mask-type:luminance" maskUnits="userSpaceOnUse" x="0" y="0" width="222" height="163">
<path d="M222 0H0V163H222V0Z" fill="white"/>
</mask>
<g mask="url(#mask74_3653_5252)">
<path d="M161.302 130.064C162.206 130.064 162.852 130.452 163.369 130.969V130.323H164.402V139.106H163.369V135.618C162.852 136.135 162.206 136.522 161.302 136.522C159.494 136.522 158.332 135.102 158.332 133.423C158.332 131.744 159.494 130.323 161.302 130.323M161.302 135.36C162.077 135.36 162.852 134.973 163.24 134.198V132.002C162.852 131.227 162.077 130.839 161.302 130.839C160.011 130.839 159.236 131.873 159.236 133.035C159.236 134.198 160.14 135.231 161.302 135.231" fill="black"/>
</g>
<mask id="mask75_3653_5252" style="mask-type:luminance" maskUnits="userSpaceOnUse" x="0" y="0" width="222" height="163">
<path d="M222 0H0V163H222V0Z" fill="white"/>
</mask>
<g mask="url(#mask75_3653_5252)">
<path d="M171.504 130.193H172.537V133.552C172.537 135.36 171.504 136.393 169.954 136.393C168.404 136.393 167.371 135.36 167.371 133.552V130.193H168.404V133.552C168.404 134.714 169.05 135.36 170.083 135.36C171.116 135.36 171.633 134.714 171.633 133.552V130.193H171.504Z" fill="black"/>
</g>
<mask id="mask76_3653_5252" style="mask-type:luminance" maskUnits="userSpaceOnUse" x="0" y="0" width="222" height="163">
<path d="M222 0H0V163H222V0Z" fill="white"/>
</mask>
<g mask="url(#mask76_3653_5252)">
<path d="M178.221 136.393C176.284 136.393 174.992 134.972 174.992 133.293C174.992 131.614 176.154 130.193 177.963 130.193C179.771 130.193 180.545 131.227 180.545 132.777C180.545 134.326 180.545 133.293 180.545 133.422H176.025C176.025 134.714 176.929 135.618 178.221 135.618C179.512 135.618 179.641 135.231 180.029 134.714L180.804 135.231C180.287 136.006 179.383 136.393 178.35 136.393M176.154 132.389H179.641C179.641 131.485 178.996 130.839 177.963 130.839C177.059 130.839 176.284 131.356 176.154 132.389Z" fill="black"/>
</g>
</svg>
