<svg width="157" height="105" viewBox="0 0 157 105" fill="none" xmlns="http://www.w3.org/2000/svg">
<path d="M34.3162 0C15.3635 0 0 15.3635 0 34.3162C0 42.4243 2.81729 49.8236 7.52214 55.6968H11.7112V60.1209C13.5321 61.7173 15.5214 63.0786 17.6511 64.2644H20.2824V65.6257C24.5697 67.5483 29.3167 68.629 34.3162 68.629C37.0353 68.629 39.6772 68.3062 42.2138 67.7062L34.0847 52.255C32.2603 52.2304 30.5061 51.9357 28.8501 51.4094V51.455H24.5662V49.3675C23.5733 48.7255 22.6506 47.9466 21.8086 47.1256H20.2824V51.4094H15.9951V47.1256H20.2824V45.4942C17.8335 42.4278 16.3635 38.5439 16.3635 34.3127C16.3635 24.3943 24.4013 16.3564 34.3162 16.3564C40.2069 16.3564 45.4135 19.2018 48.6904 23.5803L60.3279 11.9428C54.0373 4.63467 44.7188 0 34.3162 0ZM24.5697 55.7459H28.8536V60.0297H24.5697V55.7459Z" fill="black"/>
<path d="M24.5676 51.4127V47.1289H20.2803V51.4127H15.9929H11.7091V55.7001H15.9929V59.9839H11.7091V64.2677H7.42529V68.5551H11.7091H15.9929V64.2677H20.2803V59.9839H24.5676V55.7001H28.8514V51.4127H24.5676Z" fill="#E30613"/>
<path d="M7.4264 55.7002H3.14258V59.984H7.4264V55.7002Z" fill="#E30613"/>
<path d="M24.5656 64.2676H20.2817V68.5514H24.5656V64.2676Z" fill="#E30613"/>
<path d="M92.257 35.7695H89.2222L91.8816 40.8252H94.9164L92.257 35.7695Z" fill="#E20613"/>
<path d="M51.63 31.5524C51.444 31.3419 51.2335 31.142 51.0125 30.9595C50.0196 30.1105 48.732 29.5947 47.3146 29.5947C46.7672 29.5947 46.2445 29.6754 45.7392 29.8193C43.3395 30.5034 41.5747 32.7137 41.5747 35.3381C41.5747 37.9624 43.364 40.2008 45.7849 40.8709C46.2725 41.0077 46.7848 41.0849 47.3146 41.0849C48.7144 41.0849 49.9845 40.5762 50.9809 39.7482C51.2089 39.5552 51.4335 39.3518 51.63 39.1237L49.6828 37.1765C49.6828 37.1765 49.6582 37.2046 49.6442 37.2186C49.0968 37.9028 48.2618 38.3448 47.3146 38.3448C47.2514 38.3448 47.1953 38.3308 47.1321 38.3308C45.5673 38.2326 44.3113 36.9379 44.3113 35.3451C44.3113 33.7523 45.5393 32.4927 47.0795 32.3664C47.1567 32.3629 47.2303 32.3454 47.311 32.3454C48.2759 32.3454 49.1249 32.8085 49.6722 33.5102L51.6264 31.563L51.63 31.5524Z" fill="#E20613"/>
<path d="M91.2401 29.8789H85.623V40.8253H88.4368V37.5484H91.2401C93.4083 37.5484 95.0468 35.738 95.0468 33.7242C95.0468 31.7103 93.3557 29.8824 91.2401 29.8824V29.8789ZM91.2401 34.8504H88.4368V32.6015H91.2401C91.8646 32.6015 92.3242 33.1277 92.3242 33.7382C92.3242 34.3487 91.826 34.8504 91.2401 34.8504Z" fill="#E20613"/>
<path d="M71.6637 34.903C72.3374 34.5241 72.8566 33.6891 72.8566 32.6401C72.8566 31.0963 71.5304 29.8789 70.0393 29.8789H63.8013V40.8253H70.0253C71.9795 40.8253 73.3899 39.3517 73.3899 37.5309C73.3899 36.0187 72.5689 35.1346 71.6637 34.903ZM66.4958 32.5559H69.4008C69.8428 32.5559 70.106 32.833 70.106 33.2084C70.106 33.5838 69.8428 33.8645 69.4008 33.8645H66.4958V32.5523V32.5559ZM69.5797 38.1518H66.4958V36.5274H69.5797C70.0393 36.5274 70.3972 36.8572 70.3972 37.3484C70.3972 37.7554 70.0884 38.1518 69.5797 38.1518Z" fill="#E20613"/>
<path d="M74.8584 40.8253H83.5559V38.1203H77.6161V36.7064H82.1911V34.0154H77.6161V32.5874H83.5559V29.8789H74.8584V40.8253Z" fill="#E20613"/>
<path d="M57.583 33.2225L55.8288 29.8789H52.7168L56.0288 36.1766L53.5799 40.8253H56.6252L62.3861 29.8789H59.3478L57.583 33.2225Z" fill="#E20613"/>
<path d="M48.1446 66.1143C48.5902 66.1143 48.9375 66.4651 48.9375 66.8931C48.9375 67.3212 48.5902 67.658 48.1446 67.658C47.699 67.658 47.3657 67.3212 47.3657 66.8931C47.3657 66.4651 47.7166 66.1143 48.1446 66.1143Z" fill="black"/>
<path d="M61.4849 62.5781V62.9009C61.4849 65.9673 59.6149 67.7952 56.6853 67.7952C55.731 67.7952 54.91 67.5812 54.2645 67.2304C52.6927 66.3708 51.791 64.7815 51.791 62.8343C51.791 61.2344 52.3033 59.9433 53.3382 58.9609C54.2119 58.1259 55.3696 57.7119 56.7555 57.7119C58.5834 57.7119 59.9412 58.3715 60.8428 59.7293L59.8885 60.4941C59.1903 59.3258 58.1518 58.7469 56.7976 58.7469C54.5662 58.7469 53.033 60.3994 53.033 62.8343C53.033 65.1323 54.6048 66.7602 56.7976 66.7602C58.7062 66.7602 60.1341 65.4831 60.2675 63.6026H57.5238V62.5781H61.4919H61.4849Z" fill="black"/>
<path d="M72.185 66.3143C71.2026 67.2686 69.8869 67.7913 68.5397 67.7913C67.1924 67.7913 65.8768 67.2545 64.9084 66.3143C63.9261 65.36 63.4033 64.1215 63.4033 62.7497C63.4033 61.3779 63.9296 60.1288 64.9084 59.1745C65.8768 58.2343 67.1784 57.708 68.5397 57.708C69.901 57.708 71.2167 58.2343 72.185 59.1745C73.1674 60.1288 73.6761 61.3814 73.6761 62.7497C73.6761 64.118 73.1498 65.374 72.185 66.3143ZM71.3219 65.5494C72.0762 64.7951 72.4797 63.8268 72.4797 62.7532C72.4797 61.6796 72.0762 60.6832 71.3219 59.9289C70.5676 59.1745 69.5993 58.7711 68.5397 58.7711C67.4801 58.7711 66.4943 59.1745 65.7575 59.9289C65.0032 60.6937 64.5997 61.6761 64.5997 62.7532C64.5997 63.8303 65.0032 64.7846 65.7575 65.5494C66.5223 66.3143 67.4801 66.7177 68.5397 66.7177C69.5993 66.7177 70.5571 66.3143 71.3219 65.5494Z" fill="black"/>
<path d="M76.9289 57.9219V63.9073C76.9289 65.8299 77.7077 66.7316 79.4971 66.7316C81.2864 66.7316 82.0653 65.8299 82.0653 63.9073V57.9219H83.2195V63.9073C83.2195 66.5036 81.9951 67.7947 79.4936 67.7947C76.992 67.7947 75.7676 66.5036 75.7676 63.9073V57.9219H76.9254H76.9289Z" fill="black"/>
<path d="M85.1128 57.9219H86.3513L89.1756 65.2791L91.9859 57.9219H93.2243L89.1756 67.914L85.1163 57.9219H85.1128Z" fill="black"/>
<path d="M94.0167 66.1143C94.4622 66.1143 94.8096 66.4651 94.8096 66.8931C94.8096 67.3212 94.4622 67.658 94.0167 67.658C93.5711 67.658 93.2378 67.3212 93.2378 66.8931C93.2378 66.4651 93.5886 66.1143 94.0167 66.1143Z" fill="black"/>
<path d="M98.106 57.9219H103.176V58.9709H99.2497V61.7286H103.176V62.7916H99.2497V67.5386H98.106V57.9219Z" fill="black"/>
<path d="M105.862 57.9225H108.122C109.037 57.9225 109.736 57.9505 110.329 58.4066C110.879 58.8382 111.23 59.603 111.23 60.5433C111.23 62.1151 110.329 62.9501 108.634 62.9501H108.43L112.1 67.5356H110.648L107.139 62.9501H106.978V67.5356H105.862V57.9189V57.9225ZM106.978 62.108H107.852C109.357 62.108 110.097 61.8905 110.097 60.5608C110.097 59.1609 109.371 58.8943 107.852 58.8943H106.978V62.108Z" fill="black"/>
<path d="M49.8872 49.0208C49.8872 49.0208 49.9328 48.9928 49.9469 48.9822V54.8554H52.6905V43.7266C52.6905 43.7266 52.6764 43.7336 52.6764 43.7371L49.8872 49.0208Z" fill="black"/>
<path d="M76.8153 49.2695L79.173 44.7471L76.8013 49.2414L76.8153 49.2695Z" fill="black"/>
<path d="M79.1724 44.7471L79.6144 43.9121H79.6074L79.1724 44.7471Z" fill="black"/>
<path d="M144.862 47.5048C145.073 47.2908 146.644 45.6523 146.781 45.5225C146.609 45.3506 146.399 45.1611 146.171 44.9717L144.848 47.4872C144.848 47.4872 144.852 47.5013 144.862 47.5048Z" fill="black"/>
<path d="M42.2812 43.7295V54.8583H45.0108V48.9852C45.4003 49.2308 47.1054 50.3289 47.4703 50.5429C47.786 50.3535 49.4069 49.343 49.8876 49.0238L52.6768 43.74C52.0804 44.1505 47.993 46.8029 47.4703 47.1643C46.958 46.8169 43.0426 44.2277 42.2812 43.7295Z" fill="black"/>
<path d="M68.8742 43.9121H66.064V54.855H72.0564V52.1991H68.8742V43.9121Z" fill="black"/>
<path d="M101.919 43.9121H99.1123V54.855H105.101V52.1991H101.919V43.9121Z" fill="black"/>
<path d="M109.749 43.9121H106.942V54.855H112.935V52.1991H109.749V43.9121Z" fill="black"/>
<path d="M79.6162 43.9117L79.1741 44.7467L76.8199 49.2691L76.8024 49.2376L74.0307 43.9082H71.0415C71.231 44.3818 73.6869 48.9113 75.3464 51.9917C76.0621 53.3354 76.634 54.4125 76.7954 54.7458V54.8511C76.7954 54.8511 76.8129 54.8125 76.8164 54.7985C76.827 54.8125 76.8445 54.8441 76.8445 54.8511V54.7458C77.3567 53.6372 82.3177 44.5924 82.5913 43.9082H79.6127L79.6162 43.9117Z" fill="black"/>
<path d="M59.2633 44.0209V43.9121C59.2633 43.9121 59.2492 43.9542 59.2422 43.9647C59.2352 43.9542 59.2177 43.9261 59.2141 43.9121V44.0209C58.6984 45.126 53.7409 54.1779 53.4673 54.8585H56.446L56.8915 54.0235L57.1056 53.613H61.3824L62.0314 54.8585H65.0206C64.8277 54.3813 62.3718 49.8554 60.7123 46.775C59.9965 45.4313 59.4246 44.3577 59.2633 44.0209ZM58.4177 51.0834L59.2422 49.5011L59.2562 49.5327L60.0632 51.0869H58.4177V51.0834Z" fill="black"/>
<path d="M119.472 44.0209V43.9121C119.472 43.9121 119.447 43.9542 119.447 43.9647C119.44 43.9542 119.423 43.9261 119.416 43.9121V44.0209C118.9 45.126 113.946 54.1779 113.676 54.8585H116.654L117.1 54.0235L117.314 53.613H121.591L122.24 54.8585H125.226C125.036 54.3813 122.58 49.8554 120.924 46.775C120.198 45.4313 119.637 44.3577 119.475 44.0209H119.472ZM118.623 51.0834L119.444 49.5011L119.458 49.5327L120.268 51.0869H118.623V51.0834Z" fill="black"/>
<path d="M83.7368 54.855H92.4378V52.15H86.498V50.7361H91.073V48.0451H86.498V46.6171H92.4378V43.9121H83.7368V54.855Z" fill="black"/>
<path d="M94.3047 54.855H97.143V43.9121H94.3047V54.855Z" fill="black"/>
<path d="M132.441 49.0486C131.897 48.5925 126.887 44.0982 126.445 43.6982V54.8551H129.199V49.7223C129.662 50.1328 134.634 54.5955 135.177 55.0727V43.9123H132.444V49.0486H132.441Z" fill="black"/>
<path d="M142.583 52.3781C142.481 52.3781 142.39 52.3605 142.284 52.3465C140.786 52.1921 139.632 50.887 139.632 49.3924C139.632 47.7188 140.976 46.3891 142.583 46.3891C143.832 46.3891 144.439 47.0908 144.853 47.4838L146.175 44.9682C145.372 44.3051 144.193 43.6455 142.583 43.6455C139.449 43.6455 136.808 46.1084 136.808 49.3889C136.808 52.1009 138.618 54.1814 140.955 54.8585C141.477 55.0129 142.018 55.1147 142.583 55.1147C144.603 55.1147 146.063 53.9183 146.817 53.0973C146.649 52.9324 145.077 51.3255 144.916 51.1606C144.375 51.8378 143.537 52.3746 142.583 52.3746V52.3781Z" fill="black"/>
<path d="M156.812 46.6171V43.9121H148.111V54.855H156.812V52.15H150.868V50.7361H155.447V48.0451H150.868V46.6171H156.812Z" fill="black"/>
<path d="M33.1344 42.8457H28.8506V47.1295H33.1344V42.8457Z" fill="#E30613"/>
<path d="M24.5656 38.5615H20.2817V42.8454H24.5656V38.5615Z" fill="#E30613"/>
<path d="M10.1478 80.7021H11.5126L14.5369 88.2909H13.4528L12.5757 86.0596H9.08476L8.20765 88.2909H7.12354L10.1478 80.7021ZM12.2389 85.1789L10.832 81.5898L9.42158 85.1789H12.2389Z" fill="black"/>
<path d="M16.8414 86.978C17.2204 87.4551 17.6765 87.7358 18.2273 87.7358C18.8343 87.7358 19.1816 87.3674 19.1816 86.8903C19.1816 85.6553 16.5046 86.1079 16.5046 84.1467C16.5046 83.2695 17.2309 82.6064 18.2624 82.6064C19.0658 82.6064 19.7359 82.9748 20.1148 83.5046L19.4763 84.0589C19.1746 83.6239 18.7711 83.3748 18.2729 83.3748C17.708 83.3748 17.4063 83.6765 17.4063 84.1221C17.4063 85.3676 20.0833 84.9361 20.0833 86.8447C20.0727 87.8656 19.2588 88.5042 18.2413 88.5042C17.3747 88.5042 16.6906 88.1568 16.1924 87.5393L16.8414 86.9745V86.978Z" fill="black"/>
<path d="M22.5739 86.978C22.9528 87.4551 23.4089 87.7358 23.9597 87.7358C24.5667 87.7358 24.914 87.3674 24.914 86.8903C24.914 85.6553 22.2371 86.1079 22.2371 84.1467C22.2371 83.2695 22.9633 82.6064 23.9948 82.6064C24.7982 82.6064 25.4684 82.9748 25.8473 83.5046L25.2087 84.0589C24.907 83.6239 24.5035 83.3748 24.0053 83.3748C23.4405 83.3748 23.1387 83.6765 23.1387 84.1221C23.1387 85.3676 25.8157 84.9361 25.8157 86.8447C25.8052 87.8656 24.9912 88.5042 23.9737 88.5042C23.1072 88.5042 22.423 88.1568 21.9248 87.5393L22.5739 86.9745V86.978Z" fill="black"/>
<path d="M28.1001 80.7577C28.1001 80.4103 28.3913 80.1191 28.7492 80.1191C29.107 80.1191 29.3877 80.4103 29.3877 80.7577C29.3877 81.105 29.107 81.4067 28.7492 81.4067C28.3913 81.4067 28.1001 81.1155 28.1001 80.7577ZM28.286 82.8277H29.2053V88.2903H28.286V82.8277Z" fill="black"/>
<path d="M32.1569 86.978C32.5358 87.4551 32.9919 87.7358 33.5427 87.7358C34.1497 87.7358 34.497 87.3674 34.497 86.8903C34.497 85.6553 31.8201 86.1079 31.8201 84.1467C31.8201 83.2695 32.5463 82.6064 33.5778 82.6064C34.3812 82.6064 35.0514 82.9748 35.4303 83.5046L34.7917 84.0589C34.49 83.6239 34.0865 83.3748 33.5883 83.3748C33.0235 83.3748 32.7217 83.6765 32.7217 84.1221C32.7217 85.3676 35.3987 84.9361 35.3987 86.8447C35.3882 87.8656 34.5742 88.5042 33.5568 88.5042C32.6902 88.5042 32.006 88.1568 31.5078 87.5393L32.1569 86.9745V86.978Z" fill="black"/>
<path d="M38.2224 83.6732H37.1909V82.8277H38.2224V81.4629H39.1557V82.8277H41.0537V83.6732H39.1557V86.4589C39.1557 87.315 39.5907 87.5536 40.2503 87.5536C40.6082 87.5536 40.8573 87.5115 41.0643 87.4238V88.2482C40.8046 88.357 40.5099 88.3991 40.1205 88.3991C38.9066 88.3991 38.2224 87.7921 38.2224 86.4589V83.6732Z" fill="black"/>
<path d="M43.1338 86.9468C43.1338 86.1013 43.7618 85.4943 44.9336 85.3084L46.765 85.0066V84.6277C46.765 83.8699 46.2247 83.4348 45.4529 83.4348C44.8143 83.4348 44.2846 83.7155 43.9688 84.1927L43.2741 83.6629C43.7513 83.0138 44.5231 82.6104 45.4739 82.6104C46.8598 82.6104 47.6843 83.4243 47.6843 84.6242V88.287H46.765V87.5924C46.3546 88.1677 45.6704 88.5046 44.9336 88.5046C43.86 88.5046 43.1338 87.8976 43.1338 86.9433V86.9468ZM45.0845 87.7362C45.8107 87.7362 46.3861 87.3573 46.765 86.7293V85.6873L45.1512 85.9679C44.3933 86.0872 44.0565 86.4346 44.0565 86.9117C44.0565 87.3889 44.4565 87.7362 45.088 87.7362H45.0845Z" fill="black"/>
<path d="M50.5234 82.8279H51.4427V83.4454C51.8882 82.9577 52.4531 82.6104 53.2635 82.6104C54.488 82.6104 55.4002 83.4348 55.4002 84.9856V88.2905H54.4669V85.0172C54.4669 84.0418 53.9266 83.4769 53.0811 83.4769C52.2882 83.4769 51.79 83.933 51.4427 84.5084V88.2905H50.5234V82.8279Z" fill="black"/>
<path d="M62.2932 86.8275L63.03 87.3924C62.5212 88.0765 61.7283 88.5081 60.7319 88.5081C58.9216 88.5081 57.7603 87.1538 57.7603 85.5575C57.7603 83.9611 58.9216 82.6104 60.7319 82.6104C61.7178 82.6104 62.5212 83.0559 63.03 83.726L62.2932 84.2909C61.9564 83.8032 61.4055 83.4769 60.7319 83.4769C59.5636 83.4769 58.7286 84.3997 58.7286 85.5575C58.7286 86.7152 59.5636 87.638 60.7424 87.638C61.4161 87.638 61.9564 87.3152 62.2932 86.824V86.8275Z" fill="black"/>
<path d="M67.5711 88.5081C65.7291 88.5081 64.5889 87.1538 64.5889 85.5575C64.5889 83.9611 65.6519 82.6104 67.343 82.6104C68.8271 82.6104 69.7919 83.6173 69.7919 84.9856C69.7919 85.2031 69.7603 85.4171 69.7288 85.5715H65.5467V85.5925C65.5467 86.7959 66.3712 87.6731 67.5956 87.6731C68.2903 87.6731 68.8762 87.3468 69.2341 86.8591L69.9182 87.3889C69.4095 88.073 68.5955 88.5046 67.5746 88.5046L67.5711 88.5081ZM65.6204 84.8452H68.8622C68.8306 84.0523 68.2552 83.4033 67.357 83.4033C66.4589 83.4033 65.8379 83.9015 65.6239 84.8452H65.6204Z" fill="black"/>
<path d="M78.7405 88.5081C76.8986 88.5081 75.7583 87.1538 75.7583 85.5575C75.7583 83.9611 76.8214 82.6104 78.5124 82.6104C79.9965 82.6104 80.9613 83.6173 80.9613 84.9856C80.9613 85.2031 80.9298 85.4171 80.8982 85.5715H76.7161V85.5925C76.7161 86.7959 77.5406 87.6731 78.765 87.6731C79.4597 87.6731 80.0456 87.3468 80.4035 86.8591L81.0877 87.3889C80.5789 88.073 79.765 88.5046 78.744 88.5046L78.7405 88.5081ZM76.7898 84.8452H80.0316C80 84.0523 79.4246 83.4033 78.5265 83.4033C77.6283 83.4033 77.0073 83.9015 76.7933 84.8452H76.7898Z" fill="black"/>
<path d="M83.78 83.6732H82.7485V82.8277H83.78V81.4629H84.7133V82.8277H86.6114V83.6732H84.7133V86.4589C84.7133 87.315 85.1483 87.5536 85.8079 87.5536C86.1658 87.5536 86.4149 87.5115 86.6219 87.4238V88.2482C86.3622 88.357 86.0675 88.3991 85.6781 88.3991C84.4642 88.3991 83.78 87.7921 83.78 86.4589V83.6732Z" fill="black"/>
<path d="M92.8926 82.8279H93.8118V83.4348C94.31 82.9051 94.9591 82.6104 95.752 82.6104C97.4641 82.6104 98.5587 83.9646 98.5587 85.5575C98.5587 87.1503 97.4641 88.5081 95.752 88.5081C94.9591 88.5081 94.31 88.2169 93.8118 87.6836V90.957H92.8926V82.8279ZM95.6467 87.6415C96.808 87.6415 97.5974 86.7223 97.5974 85.561C97.5974 84.3997 96.8045 83.4804 95.6467 83.4804C94.8889 83.4804 94.2398 83.8488 93.8153 84.5225V86.603C94.2398 87.2766 94.8889 87.645 95.6467 87.645V87.6415Z" fill="black"/>
<path d="M101.021 82.8275H101.94V83.5117C102.34 83.0345 102.838 82.7188 103.533 82.7188C103.708 82.7188 103.869 82.7398 103.999 82.7819V83.7362C103.838 83.6941 103.673 83.6625 103.459 83.6625C102.743 83.6625 102.277 84.0309 101.94 84.5817V88.2902H101.021V82.8275Z" fill="black"/>
<path d="M108.54 88.5078C106.698 88.5078 105.558 87.1535 105.558 85.5571C105.558 83.9608 106.621 82.61 108.312 82.61C109.796 82.61 110.761 83.617 110.761 84.9853C110.761 85.2028 110.729 85.4168 110.697 85.5712H106.515V85.5922C106.515 86.7956 107.34 87.6727 108.564 87.6727C109.259 87.6727 109.845 87.3465 110.203 86.8588L110.887 87.3886C110.378 88.0727 109.564 88.5042 108.543 88.5042L108.54 88.5078ZM106.589 84.8449H109.831C109.799 84.052 109.224 83.403 108.326 83.403C107.428 83.403 106.807 83.9012 106.593 84.8449H106.589ZM107.901 81.961L109.027 80.1611H110.069L108.803 81.961H107.905H107.901Z" fill="black"/>
<path d="M113.359 82.8281L115.103 87.326L116.85 82.8281H117.847L115.71 88.2908H114.496L112.359 82.8281H113.356H113.359Z" fill="black"/>
<path d="M122.376 88.5081C120.534 88.5081 119.394 87.1538 119.394 85.5575C119.394 83.9611 120.457 82.6104 122.148 82.6104C123.632 82.6104 124.597 83.6173 124.597 84.9856C124.597 85.2031 124.565 85.4171 124.533 85.5715H120.351V85.5925C120.351 86.7959 121.176 87.6731 122.4 87.6731C123.095 87.6731 123.681 87.3468 124.039 86.8591L124.723 87.3889C124.214 88.073 123.4 88.5046 122.379 88.5046L122.376 88.5081ZM120.425 84.8452H123.667C123.635 84.0523 123.06 83.4033 122.162 83.4033C121.264 83.4033 120.643 83.9015 120.429 84.8452H120.425Z" fill="black"/>
<path d="M127.133 82.8279H128.053V83.4454C128.498 82.9577 129.063 82.6104 129.873 82.6104C131.098 82.6104 132.01 83.4348 132.01 84.9856V88.2905H131.077V85.0172C131.077 84.0418 130.536 83.4769 129.691 83.4769C128.898 83.4769 128.4 83.933 128.053 84.5084V88.2905H127.133V82.8279Z" fill="black"/>
<path d="M135.15 83.6732H134.118V82.8277H135.15V81.4629H136.083V82.8277H137.981V83.6732H136.083V86.4589C136.083 87.315 136.518 87.5536 137.178 87.5536C137.535 87.5536 137.785 87.5115 137.992 87.4238V88.2482C137.732 88.357 137.437 88.3991 137.048 88.3991C135.834 88.3991 135.15 87.7921 135.15 86.4589V83.6732Z" fill="black"/>
<path d="M140.179 80.7577C140.179 80.4103 140.47 80.1191 140.828 80.1191C141.186 80.1191 141.466 80.4103 141.466 80.7577C141.466 81.105 141.186 81.4067 140.828 81.4067C140.47 81.4067 140.179 81.1155 140.179 80.7577ZM140.365 82.8277H141.284V88.2903H140.365V82.8277Z" fill="black"/>
<path d="M149.664 85.5575C149.664 87.1503 148.461 88.5081 146.703 88.5081C144.946 88.5081 143.742 87.1538 143.742 85.5575C143.742 83.9611 144.935 82.6104 146.703 82.6104C148.472 82.6104 149.664 83.9646 149.664 85.5575ZM148.689 85.5575C148.689 84.4207 147.854 83.4769 146.717 83.4769C145.581 83.4769 144.714 84.4207 144.714 85.5575C144.714 86.6942 145.549 87.638 146.717 87.638C147.886 87.638 148.689 86.6837 148.689 85.5575Z" fill="black"/>
<path d="M152.122 82.8279H153.041V83.4454C153.487 82.9577 154.052 82.6104 154.862 82.6104C156.087 82.6104 156.999 83.4348 156.999 84.9856V88.2905H156.066V85.0172C156.066 84.0418 155.525 83.4769 154.68 83.4769C153.887 83.4769 153.389 83.933 153.041 84.5084V88.2905H152.122V82.8279Z" fill="black"/>
<path d="M10.3191 101.752C8.47716 101.752 7.33691 100.398 7.33691 98.8016C7.33691 97.2052 8.39998 95.8545 10.0911 95.8545C11.5751 95.8545 12.54 96.8614 12.54 98.2297C12.54 98.4472 12.5084 98.6613 12.4768 98.8156H8.29472V98.8367C8.29472 100.04 9.11921 100.917 10.3437 100.917C11.0383 100.917 11.6242 100.591 11.9821 100.103L12.6663 100.633C12.1575 101.317 11.3436 101.749 10.3226 101.749L10.3191 101.752ZM8.3684 98.0894H11.6102C11.5786 97.2965 11.0032 96.6474 10.1051 96.6474C9.20692 96.6474 8.58592 97.1456 8.3719 98.0894H8.3684Z" fill="black"/>
<path d="M15.0767 96.072H15.9959V96.6895C16.4414 96.2018 17.0063 95.8545 17.8168 95.8545C19.0412 95.8545 19.9534 96.679 19.9534 98.2297V101.535H19.0202V98.2613C19.0202 97.2859 18.4799 96.7211 17.6343 96.7211C16.8414 96.7211 16.3432 97.1772 15.9959 97.7526V101.535H15.0767V96.072Z" fill="black"/>
<path d="M26.7472 100.222C27.1261 100.699 27.5822 100.98 28.133 100.98C28.74 100.98 29.0873 100.612 29.0873 100.134C29.0873 98.8994 26.4104 99.352 26.4104 97.3908C26.4104 96.5137 27.1366 95.8506 28.1681 95.8506C28.9716 95.8506 29.6417 96.219 30.0206 96.7488L29.3821 97.3031C29.0803 96.868 28.6769 96.6189 28.1787 96.6189C27.6138 96.6189 27.3121 96.9207 27.3121 97.3662C27.3121 98.6117 29.989 98.1802 29.989 100.089C29.9785 101.11 29.1645 101.748 28.1471 101.748C27.2805 101.748 26.5963 101.401 26.0981 100.783L26.7472 100.219V100.222Z" fill="black"/>
<path d="M34.9055 101.753C33.0636 101.753 31.9233 100.399 31.9233 98.8022C31.9233 97.2059 32.9864 95.8551 34.6775 95.8551C36.1616 95.8551 37.1264 96.8621 37.1264 98.2304C37.1264 98.4479 37.0948 98.6619 37.0632 98.8163H32.8812V98.8373C32.8812 100.041 33.7056 100.918 34.9301 100.918C35.6248 100.918 36.2107 100.592 36.5685 100.104L37.2527 100.634C36.744 101.318 35.93 101.749 34.909 101.749L34.9055 101.753ZM32.9548 98.09H36.1967C36.1651 97.2971 35.5897 96.6481 34.6915 96.6481C33.7934 96.6481 33.1724 97.1463 32.9583 98.09H32.9548ZM34.267 95.2061L35.3932 93.4062H36.4352L35.1687 95.2061H34.2705H34.267Z" fill="black"/>
<path d="M43.7068 100.072L44.4435 100.637C43.9348 101.321 43.1419 101.752 42.1455 101.752C40.3351 101.752 39.1738 100.398 39.1738 98.8016C39.1738 97.2052 40.3351 95.8545 42.1455 95.8545C43.1314 95.8545 43.9348 96.3001 44.4435 96.9702L43.7068 97.535C43.3699 97.0474 42.8191 96.7211 42.1455 96.7211C40.9772 96.7211 40.1422 97.6438 40.1422 98.8016C40.1422 99.9594 40.9772 100.882 42.156 100.882C42.8296 100.882 43.3699 100.559 43.7068 100.068V100.072Z" fill="black"/>
<path d="M50.4778 96.0723H51.4111V99.1597C51.4111 100.798 50.4673 101.752 48.9832 101.752C47.4992 101.752 46.5659 100.798 46.5659 99.1597V96.0723H47.4886V99.1948C47.4886 100.268 48.064 100.886 48.9938 100.886C49.9235 100.886 50.4778 100.268 50.4778 99.1948V96.0723Z" fill="black"/>
<path d="M54.2075 96.0726H55.1267V96.7568C55.5267 96.2796 56.0249 95.9639 56.7196 95.9639C56.895 95.9639 57.0564 95.9849 57.1862 96.027V96.9813C57.0248 96.9392 56.8599 96.9076 56.6459 96.9076C55.9302 96.9076 55.4635 97.276 55.1267 97.8269V101.535H54.2075V96.0726Z" fill="black"/>
<path d="M59.2969 94.0018C59.2969 93.6545 59.5881 93.3633 59.9459 93.3633C60.3038 93.3633 60.5845 93.6545 60.5845 94.0018C60.5845 94.3492 60.3038 94.6509 59.9459 94.6509C59.5881 94.6509 59.2969 94.3597 59.2969 94.0018ZM59.4828 96.0718H60.402V101.534H59.4828V96.0718Z" fill="black"/>
<path d="M63.6457 96.9174H62.6143V96.0718H63.6457V94.707H64.579V96.0718H66.4771V96.9174H64.579V99.7031C64.579 100.559 65.014 100.798 65.6736 100.798C66.0315 100.798 66.2806 100.756 66.4876 100.668V101.492C66.228 101.601 65.9333 101.643 65.5438 101.643C64.3299 101.643 63.6457 101.036 63.6457 99.7031V96.9174Z" fill="black"/>
<path d="M71.2605 101.753C69.4186 101.753 68.2783 100.399 68.2783 98.8022C68.2783 97.2059 69.3414 95.8551 71.0325 95.8551C72.5165 95.8551 73.4814 96.8621 73.4814 98.2304C73.4814 98.4479 73.4498 98.6619 73.4182 98.8163H69.2361V98.8373C69.2361 100.041 70.0606 100.918 71.2851 100.918C71.9797 100.918 72.5657 100.592 72.9235 100.104L73.6077 100.634C73.0989 101.318 72.285 101.749 71.264 101.749L71.2605 101.753ZM69.3098 98.09H72.5516C72.5201 97.2971 71.9447 96.6481 71.0465 96.6481C70.1483 96.6481 69.5273 97.1463 69.3133 98.09H69.3098ZM70.622 95.2061L71.7482 93.4062H72.7902L71.5236 95.2061H70.6255H70.622Z" fill="black"/>
<path d="M79.9209 96.072H80.8401V96.6895C81.2857 96.2018 81.8505 95.8545 82.661 95.8545C83.8855 95.8545 84.7976 96.679 84.7976 98.2297V101.535H83.8644V98.2613C83.8644 97.2859 83.3241 96.7211 82.4786 96.7211C81.6856 96.7211 81.1875 97.1772 80.8401 97.7526V101.535H79.9209V96.072Z" fill="black"/>
<path d="M91.4168 96.0723H92.3501V99.1597C92.3501 100.798 91.4063 101.752 89.9222 101.752C88.4381 101.752 87.5049 100.798 87.5049 99.1597V96.0723H88.4276V99.1948C88.4276 100.268 89.003 100.886 89.9327 100.886C90.8625 100.886 91.4168 100.268 91.4168 99.1948V96.0723Z" fill="black"/>
<path d="M95.1447 96.072H96.0639V96.6685C96.4779 96.1913 97.0182 95.8545 97.7761 95.8545C98.5795 95.8545 99.2391 96.2229 99.5759 96.9491C100.011 96.3316 100.607 95.8545 101.506 95.8545C102.677 95.8545 103.533 96.6334 103.533 98.1175V101.531H102.611V98.149C102.611 97.2403 102.102 96.7176 101.32 96.7176C100.625 96.7176 100.151 97.1175 99.7794 97.7596C99.7899 97.8789 99.8004 97.9982 99.8004 98.1175V101.531H98.8672V98.149C98.8672 97.2403 98.3795 96.7176 97.5866 96.7176C96.8393 96.7176 96.3727 97.1842 96.0569 97.7491V101.531H95.1377V96.0685L95.1447 96.072Z" fill="black"/>
<path d="M108.873 101.753C107.031 101.753 105.891 100.399 105.891 98.8022C105.891 97.2059 106.954 95.8551 108.645 95.8551C110.129 95.8551 111.094 96.8621 111.094 98.2304C111.094 98.4479 111.063 98.6619 111.031 98.8163H106.849V98.8373C106.849 100.041 107.673 100.918 108.898 100.918C109.593 100.918 110.178 100.592 110.536 100.104L111.22 100.634C110.712 101.318 109.898 101.749 108.877 101.749L108.873 101.753ZM106.923 98.09H110.164C110.133 97.2971 109.557 96.6481 108.659 96.6481C107.761 96.6481 107.14 97.1463 106.926 98.09H106.923ZM108.235 95.2061L109.361 93.4062H110.403L109.136 95.2061H108.238H108.235Z" fill="black"/>
<path d="M113.631 96.0726H114.55V96.7568C114.95 96.2796 115.448 95.9639 116.143 95.9639C116.318 95.9639 116.48 95.9849 116.61 96.027V96.9813C116.448 96.9392 116.283 96.9076 116.069 96.9076C115.353 96.9076 114.887 97.276 114.55 97.8269V101.535H113.631V96.0726Z" fill="black"/>
<path d="M118.724 94.0018C118.724 93.6545 119.015 93.3633 119.373 93.3633C119.731 93.3633 120.011 93.6545 120.011 94.0018C120.011 94.3492 119.731 94.6509 119.373 94.6509C119.015 94.6509 118.724 94.3597 118.724 94.0018ZM118.906 96.0718H119.825V101.534H118.906V96.0718Z" fill="black"/>
<path d="M125.096 95.8545C125.9 95.8545 126.549 96.1562 127.036 96.6895V96.072H127.959V104.201H127.036V100.917C126.549 101.447 125.9 101.752 125.096 101.752C123.384 101.752 122.29 100.398 122.29 98.8016C122.29 97.2052 123.384 95.8545 125.096 95.8545ZM125.195 100.886C125.963 100.886 126.615 100.517 127.036 99.8436V97.7631C126.615 97.093 125.963 96.7211 125.195 96.7211C124.047 96.7211 123.254 97.6438 123.254 98.8016C123.254 99.9594 124.047 100.882 125.195 100.882V100.886Z" fill="black"/>
<path d="M134.674 96.0723H135.607V99.1597C135.607 100.798 134.664 101.752 133.18 101.752C131.695 101.752 130.762 100.798 130.762 99.1597V96.0723H131.685V99.1948C131.685 100.268 132.26 100.886 133.19 100.886C134.12 100.886 134.674 100.268 134.674 99.1948V96.0723Z" fill="black"/>
<path d="M140.915 101.752C139.073 101.752 137.933 100.398 137.933 98.8016C137.933 97.2052 138.996 95.8545 140.687 95.8545C142.171 95.8545 143.136 96.8614 143.136 98.2297C143.136 98.4472 143.105 98.6613 143.073 98.8156H138.891V98.8367C138.891 100.04 139.715 100.917 140.94 100.917C141.635 100.917 142.22 100.591 142.578 100.103L143.262 100.633C142.754 101.317 141.94 101.749 140.919 101.749L140.915 101.752ZM138.965 98.0894H142.206C142.175 97.2965 141.599 96.6474 140.701 96.6474C139.803 96.6474 139.182 97.1456 138.968 98.0894H138.965Z" fill="black"/>
</svg>
