<svg width="68" height="68" viewBox="0 0 68 68" fill="none" xmlns="http://www.w3.org/2000/svg">
<circle cx="34" cy="34" r="34" fill="#C90000"/>
<path d="M36.6565 26.6318H32.1356C31.7117 26.6318 31.3669 26.9766 31.3669 27.402C31.3669 27.8274 31.7117 28.1721 32.1356 28.1721H36.6565C37.0819 28.1721 37.4251 27.8274 37.4251 27.402C37.4251 26.9766 37.0819 26.6318 36.6565 26.6318Z" fill="white"/>
<path d="M34.3954 30.7107C35.2625 30.7107 35.9805 30.0375 36.0372 29.1719H32.7581C32.8133 30.0361 33.5297 30.7107 34.3954 30.7107Z" fill="white"/>
<path d="M34.3946 11.9541C30.811 11.978 27.9021 14.8556 27.8379 18.4392V18.6645C27.8543 19.4511 28.0095 20.2287 28.2946 20.9631C28.5588 21.6481 28.9454 22.281 29.4334 22.8302C30.0409 23.5989 30.5588 24.4362 30.9722 25.3242C31.0588 25.4944 31.2319 25.6034 31.4245 25.6063H37.3752C37.5663 25.6034 37.7409 25.4944 37.8275 25.3242C38.2409 24.4362 38.7573 23.5989 39.3662 22.8302C39.8513 22.2795 40.2349 21.6481 40.4991 20.9631C40.7767 20.2362 40.9304 19.4675 40.9558 18.6899V18.4645C40.9036 14.8705 37.9886 11.978 34.3946 11.9541ZM39.4424 18.6227C39.4215 19.2287 39.3006 19.8272 39.0842 20.3929C38.8812 20.9019 38.5916 21.3705 38.2274 21.7795C37.6498 22.478 37.1558 23.2407 36.7543 24.0511H32.0394C31.6349 23.2407 31.1394 22.478 30.5618 21.7795C30.1991 21.3705 29.911 20.9019 29.7095 20.3929C29.4931 19.8272 29.3722 19.2287 29.3513 18.6227V18.4392C29.3991 15.6825 31.6379 13.4675 34.3946 13.4526C37.1513 13.4675 39.3931 15.681 39.4424 18.4392V18.6227Z" fill="white"/>
<path d="M31.9216 20.1066L34.6351 14.8066V17.8753L37.453 17.3156L34.6351 22.5022V19.4902L31.9216 20.1066Z" fill="white"/>
<path d="M49.0163 34.0614C49.0163 36.2658 47.2282 38.0524 45.0238 38.0524C42.8193 38.0524 41.0327 36.2658 41.0327 34.0614C41.0327 31.8569 42.8193 30.0703 45.0238 30.0703C47.2282 30.0703 49.0163 31.8569 49.0163 34.0614Z" fill="white"/>
<path d="M27.7253 34.0614C27.7253 36.2658 25.9387 38.0524 23.7342 38.0524C21.5298 38.0524 19.7417 36.2658 19.7417 34.0614C19.7417 31.8569 21.5298 30.0703 23.7342 30.0703C25.9387 30.0703 27.7253 31.8569 27.7253 34.0614Z" fill="white"/>
<path d="M52.2092 41.5109C51.0599 40.6154 49.7286 39.981 48.3092 39.6482C47.242 39.3378 46.1376 39.1646 45.0256 39.1363C43.9122 39.1333 42.8032 39.3064 41.742 39.6482C40.6793 39.9318 39.6644 40.3676 38.7256 40.9422C38.6644 41.0139 38.6077 41.0855 38.5405 41.1527C40.0331 41.5542 41.4286 42.2512 42.645 43.2049C43.6062 43.9049 44.1659 45.0273 44.1495 46.2154V47.1288H53.0092V43.1124C53.0241 42.4781 52.7256 41.8796 52.2092 41.5109Z" fill="white"/>
<path d="M24.6204 46.2154C24.6219 45.0616 25.1517 43.9706 26.0577 43.2557L26.1189 43.2049L26.1861 43.1586C27.4159 42.2825 28.7771 41.6079 30.2189 41.1572C30.1159 41.0497 30.0234 40.9363 29.9264 40.8243C29.0249 40.296 28.0517 39.9004 27.0368 39.6482C25.9696 39.3363 24.8667 39.1646 23.7532 39.1363C22.6398 39.1333 21.5308 39.3064 20.4696 39.6482C19.0711 40.0348 17.7502 40.6661 16.5711 41.5109C16.0652 41.89 15.7637 42.481 15.7502 43.1124V47.1288H24.6204V46.2154Z" fill="white"/>
<path d="M26.397 50.2079V46.2153C26.3985 45.5885 26.6955 44.9974 27.197 44.6198C28.3746 43.7706 29.6955 43.1407 31.097 42.7586C32.1567 42.4139 33.2656 42.2407 34.3806 42.2452C35.4925 42.2706 36.5955 42.4437 37.6641 42.7586C39.085 43.0855 40.4179 43.7213 41.5671 44.6198C42.082 44.987 42.3791 45.5855 42.3627 46.2153V50.2079H26.397Z" fill="white"/>
<path d="M38.3698 37.1659C38.3698 39.3704 36.5832 41.1569 34.3788 41.1569C32.1743 41.1569 30.3862 39.3704 30.3862 37.1659C30.3862 34.9614 32.1743 33.1733 34.3788 33.1733C36.5832 33.1733 38.3698 34.9614 38.3698 37.1659Z" fill="white"/>
</svg>
