<svg width="69" height="69" viewBox="0 0 69 69" fill="none" xmlns="http://www.w3.org/2000/svg">
<g clip-path="url(#clip0_1830_3815)">
<path d="M59.6968 50.3982V0.697392H0.697392V59.6968H16.4155L16.3236 60.3942H0V0H60.3942V51.0956L59.6968 50.3982Z" fill="white"/>
<path d="M19.9111 62.9H22.746L21.3489 59.8558L19.9111 62.9Z" fill="white"/>
<path d="M15.2734 15.2732V69.0003H69.0005V15.2732H15.2734ZM24.2989 66.2735L23.0528 63.5467H19.6159L18.3269 66.2735H17.5074L21.5046 57.7909H21.9242L25.8273 66.2735H24.2989ZM35.8361 64.3336C35.6664 64.6114 35.4629 64.881 35.2305 65.1356C34.998 65.3913 34.7249 65.6203 34.4203 65.8179C34.1147 66.0155 33.7648 66.1747 33.3812 66.2909C32.9965 66.4072 32.563 66.4664 32.0899 66.4664C31.4064 66.4664 30.7776 66.3502 30.2197 66.1224C29.6618 65.8946 29.1771 65.5807 28.7784 65.1914C28.3798 64.8008 28.0671 64.3394 27.8497 63.8175C27.6324 63.2968 27.5208 62.7377 27.5208 62.1566C27.5208 61.7707 27.5708 61.3883 27.6707 61.021C27.7707 60.6537 27.916 60.3038 28.1055 59.983C28.2938 59.6611 28.5274 59.3623 28.7994 59.095C29.0713 58.8277 29.3828 58.594 29.7246 58.4011C30.0663 58.2082 30.4464 58.057 30.852 57.9513C31.2577 57.8455 31.697 57.792 32.1561 57.792C32.6153 57.792 33.0081 57.8525 33.3801 57.971C33.752 58.0896 34.0949 58.2477 34.3994 58.4429C34.704 58.6382 34.9806 58.866 35.2189 59.1217C35.4571 59.3763 35.664 59.6459 35.8337 59.9237L35.8628 59.9714L35.1631 60.4328L35.134 60.3759C34.7981 59.725 34.418 59.2426 34.0042 58.9439C33.5928 58.6463 33.1127 58.4952 32.5757 58.4952C32.1131 58.4952 31.6738 58.5813 31.2716 58.7498C30.8695 58.9183 30.5138 59.1636 30.2139 59.4762C29.914 59.7901 29.6758 60.1771 29.5049 60.6258C29.3329 61.0756 29.2469 61.5905 29.2469 62.1566C29.2469 62.7226 29.3329 63.2294 29.5026 63.6757C29.6723 64.1209 29.9071 64.5021 30.2023 64.8101C30.4975 65.117 30.8509 65.3553 31.253 65.518C31.6552 65.6807 32.0992 65.7632 32.5699 65.7632C32.8489 65.7632 33.122 65.7086 33.3801 65.6017C33.6416 65.4936 33.8868 65.3494 34.11 65.1751C34.3343 64.9996 34.5377 64.7997 34.7144 64.58C34.8922 64.3603 35.0387 64.1348 35.1514 63.9082L35.1805 63.8501L35.8628 64.2859L35.8326 64.3347L35.8361 64.3336ZM46.9037 64.3336C46.734 64.6114 46.5306 64.881 46.2981 65.1356C46.0656 65.3913 45.7925 65.6203 45.488 65.8179C45.1823 66.0155 44.8324 66.1747 44.4488 66.2909C44.0641 66.4072 43.6306 66.4664 43.1575 66.4664C42.4741 66.4664 41.8452 66.3502 41.2873 66.1224C40.7294 65.8946 40.2447 65.5807 39.8461 65.1914C39.4474 64.8008 39.1347 64.3394 38.9174 63.8175C38.6988 63.2968 38.5884 62.7377 38.5884 62.1566C38.5884 61.7707 38.6384 61.3894 38.7384 61.021C38.8383 60.6537 38.9848 60.3038 39.1731 59.983C39.3625 59.6611 39.5962 59.3623 39.867 59.095C40.139 58.8277 40.4505 58.594 40.7922 58.4011C41.1339 58.2082 41.514 58.057 41.9196 57.9513C42.3253 57.8455 42.7646 57.792 43.2238 57.792C43.6829 57.792 44.0757 57.8525 44.4477 57.971C44.8185 58.0896 45.1614 58.2477 45.467 58.4429C45.7716 58.6382 46.0482 58.866 46.2865 59.1217C46.5247 59.3763 46.7316 59.6459 46.9013 59.9237L46.9304 59.9714L46.2307 60.4328L46.2016 60.3759C45.8657 59.725 45.4856 59.2426 45.0718 58.9439C44.6604 58.6463 44.1792 58.4952 43.6434 58.4952C43.1808 58.4952 42.7414 58.5813 42.3392 58.7498C41.9371 58.9183 41.5814 59.1636 41.2827 59.4762C40.9828 59.7901 40.7445 60.1771 40.5725 60.6258C40.4016 61.0756 40.3145 61.5905 40.3145 62.1566C40.3145 62.7226 40.4005 63.2294 40.5702 63.6757C40.7399 64.1209 40.9747 64.5021 41.2699 64.8101C41.5651 65.117 41.9185 65.3553 42.3206 65.518C42.7228 65.6807 43.1656 65.7632 43.6375 65.7632C43.9165 65.7632 44.1896 65.7086 44.4477 65.6017C44.7092 65.4936 44.9545 65.3494 45.1776 65.1751C45.4008 64.9996 45.6042 64.7997 45.782 64.58C45.9599 64.3603 46.1063 64.1337 46.2191 63.9082L46.2481 63.8501L46.9304 64.2859L46.9002 64.3347L46.9037 64.3336ZM53.6358 62.6982V66.2735H52.1434V62.8272L48.8215 57.9757H50.3685L50.386 58.0013L53.1755 62.0775L55.9709 57.9768H56.8578L53.6347 62.6982H53.6358ZM65.681 64.8938C65.5438 65.1693 65.3462 65.4134 65.0917 65.6168C64.8383 65.8202 64.5291 65.9818 64.1723 66.0991C63.8166 66.2154 63.4133 66.2747 62.9728 66.2747H59.0952V57.9768H62.4485C62.8879 57.9768 63.2959 58.0257 63.6632 58.1233C64.0316 58.2209 64.3536 58.3616 64.6186 58.5417C64.8859 58.7231 65.0963 58.9427 65.2439 59.1961C65.3927 59.4507 65.4683 59.7343 65.4683 60.04C65.4683 60.2701 65.445 60.4782 65.3985 60.6595C65.352 60.8431 65.2672 61.0152 65.1474 61.1709C65.0289 61.3255 64.8697 61.4731 64.6755 61.6091C64.5105 61.7242 64.3059 61.8439 64.0665 61.9636C64.3083 62.0113 64.5326 62.0833 64.7325 62.1786C64.9719 62.2925 65.18 62.4378 65.3509 62.6133C65.5217 62.7889 65.6565 62.9969 65.7484 63.2305C65.8414 63.4642 65.8878 63.7245 65.8878 64.0012C65.8878 64.3173 65.8181 64.6172 65.681 64.8938Z" fill="white"/>
<path d="M63.7826 62.7954C63.6025 62.6384 63.363 62.5129 63.069 62.4211C62.7737 62.3293 62.4053 62.2816 61.9729 62.2816H60.5874V65.5582H62.0159C62.4088 65.5582 62.7528 65.5198 63.0411 65.4454C63.327 65.3711 63.5653 65.2665 63.7501 65.1339C63.9326 65.0026 64.0697 64.8434 64.1569 64.6597C64.2452 64.4749 64.2906 64.2692 64.2906 64.0495C64.2906 63.7984 64.2499 63.5625 64.1708 63.3475C64.0918 63.1359 63.9616 62.9499 63.7826 62.7942V62.7954Z" fill="white"/>
<path d="M62.9957 61.5464C63.2015 61.4708 63.377 61.3662 63.5188 61.2349C63.6594 61.1035 63.7687 60.9443 63.8407 60.763C63.914 60.5793 63.9512 60.3782 63.9512 60.1644C63.9512 59.9354 63.907 59.725 63.821 59.5379C63.735 59.3531 63.599 59.1915 63.4165 59.0578C63.2317 58.923 62.9934 58.8184 62.7086 58.7463C62.4204 58.6743 62.0694 58.6371 61.6649 58.6371H60.5874V61.6614H62.2821C62.5494 61.6614 62.79 61.6231 62.9957 61.5475V61.5464Z" fill="white"/>
</g>
<defs>
<clipPath id="clip0_1830_3815">
<rect width="69.0003" height="69.0003" fill="white"/>
</clipPath>
</defs>
</svg>
