<svg width="69" height="68" viewBox="0 0 69 68" fill="none" xmlns="http://www.w3.org/2000/svg">
<circle cx="34.0859" cy="34" r="34" fill="url(#paint0_linear_2564_5820)"/>
<g clip-path="url(#clip0_2564_5820)">
<path fill-rule="evenodd" clip-rule="evenodd" d="M18.4426 18.438C19.3665 17.5141 20.8623 17.5141 21.7813 18.438C22.5585 19.2153 22.6954 20.4325 22.1088 21.3661L26.523 25.7803L25.5795 26.3229L21.3609 22.1043C20.2561 22.7984 18.7994 22.466 18.1053 21.3612C17.5187 20.4276 17.6555 19.2153 18.4328 18.4331L18.4426 18.438ZM41.4666 25.7803L45.8856 21.3661C45.1915 20.2614 45.5239 18.8047 46.6286 18.1105C47.7334 17.4164 49.1901 17.7488 49.8842 18.8535C50.5784 19.9583 50.246 21.415 49.1412 22.1092C48.3738 22.5931 47.3961 22.5931 46.6286 22.1092L42.41 26.3278L41.4666 25.7803ZM34.5251 21.723C34.5251 21.723 34.5251 21.7523 34.5251 21.767L34.2709 21.6203C34.1096 21.5226 33.9043 21.5226 33.743 21.6203L33.479 21.7719C33.479 21.7719 33.479 21.7425 33.479 21.7279V16.6636C32.2081 16.3752 31.4162 15.1091 31.7046 13.8381C31.993 12.5672 33.2591 11.7752 34.53 12.0637C35.801 12.3521 36.5929 13.6181 36.3045 14.8891C36.1041 15.7739 35.4148 16.4631 34.53 16.6636V21.7279L34.5251 21.723ZM42.41 41.6575L46.6286 45.8762C47.7334 45.182 49.1901 45.5144 49.8794 46.6192C50.5735 47.724 50.2411 49.1807 49.1363 49.8699C48.0316 50.5641 46.5749 50.2317 45.8856 49.1269C45.4017 48.3594 45.4017 47.3867 45.8856 46.6192L41.4666 42.205L42.41 41.6624V41.6575ZM44.8493 33.4647H51.3312C51.6196 32.1938 52.8857 31.4019 54.1566 31.6903C55.4276 31.9787 56.2195 33.2448 55.9311 34.5157C55.6427 35.7867 54.3766 36.5786 53.1056 36.2902C52.2209 36.0898 51.5316 35.4005 51.3312 34.5157H44.8444V33.4647H44.8493ZM26.5278 42.205L22.1088 46.6241C22.8029 47.7288 22.4657 49.1807 21.3658 49.8748C20.261 50.569 18.8092 50.2317 18.115 49.1318C17.4209 48.027 17.7582 46.5752 18.8581 45.8811C19.6255 45.402 20.5983 45.402 21.3658 45.8811L25.5844 41.6624L26.5278 42.205ZM34.5251 46.2135V51.3266C35.7961 51.6151 36.588 52.8811 36.2996 54.1521C36.0112 55.4231 34.7451 56.215 33.4742 55.9266C32.2032 55.6381 31.4113 54.3721 31.6997 53.1011C31.9001 52.2163 32.5894 51.5271 33.4742 51.3266V46.2135L33.7332 46.3601C33.8945 46.4579 34.0999 46.4579 34.2612 46.3601L34.5251 46.2086V46.2135ZM12.689 35.6645C11.7651 34.7406 11.7651 33.2448 12.689 32.3257C13.6129 31.4067 15.1087 31.4019 16.0277 32.3257C16.3406 32.6386 16.5606 33.0346 16.6583 33.4696H23.1451V34.5206H16.6583C16.3699 35.7916 15.1038 36.5884 13.828 36.2951C13.3929 36.1973 12.997 35.9773 12.6841 35.6645H12.689ZM38.8953 25.5065L33.9972 22.6762L29.0991 25.5065L24.201 28.332V39.6485L29.0991 42.4739L33.9972 45.3042L38.8953 42.4739L43.7934 39.6485V28.332L38.8953 25.5065ZM40.8066 37.3216L35.0433 33.9927L40.8066 30.6686V37.3216ZM34.5251 41.5549V34.9019L40.2885 38.2308L37.4093 39.8929L34.53 41.5549H34.5251ZM27.7108 38.2308L33.4742 34.9019V41.5549L30.5949 39.8929L27.7157 38.2308H27.7108ZM27.1878 30.6686L32.9511 33.9927L27.1878 37.3216V30.6735V30.6686ZM33.4693 26.4353V33.0883L27.7059 29.7594L30.5852 28.0973L33.4644 26.4353H33.4693ZM37.4044 28.0973L40.2836 29.7594L34.5203 33.0883V26.4353L37.3995 28.0973H37.4044ZM34.3003 25.0959C34.1194 24.9688 33.875 24.9688 33.6892 25.0959L30.0621 27.1881L26.435 29.2803C26.2492 29.3683 26.127 29.5541 26.127 29.7594V38.2308C26.127 38.4313 26.2394 38.6121 26.4203 38.7001L30.0621 40.8021L33.6892 42.8943C33.8701 43.0214 34.1145 43.0214 34.3003 42.8943L37.9274 40.8021L41.5545 38.7099C41.7403 38.6219 41.8625 38.4361 41.8625 38.2308V29.7594C41.8625 29.559 41.7501 29.3781 41.5692 29.2901L37.9274 27.1881L34.3052 25.0959H34.3003Z" fill="white"/>
</g>
<defs>
<linearGradient id="paint0_linear_2564_5820" x1="0.0859328" y1="63.8965" x2="68.0859" y2="8.79309" gradientUnits="userSpaceOnUse">
<stop stop-color="#7DB1FF"/>
<stop offset="1" stop-color="#97E6FF"/>
</linearGradient>
<clipPath id="clip0_2564_5820">
<rect width="43.99" height="43.99" fill="white" transform="translate(12 12)"/>
</clipPath>
</defs>
</svg>
