<svg width="69" height="68" viewBox="0 0 69 68" fill="none" xmlns="http://www.w3.org/2000/svg">
<circle cx="34.0859" cy="34" r="34" fill="url(#paint0_linear_2564_6078)"/>
<g clip-path="url(#clip0_2564_6078)">
<path d="M49.9092 53.449H18.1123C18.1123 50.5822 17.9388 47.783 18.199 45.0244C18.2991 43.9696 19.1731 42.7188 20.0537 42.0426C27.6927 36.1738 39.3881 35.9913 47.2873 41.4544C49.0753 42.6917 50.0493 44.213 49.9293 46.4916C49.8092 48.7701 49.9026 51.0622 49.9026 53.4557L49.9092 53.449Z" fill="white"/>
<path d="M34.424 35.2674C29.9607 35.5379 26.2113 32.049 26.0511 27.661C25.8843 23.1917 29.3803 19.3784 33.7502 19.2634C38.0801 19.1485 41.8629 22.7455 41.963 26.9983C41.983 27.8841 41.7028 28.31 40.8755 28.5467C39.7079 28.878 38.5671 29.2972 37.4196 29.6893C34.9911 30.5142 34.5508 31.1295 34.4974 33.6853C34.4841 34.1856 34.4574 34.6792 34.4307 35.2674H34.424Z" fill="white"/>
<path d="M43.8113 29.8723C44.5185 22.374 40.1085 17.0394 33.6304 17.249C31.2886 17.3233 29.2204 18.1752 27.4391 19.7101C26.832 20.2307 26.1448 20.9136 25.5377 19.9805C25.3309 19.6627 25.7579 18.6147 26.1782 18.2293C32.276 12.6783 41.9832 15.0921 45.1189 22.8879C45.3991 23.5843 45.4458 24.4971 46.5666 24.3348C46.7067 24.3145 46.987 24.4362 46.9936 24.5173C47.1738 26.2009 47.454 27.8912 47.4073 29.568C47.3939 30.0751 46.5533 30.7715 45.9462 31.0217C44.1649 31.7587 42.2968 32.2793 40.4888 32.9487C39.7349 33.2327 39.0744 33.7803 38.3139 34.0372C37.8001 34.2063 37.0462 34.2874 36.6726 34.0237C36.2923 33.7533 35.9988 32.9284 36.1256 32.4821C36.2523 32.0291 36.8928 31.5491 37.3998 31.4139C39.5548 30.8256 41.7364 30.3659 43.8113 29.8791V29.8723Z" fill="white"/>
</g>
<defs>
<linearGradient id="paint0_linear_2564_6078" x1="0.0859328" y1="63.8965" x2="68.0859" y2="8.79309" gradientUnits="userSpaceOnUse">
<stop stop-color="#7DB1FF"/>
<stop offset="1" stop-color="#97E6FF"/>
</linearGradient>
<clipPath id="clip0_2564_6078">
<rect width="31.8903" height="38.2419" fill="white" transform="translate(18.0586 15.207)"/>
</clipPath>
</defs>
</svg>
