<svg width="69" height="68" viewBox="0 0 69 68" fill="none" xmlns="http://www.w3.org/2000/svg">
<circle cx="34.0859" cy="34" r="34" fill="url(#paint0_linear_2564_5802)"/>
<path d="M35.7034 27.4808L46.1863 23.0937L44.4307 18.8462L20.3281 28.8201L22.0825 33.0675L32.9792 28.542L25.0377 47.7053C24.8523 48.1674 25.0834 48.7208 25.5455 48.9062C25.6838 48.9975 25.7765 48.9975 25.9149 48.9975C26.2843 48.9975 26.6066 48.7678 26.7463 48.4441L30.7171 38.8396H33.6266V49.9217C33.6266 50.4295 34.0417 50.8445 34.5495 50.8445C35.0572 50.8445 35.4723 50.4295 35.4723 49.9217V38.8396H38.3819L42.3526 48.4441C42.4923 48.8135 42.8604 48.9975 43.1841 48.9975C43.3225 48.9975 43.4152 48.9975 43.5535 48.9062C44.0156 48.7208 44.2467 48.1674 44.0613 47.7053L35.7034 27.4808ZM31.5016 36.9926L33.6266 31.821V36.9926H31.5016ZM35.4723 36.9926V31.821L37.6431 36.9926H35.4723Z" fill="white"/>
<path d="M17.9707 33.2889L17.2642 31.5829L19.1407 30.8052L19.8473 32.5125L17.9707 33.2889Z" fill="white"/>
<path d="M50.11 15.5215L45.7241 17.2288L48.2173 23.2319L52.5574 21.4776L50.11 15.5215Z" fill="white"/>
<defs>
<linearGradient id="paint0_linear_2564_5802" x1="0.0859328" y1="63.8965" x2="68.0859" y2="8.79309" gradientUnits="userSpaceOnUse">
<stop stop-color="#7DB1FF"/>
<stop offset="1" stop-color="#97E6FF"/>
</linearGradient>
</defs>
</svg>
