<svg width="69" height="69" viewBox="0 0 69 69" fill="none" xmlns="http://www.w3.org/2000/svg">
<circle cx="34.0859" cy="34.3789" r="34" fill="url(#paint0_linear_2757_9467)"/>
<path d="M52.702 27.8306C51.8689 25.8238 49.5687 24.8938 47.5605 25.7256C45.897 26.4106 44.9171 28.1738 45.1621 29.8872L38.847 32.5306C38.1605 31.3556 36.9371 30.474 35.567 30.2304V23.424C37.2305 22.9839 38.5038 21.4656 38.5038 19.6554C38.5038 17.5006 36.7406 15.7388 34.5871 15.7388C32.4337 15.7388 30.6704 17.5006 30.6704 19.6554C30.6704 21.4656 31.9437 22.9839 33.6072 23.424V30.1806C32.1887 30.4256 31.0137 31.3072 30.3272 32.4822L24.0121 29.8388C24.2571 28.124 23.327 26.3622 21.6137 25.6771C19.6055 24.8439 17.3054 25.774 16.4722 27.7822C15.6404 29.7889 16.5705 32.0905 18.5772 32.9223C20.2421 33.6073 22.152 33.0689 23.1803 31.649L29.6421 34.2938C29.5937 34.4889 29.5937 34.7339 29.5937 34.9304C29.5937 36.0072 29.9355 37.0355 30.5722 37.8672L25.4805 43.0073C23.9637 42.1271 22.0053 42.3222 20.7321 43.5955C19.2138 45.1138 19.2138 47.6105 20.7321 49.1273C22.2503 50.6455 24.747 50.6455 26.2638 49.1273C27.5371 47.8554 27.7336 45.8971 26.852 44.3789L32.0406 39.1889C32.7755 39.6304 33.6072 39.874 34.4888 39.874C34.5387 39.874 34.5387 39.874 34.5871 39.874C34.6355 39.874 34.6355 39.874 34.6854 39.874C35.567 39.874 36.3987 39.6304 37.1336 39.1889L42.3222 44.3789C41.4406 45.8971 41.6371 47.8554 42.9104 49.1771C44.4272 50.6939 46.9239 50.6939 48.4421 49.1771C49.9604 47.6589 49.9604 45.1622 48.4421 43.6439C47.1689 42.3721 45.2105 42.1755 43.6937 43.0572L38.602 37.9156C39.2387 37.0839 39.5805 36.1054 39.5805 34.9789C39.5805 34.7823 39.5805 34.5388 39.5321 34.3422L45.9939 31.6988C47.0222 33.0689 48.9321 33.6572 50.597 32.9721C52.5553 32.0905 53.5338 29.8388 52.702 27.8306Z" fill="white"/>
<defs>
<linearGradient id="paint0_linear_2757_9467" x1="0.0859328" y1="64.2755" x2="68.0859" y2="9.172" gradientUnits="userSpaceOnUse">
<stop stop-color="#7DB1FF"/>
<stop offset="1" stop-color="#97E6FF"/>
</linearGradient>
</defs>
</svg>
