<svg width="41" height="41" viewBox="0 0 41 41" fill="none" xmlns="http://www.w3.org/2000/svg">
<g clip-path="url(#clip0_2757_9519)">
<path d="M20.5 0C9.17105 0 0 9.17105 0 20.5C0 31.8289 9.17105 41 20.5 41C31.8289 41 41 31.8289 41 20.5C41 9.17105 31.8289 0 20.5 0ZM19.4211 5.39474C20.9316 5.39474 22.1184 6.58158 22.1184 8.09211C22.1184 9.60263 20.9316 10.7895 19.4211 10.7895C17.9105 10.7895 16.7237 9.60263 16.7237 8.09211C16.7237 6.58158 17.9105 5.39474 19.4211 5.39474ZM25.8947 35.6053H15.1053V32.3684H18.8816V16.1842H15.6447V12.9474H22.1184V32.3684H25.8947V35.6053Z" fill="white"/>
</g>
<defs>
<clipPath id="clip0_2757_9519">
<rect width="41" height="41" fill="white"/>
</clipPath>
</defs>
</svg>
