<svg width="37" height="35" viewBox="0 0 37 35" fill="none" xmlns="http://www.w3.org/2000/svg">
<path d="M30.0124 19.5323C30.0124 19.5323 30.0161 19.5471 30.0161 19.5508V19.5582L29.6178 22.1915C29.6178 22.2099 29.5956 22.2246 29.5772 22.2246L26.7632 21.7968C26.4866 21.7526 26.2173 21.9075 26.1104 22.1656C25.7932 22.9586 25.3506 23.6925 24.7937 24.3416C24.613 24.5555 24.602 24.8653 24.7642 25.0903L26.4534 27.3843C26.4681 27.4064 26.4681 27.4248 26.4497 27.4359L24.3032 29.0218C24.3032 29.0218 24.2663 29.0255 24.2553 29.0144L22.5661 26.7167C22.4002 26.4918 22.1014 26.4106 21.847 26.5213C21.0614 26.8569 20.2242 27.0597 19.3723 27.1298C19.092 27.1556 18.867 27.3695 18.8264 27.6461L18.3986 30.4638C18.3986 30.4638 18.3765 30.4933 18.358 30.4933L15.721 30.095C15.721 30.095 15.6952 30.0729 15.6915 30.0545L16.1194 27.2404C16.1636 26.9638 16.0087 26.6946 15.7505 26.5876C14.9576 26.2668 14.2237 25.8242 13.5709 25.271C13.5561 25.2562 13.5414 25.2415 13.5229 25.2304V24.4449C13.5229 23.947 13.2316 23.4933 12.7779 23.2868C12.7448 23.2684 12.7079 23.2536 12.671 23.2426C12.6415 23.2315 12.6083 23.2204 12.5788 23.2131C12.5419 23.202 12.5087 23.1946 12.4718 23.1872V19.9454C12.564 19.9233 12.6562 19.9085 12.7484 19.8864C12.8296 19.8716 12.9144 19.8495 12.9955 19.8311C13.0066 19.8311 13.0177 19.8311 13.0287 19.8237C13.2832 19.761 13.534 19.6872 13.7848 19.6024C13.9286 19.5582 14.0688 19.5065 14.2089 19.4549C14.22 19.7278 14.2606 20.0007 14.3269 20.2663C14.3306 20.281 14.3343 20.2995 14.338 20.3179C14.6331 21.4575 15.3596 22.4386 16.3628 23.0582C16.3775 23.0618 16.3886 23.0692 16.3997 23.0803C16.9086 23.3827 17.4692 23.5855 18.0519 23.6741C18.6346 23.7589 19.2321 23.7331 19.8038 23.5929H19.8148C20.3902 23.4454 20.9286 23.1872 21.4081 22.8369C21.8838 22.4865 22.2895 22.0476 22.5956 21.5423L22.6178 21.5055C22.9128 21.0039 23.1083 20.4507 23.1968 19.8716C23.2853 19.2889 23.2595 18.6915 23.1157 18.1198C23.1157 18.1124 23.1157 18.105 23.1157 18.0977C22.946 17.4191 22.6215 16.7921 22.1715 16.261C21.8654 15.8959 21.5003 15.5861 21.0946 15.339C21.0909 15.3353 21.0835 15.3316 21.0798 15.3316C21.0725 15.3279 21.0614 15.3205 21.0577 15.3169C20.6373 15.0624 20.1763 14.8817 19.6931 14.7784C19.7669 14.653 19.837 14.5202 19.907 14.3911C20.0841 14.0555 20.239 13.7088 20.3791 13.3548C20.4492 13.1814 20.5082 13.0118 20.5635 12.8385C20.5709 12.8237 20.5746 12.809 20.5783 12.7942C20.6336 12.6209 20.6889 12.4475 20.7332 12.2742C20.7811 12.1082 20.8217 11.9423 20.8549 11.7726C20.8659 11.7357 20.8733 11.6988 20.877 11.662C20.9102 11.5255 20.9323 11.3927 20.9544 11.2563C20.9655 11.1973 20.9766 11.1346 20.9839 11.0755C21.0061 10.9206 21.0282 10.7584 21.043 10.5998C21.0651 10.408 21.0798 10.2162 21.0872 10.0244C21.0946 9.84742 21.0983 9.6667 21.0983 9.48967C21.0983 9.34215 21.0946 9.18725 21.0872 9.03972C21.0872 8.9844 21.0872 8.92539 21.0798 8.87007C21.0725 8.70042 21.0614 8.53814 21.0393 8.36849C21.0393 8.31317 21.0282 8.25785 21.0208 8.19884H21.0245L21.7253 8.30211C21.7474 8.30211 21.7621 8.32423 21.7621 8.34636L21.3343 11.1641C21.2901 11.4407 21.4486 11.7136 21.7068 11.8169C22.4998 12.1303 23.2337 12.5729 23.8828 13.1224C24.0967 13.3032 24.4065 13.3142 24.6315 13.1519L26.9218 11.4591C26.9218 11.4591 26.9587 11.4517 26.9697 11.4665L28.5519 13.6093L28.5445 13.6572L26.2542 15.3464C26.0477 15.516 25.9666 15.8 26.0477 16.0545C26.0588 16.084 26.0735 16.1135 26.0883 16.143C26.4054 16.9064 26.6009 17.7141 26.671 18.5402C26.6931 18.8205 26.9033 19.0455 27.1836 19.0861L30.0198 19.5287L30.0124 19.5323ZM7.05035 18.319C6.74424 18.2009 6.4455 18.0682 6.15414 17.9206C2.82011 16.2315 0.795348 12.7389 0.987129 9.01022C1.07933 7.00021 1.82064 5.07503 3.09303 3.52234C4.8965 1.31318 7.5925 0.033411 10.4434 0.0297229C10.5983 0.0297229 10.7532 0.033411 10.9081 0.0407871C12.2948 0.107173 13.6483 0.47967 14.8728 1.13615C17.3659 2.46017 19.1362 4.83161 19.6931 7.59768C19.8517 8.37218 19.9107 9.16512 19.8701 9.95806C19.8111 11.3116 19.4534 12.6319 18.8301 13.8306C18.5203 14.4206 18.1515 14.9739 17.7311 15.4865C16.6984 16.7441 15.3559 17.7178 13.8364 18.3042C13.7 18.3558 13.5561 18.4075 13.4049 18.4554C13.132 18.5439 12.8591 18.6214 12.5899 18.6841C12.3428 18.7394 12.103 18.7873 11.867 18.8242L11.8264 18.8316C11.8264 18.8316 11.7932 18.8353 11.7785 18.839H11.7711C11.6346 18.8611 11.4945 18.8759 11.3543 18.8869H11.3433L11.2621 18.8943C11.2216 18.898 11.181 18.9017 11.1404 18.9017C9.75003 19.0049 8.35224 18.8058 7.04666 18.3116L7.05035 18.319ZM10.1004 15.9918C13.6926 16.1688 16.75 13.4064 16.9344 9.81422C16.9381 9.70358 16.9418 9.59294 16.9418 9.48598C16.9344 6.01918 14.2163 3.1646 10.7569 2.98757C10.6425 2.98019 10.5319 2.98019 10.4213 2.98019C6.82537 2.98757 3.91547 5.90485 3.91916 9.50074C3.92285 12.9639 6.64097 15.8147 10.0967 15.9918H10.1004ZM9.89386 20.1409C9.79797 20.1372 9.70208 20.1298 9.59882 20.1224V23.1762H11.2658V20.1151C10.8085 20.1556 10.3512 20.1667 9.89386 20.1446V20.1409ZM12.2542 24.3785H8.60672C8.56984 24.3785 8.54402 24.4117 8.54402 24.4449V34.908C8.54402 34.9412 8.56984 34.9707 8.60672 34.9707H12.2542C12.2911 34.9707 12.3169 34.9412 12.3169 34.908V24.4449C12.3169 24.408 12.2874 24.3785 12.2542 24.3785ZM36.7763 1.06239V15.4127C36.7763 15.9991 36.3043 16.4749 35.7179 16.4749H27.4787C27.4344 16.3311 27.3865 16.1909 27.3348 16.0471L28.397 15.2652L29.2526 14.6346C29.8059 14.2289 29.9239 13.4544 29.5219 12.9012L27.9397 10.7621C27.534 10.2088 26.7595 10.0871 26.2026 10.4928L24.2848 11.9091C23.7611 11.5071 23.1931 11.1641 22.592 10.8875L22.946 8.52708C23.0456 7.84847 22.5809 7.2215 21.9023 7.11454L20.7885 6.94489H20.7848C20.7848 6.94489 20.7811 6.90801 20.7774 6.89326C20.7663 6.85269 20.7553 6.81581 20.7442 6.77893C20.7037 6.62403 20.6594 6.46544 20.6115 6.31423C20.593 6.24415 20.5709 6.17777 20.5414 6.10769C20.4971 5.96755 20.4492 5.83109 20.3975 5.69463C20.3607 5.59136 20.3164 5.48441 20.2721 5.38483C20.2574 5.34057 20.2353 5.29631 20.2205 5.25206C20.1799 5.15985 20.1357 5.06765 20.0951 4.97545C19.9587 4.69147 19.8148 4.41117 19.6562 4.13825C19.6194 4.06818 19.5788 4.00548 19.5382 3.94279C19.4792 3.84321 19.4128 3.73625 19.3464 3.63667C19.3243 3.60348 19.3022 3.57029 19.2764 3.5371C19.2137 3.43752 19.1436 3.33425 19.0698 3.23836C19.0293 3.18304 18.985 3.12034 18.9407 3.06502C18.8227 2.91381 18.7084 2.7626 18.583 2.61876C18.4687 2.4823 18.3543 2.34953 18.2289 2.22045C18.1294 2.1098 18.0187 1.99547 17.9081 1.89221C17.8564 1.8332 17.7974 1.77788 17.7384 1.72624C17.6278 1.61929 17.5098 1.51233 17.3881 1.41276C16.7906 0.896424 16.1378 0.450165 15.4407 0.077668C15.3928 0.0518514 15.3449 0.0260348 15.2969 0.00390625H35.7105C36.2969 0.00390625 36.7727 0.47967 36.7727 1.06608L36.7763 1.06239ZM33.9808 13.1372C33.9808 12.8053 33.7115 12.536 33.3796 12.5323H30.6799C30.348 12.525 30.0714 12.7868 30.0603 13.1224C30.053 13.4544 30.3148 13.731 30.6504 13.742C30.6615 13.742 30.6689 13.742 30.6799 13.742H33.3796C33.7115 13.742 33.9808 13.4728 33.9845 13.1409L33.9808 13.1372ZM33.9808 9.86954C33.9808 9.53762 33.7115 9.26839 33.3796 9.2647H28.4044C28.0725 9.27207 27.8069 9.54868 27.8143 9.8843C27.8217 10.2052 28.0798 10.4633 28.4044 10.4744H33.3796C33.7115 10.4744 33.9808 10.2052 33.9845 9.87323L33.9808 9.86954ZM33.9808 6.60559C33.9808 6.27366 33.7115 6.00443 33.3796 6.00074H24.5688C24.2368 5.99336 23.9602 6.25522 23.9492 6.59083C23.9418 6.92276 24.2036 7.19937 24.5393 7.21043C24.5503 7.21043 24.5577 7.21043 24.5688 7.21043H33.3796C33.7115 7.21043 33.9808 6.9412 33.9845 6.60927L33.9808 6.60559ZM33.9808 3.34163C33.9808 3.0097 33.7115 2.73678 33.3796 2.73678H24.5688C24.2368 2.7294 23.9602 2.99126 23.9492 3.32687C23.9418 3.6588 24.2036 3.93541 24.5393 3.94647C24.5503 3.94647 24.5577 3.94647 24.5688 3.94647H33.3796C33.7115 3.94647 33.9808 3.67724 33.9845 3.34531L33.9808 3.34163Z" fill="white"/>
</svg>
