<svg width="36" height="36" viewBox="0 0 36 36" fill="none" xmlns="http://www.w3.org/2000/svg">
<path d="M35.4242 35.72H0V32.7621C1.00709 32.7128 1.92967 32.6635 2.92267 32.6071C2.98606 31.5648 3.0424 30.6352 3.09874 29.5788C4.14104 29.5013 5.11292 29.438 6.19748 29.3605C6.68342 24.4729 7.16935 19.6699 7.64121 14.8669C7.76797 13.5781 7.8877 12.2893 8.00742 11.0005C8.19757 9.0708 8.86662 8.40176 10.7752 8.38767C15.4162 8.36654 20.0573 8.36654 24.6984 8.38767C26.5858 8.39471 27.2689 9.08489 27.459 11.0146C28.0295 16.8388 28.5929 22.663 29.1634 28.4802C29.1915 28.7478 29.276 29.0154 29.3465 29.3605C30.3254 29.4239 31.255 29.4873 32.3255 29.5577C32.4029 30.5718 32.4734 31.5507 32.5579 32.6353H35.4101V35.72H35.4242ZM11.1414 11.5075C10.5428 17.543 9.95822 23.3884 9.36664 29.3535H25.9942C26.0294 29.114 26.0928 28.952 26.0787 28.7971C25.5294 23.3743 25.0012 17.9515 24.3814 12.5358C24.3392 12.1555 23.656 11.5498 23.2617 11.5428C19.3037 11.4723 15.3388 11.5005 11.1414 11.5005V11.5075Z" fill="white"/>
<path d="M16.8252 0H18.6704V6.16226H16.8252V0Z" fill="white"/>
<path d="M32.2264 2.28174C32.501 2.58457 32.8743 3.00008 33.2405 3.40151C31.8179 4.78186 30.4376 6.11995 28.9375 7.57776C28.7121 7.33127 28.3037 6.88759 27.9727 6.52842C29.353 5.14807 30.677 3.82406 32.2264 2.28174Z" fill="white"/>
<path d="M2.02148 3.49323C2.52151 2.99321 2.94406 2.5777 3.44409 2.08472C4.8526 3.59887 6.13436 4.97922 7.54287 6.49338C7.16962 6.79621 6.66959 7.21172 6.26816 7.54272C4.9019 6.23984 3.53564 4.93696 2.02148 3.50028V3.49323Z" fill="white"/>
<path d="M0.0566406 14.7825H5.00758V16.7121H0.0566406V14.7825Z" fill="white"/>
<path d="M30.4385 16.7051V14.8247H35.4739C35.5021 15.4022 35.5303 15.9867 35.5584 16.7051H30.4385Z" fill="white"/>
<path d="M20.2686 13.7261H22.3461C22.7968 18.2263 23.2405 22.6631 23.7053 27.2267H21.5644C21.1418 22.7828 20.7122 18.339 20.2686 13.7261Z" fill="white"/>
</svg>
