<svg width="34" height="35" viewBox="0 0 34 35" fill="none" xmlns="http://www.w3.org/2000/svg">
<g clip-path="url(#clip0_1430_1220)">
<path d="M0.0544141 34.8031C0.0544141 29.6833 -0.0139413 24.7617 0.0817563 19.8401C0.136441 17.1196 2.10508 14.9322 4.75043 14.2828C7.24541 13.6676 9.89076 14.7887 11.3262 17.0717C12.2764 18.5756 13.6777 18.7191 14.9901 17.434C16.4461 16.0122 17.8883 14.5768 19.3307 13.1345C20.2124 12.2527 20.0279 11.4529 18.8795 11.0223C18.0182 10.701 16.5964 10.5096 16.4324 9.95594C16.0633 8.71187 16.2683 7.27641 16.3435 5.92297C16.3572 5.68373 16.8357 5.34878 17.1501 5.27359C22.4545 3.91332 27.7657 2.58722 33.0838 1.26796C33.3367 1.20644 33.6238 1.28847 33.9997 1.31581V14.6793C31.9901 14.2008 30.1718 13.6881 28.3126 13.36C27.7247 13.2575 27.0206 13.5856 26.4191 13.8454C25.5988 14.194 24.8196 14.6656 23.8079 15.192C23.0218 16.1558 22.0033 17.4409 20.937 18.6849C20.4243 19.2865 19.775 19.7718 19.276 20.3801C17.4987 22.547 15.4412 24.0508 12.2217 23.1827V34.81H0.0544141V34.8031ZM20.7593 11.4871C22.2494 13.5173 24.8674 14.0094 25.551 12.6218C24.0677 12.2732 22.6117 11.9246 20.7593 11.4871Z" fill="white"/>
<path d="M6.08328 0.222168C9.48054 0.222168 12.2011 3.00423 12.1601 6.42201C12.1122 9.76459 9.40535 12.451 6.08328 12.4441C2.69285 12.4441 -0.0482083 9.64838 -0.000359503 6.24428C0.0474893 2.9017 2.7612 0.222168 6.08328 0.222168Z" fill="white"/>
<path d="M15.2295 5.72485H15.6601V9.90821H15.2295C14.9287 9.90821 14.6826 9.66213 14.6826 9.36136V6.26486C14.6826 5.9641 14.9287 5.71802 15.2295 5.71802V5.72485Z" fill="white"/>
</g>
<defs>
<clipPath id="clip0_1430_1220">
<rect width="34" height="34.581" fill="white" transform="translate(0 0.222168)"/>
</clipPath>
</defs>
</svg>
