<svg width="54" height="46" viewBox="0 0 54 46" fill="none" xmlns="http://www.w3.org/2000/svg">
<g filter="url(#filter0_d_2564_3524)">
<path d="M27 22.2821C29.6236 22.2821 31.8801 19.9393 31.8801 16.8886C31.8801 13.8747 29.6113 11.6421 27 11.6421C24.3887 11.6421 22.1191 13.924 22.1191 16.9132C22.1191 19.9393 24.3764 22.2821 27 22.2821ZM12.956 22.5622C15.2256 22.5622 17.2028 20.5127 17.2028 17.8652C17.2028 15.2416 15.2133 13.3014 12.956 13.3014C10.6864 13.3014 8.68543 15.2901 8.69775 17.8891C8.69775 20.5127 10.6741 22.563 12.956 22.563M41.044 22.563C43.3259 22.563 45.3022 20.5135 45.3022 17.8899C45.3022 15.2909 43.3136 13.3022 41.044 13.3022C38.7867 13.3022 36.7972 15.2424 36.7972 17.8652C36.7972 20.5135 38.7744 22.563 41.044 22.563ZM6.14721 33.5808H15.4211C14.152 31.7383 15.7013 28.0288 18.3249 26.0031C16.9695 25.1004 15.2256 24.4293 12.9445 24.4293C7.44014 24.4293 4 28.4921 4 31.8722C4 32.9705 4.61032 33.5808 6.14721 33.5808ZM47.8528 33.5808C49.402 33.5808 50 32.9705 50 31.8722C50 28.4921 46.559 24.4293 41.0563 24.4293C38.7744 24.4293 37.0296 25.1004 35.6759 26.0031C38.2988 28.0288 39.8488 31.7383 38.5797 33.5808H47.8528ZM19.3246 33.5808H34.6623C36.5779 33.5808 37.2613 33.0313 37.2613 31.9577C37.2613 28.8099 33.3201 24.4662 26.9877 24.4662C20.6676 24.4662 16.7264 28.8099 16.7264 31.9577C16.7264 33.0313 17.409 33.5808 19.3246 33.5808Z" fill="#007A47"/>
</g>
<defs>
<filter id="filter0_d_2564_3524" x="0" y="0" width="54" height="54" filterUnits="userSpaceOnUse" color-interpolation-filters="sRGB">
<feFlood flood-opacity="0" result="BackgroundImageFix"/>
<feColorMatrix in="SourceAlpha" type="matrix" values="0 0 0 0 0 0 0 0 0 0 0 0 0 0 0 0 0 0 127 0" result="hardAlpha"/>
<feOffset dy="4"/>
<feGaussianBlur stdDeviation="2"/>
<feComposite in2="hardAlpha" operator="out"/>
<feColorMatrix type="matrix" values="0 0 0 0 0 0 0 0 0 0 0 0 0 0 0 0 0 0 0.25 0"/>
<feBlend mode="normal" in2="BackgroundImageFix" result="effect1_dropShadow_2564_3524"/>
<feBlend mode="normal" in="SourceGraphic" in2="effect1_dropShadow_2564_3524" result="shape"/>
</filter>
</defs>
</svg>
