<svg width="68" height="68" viewBox="0 0 68 68" fill="none" xmlns="http://www.w3.org/2000/svg">
<circle cx="34" cy="34" r="34" fill="#222D55"/>
<path d="M43 39.5468C42.4122 38.9591 41.5306 38.6652 40.7224 38.8489L39.0694 37.2325C40.5387 35.3223 41.3469 32.9713 41.3469 30.5468C41.3836 24.4121 36.4245 19.453 30.3265 19.4162C24.2285 19.3795 19.2694 24.3387 19.2326 30.4366C19.1959 36.5346 24.1551 41.4938 30.253 41.5305C32.6775 41.5305 35.0653 40.7223 37.0122 39.253L38.6285 40.8693C38.4816 41.7142 38.7387 42.5591 39.3265 43.1836L43.9183 47.7754C44.9102 48.7672 46.5632 48.7672 47.5551 47.7754C48.5469 46.7836 48.5469 45.1305 47.5551 44.1387L43 39.5468ZM30.3265 39.3264C25.4408 39.3264 21.5102 35.3958 21.5102 30.5101C21.5102 25.6244 25.4408 21.6938 30.3265 21.6938C35.2122 21.6938 39.1428 25.6244 39.1428 30.5101C39.1428 35.3591 35.1755 39.3264 30.3265 39.3264Z" fill="white"/>
<path d="M38.2246 29.9589H36.1307C35.9471 29.9957 35.7634 30.1059 35.6532 30.2528L34.2573 31.7589L33.0818 27.6814C32.9716 27.3508 32.6042 27.1304 32.2736 27.2406C32.0899 27.3141 31.9063 27.4243 31.8328 27.6447L29.6287 33.4855L28.1226 25.4038C28.0491 25.0365 27.7185 24.8161 27.3879 24.8896C27.1675 24.9263 26.9838 25.11 26.8736 25.3304L25.294 29.9589H22.4287V31.4283H25.7716C26.0654 31.3916 26.3226 31.1712 26.3961 30.8773L27.3144 28.0855L28.7838 35.9834C28.8205 36.2773 29.0777 36.4977 29.3716 36.4977H29.445C29.7022 36.4977 29.9593 36.3508 30.0695 36.0936L32.4206 29.9222L33.3756 33.2283C33.4858 33.5589 33.8165 33.7794 34.1838 33.6692C34.294 33.6324 34.4042 33.559 34.4777 33.4855L36.4614 31.4283H38.2614V29.9589H38.2246Z" fill="white"/>
</svg>
