<svg width="68" height="68" viewBox="0 0 68 68" fill="none" xmlns="http://www.w3.org/2000/svg">
<circle cx="34" cy="34" r="34" fill="#C90000"/>
<path d="M44.4096 25.1575C40.6217 24.8558 37.0892 23.1272 34.5267 20.3215C34.0435 19.7615 33.1982 19.6993 32.6382 20.1826C32.5885 20.2254 32.5421 20.2718 32.4992 20.3215C29.9367 23.1272 26.4042 24.8558 22.6164 25.1575C21.9125 25.2236 21.376 25.8172 21.3814 26.524V29.9715C21.3814 37.4665 26.1482 44.3225 32.7667 48.565C33.2214 48.8572 33.8046 48.8572 34.2592 48.565C40.8778 44.3215 45.6446 37.4665 45.6446 29.9715V26.524C45.65 25.8172 45.1135 25.2236 44.4096 25.1575ZM43.3232 29.9715C43.3232 35.9358 39.77 41.9525 33.8182 46.07L33.5132 46.2811L33.2085 46.07C27.2564 41.9522 23.7025 35.934 23.7025 29.9715V27.3818L24.1539 27.3104C27.5171 26.7786 30.6475 25.2625 33.15 22.9533L33.5128 22.619L33.876 22.9533C36.3785 25.2625 39.5085 26.7786 42.8717 27.3104L43.3232 27.3818V29.9715Z" fill="white"/>
<path d="M33.5129 24.0671C31.0332 26.2357 28.0139 27.6946 24.7739 28.29V29.9714C24.7739 35.4811 28.0336 41.0654 33.5132 44.975C38.9921 41.0661 42.2518 35.4814 42.2518 29.9714V28.29C39.0118 27.6946 35.9925 26.2357 33.5129 24.0671ZM32.5957 38.0118L28.9843 34.4L30.2114 33.1729L32.5957 35.5571L37.4786 30.6743L38.7057 31.9018L32.5957 38.0118Z" fill="white"/>
</svg>
