<svg width="258" height="122" viewBox="0 0 258 122" fill="none" xmlns="http://www.w3.org/2000/svg">
<rect x="0.5" y="0.5" width="257" height="121" rx="14.5" fill="white" stroke="url(#paint0_linear_2564_2328)"/>
<g clip-path="url(#clip0_2564_2328)">
<path d="M81.2904 48.4199L73.001 59.4025H77.3742L79.1223 57.1479H86.5099L88.1468 59.4025H92.5756L84.5086 48.4199H81.2904ZM80.3083 55.474L82.6493 51.5887H82.7049L85.3548 55.474H80.3083Z" fill="#222D55"/>
<path d="M106.728 48.7051H102.577V59.4035H112.59V57.5875H106.728V48.7051Z" fill="#222D55"/>
<path d="M121.131 50.5211H125.418V59.4035H129.562V50.5211H133.849V48.7051H121.131V50.5211Z" fill="#222D55"/>
<path d="M144.117 59.4035H155.112V57.5875H148.262V54.6905H154.859V52.8745H148.262V50.5211H155.112V48.7051H144.117V59.4035Z" fill="#222D55"/>
<path d="M180.857 48.7041V55.9002H180.802L169.603 48.4199H166.613V59.4025H170.758V52.1261H170.814L182.012 59.6125H185.002V48.7041H180.857Z" fill="#222D55"/>
<path d="M99.8201 74.5362V75.3392H93.6309V66.1294H99.7028V66.9324H94.5265V70.2556H99.0418V71.0215H94.5265V74.5362H99.8201Z" fill="#222D55"/>
<path d="M102.484 67.8157V75.3392H101.588V66.1294H102.286L108.383 73.795V66.1417H109.278V75.3392H108.5L102.484 67.8157Z" fill="#222D55"/>
<path d="M114.937 75.3392V66.1294H120.966V66.9324H115.826V70.3173H120.175V71.0709H115.826V75.3392H114.931H114.937Z" fill="#222D55"/>
<path d="M122.521 75.3392V66.1294H126.401C126.796 66.1294 127.167 66.2159 127.506 66.3826C127.846 66.5494 128.13 66.7718 128.377 67.0436C128.624 67.3154 128.81 67.6242 128.939 67.9701C129.075 68.316 129.143 68.6681 129.143 69.0202C129.143 69.3723 129.094 69.6811 128.995 69.99C128.896 70.2988 128.754 70.5706 128.575 70.8177C128.396 71.0648 128.18 71.2686 127.926 71.4415C127.673 71.6083 127.395 71.7257 127.086 71.7875L129.353 75.3392H128.328L126.147 71.9419H123.423V75.3392H122.528H122.521ZM123.417 71.1389H126.438C126.703 71.1389 126.95 71.0833 127.173 70.9659C127.395 70.8486 127.58 70.6941 127.735 70.4903C127.889 70.2926 128.013 70.0641 128.099 69.817C128.186 69.5638 128.229 69.3043 128.229 69.0264C128.229 68.7484 128.18 68.4828 128.081 68.2295C127.982 67.9763 127.846 67.7539 127.679 67.5624C127.512 67.371 127.309 67.2227 127.08 67.1115C126.852 67.0003 126.611 66.9447 126.357 66.9447H123.411V71.1451L123.417 71.1389Z" fill="#222D55"/>
<path d="M130.007 75.3392L133.861 66.1294H134.602L138.457 75.3392H137.481L136.289 72.4607H132.15L130.97 75.3392H130.013H130.007ZM134.238 67.1918L132.342 71.7442H136.079L134.238 67.1918Z" fill="#222D55"/>
<path d="M140.681 67.8157V75.3392H139.785V66.1294H140.483L146.58 73.795V66.1417H147.475V75.3392H146.697L140.681 67.8157Z" fill="#222D55"/>
<path d="M149.219 70.6695C149.219 70.1136 149.318 69.5639 149.509 69.0141C149.707 68.4644 149.985 67.9764 150.361 67.544C150.732 67.1116 151.189 66.7595 151.739 66.4878C152.283 66.216 152.9 66.0801 153.592 66.0801C154.414 66.0801 155.112 66.2654 155.692 66.636C156.273 67.0066 156.705 67.4946 156.989 68.0876L156.26 68.5261C156.112 68.2235 155.933 67.9702 155.729 67.7602C155.525 67.5502 155.297 67.3834 155.056 67.2537C154.815 67.124 154.562 67.0313 154.302 66.9757C154.043 66.9201 153.79 66.8893 153.536 66.8893C152.981 66.8893 152.493 67.0004 152.072 67.229C151.646 67.4514 151.294 67.7478 151.004 68.1123C150.714 68.4767 150.497 68.8844 150.349 69.3415C150.201 69.7924 150.127 70.2557 150.127 70.7251C150.127 71.2378 150.213 71.7258 150.392 72.1891C150.571 72.6585 150.812 73.0662 151.121 73.4244C151.43 73.7827 151.788 74.0668 152.208 74.283C152.628 74.493 153.086 74.5981 153.58 74.5981C153.839 74.5981 154.105 74.5672 154.376 74.4992C154.648 74.4313 154.914 74.3324 155.167 74.1904C155.42 74.0483 155.655 73.8692 155.871 73.6592C156.087 73.4491 156.267 73.1897 156.415 72.887L157.168 73.2762C157.02 73.6221 156.816 73.9248 156.545 74.1904C156.279 74.456 155.976 74.6784 155.649 74.8575C155.322 75.0366 154.969 75.1787 154.605 75.2713C154.241 75.364 153.876 75.4134 153.524 75.4134C152.894 75.4134 152.313 75.2775 151.788 74.9996C151.263 74.7216 150.806 74.3633 150.423 73.9186C150.04 73.4739 149.744 72.9673 149.534 72.3991C149.324 71.8308 149.219 71.2563 149.219 70.6695Z" fill="#222D55"/>
<path d="M164.937 74.5362V75.3392H158.748V66.1294H164.82V66.9324H159.644V70.2556H164.159V71.0215H159.644V74.5362H164.937Z" fill="#222D55"/>
</g>
<defs>
<linearGradient id="paint0_linear_2564_2328" x1="-19.0055" y1="61" x2="176.751" y2="61" gradientUnits="userSpaceOnUse">
<stop stop-color="#7DB1FF"/>
<stop offset="1" stop-color="#97E6FF"/>
</linearGradient>
<clipPath id="clip0_2564_2328">
<rect width="112" height="26.9993" fill="white" transform="translate(73 48.4199)"/>
</clipPath>
</defs>
</svg>
