<svg width="34" height="34" viewBox="0 0 34 34" fill="none" xmlns="http://www.w3.org/2000/svg">
<path d="M13.6001 14.7242C13.6001 13.8225 13.9583 12.9577 14.5959 12.3201C15.2336 11.6824 16.0984 11.3242 17.0001 11.3242C17.9018 11.3242 18.7666 11.6824 19.4043 12.3201C20.0419 12.9577 20.4001 13.8225 20.4001 14.7242C20.4001 15.626 20.0419 16.4908 19.4043 17.1284C18.7666 17.766 17.9018 18.1242 17.0001 18.1242C16.0984 18.1242 15.2336 17.766 14.5959 17.1284C13.9583 16.4908 13.6001 15.626 13.6001 14.7242Z" fill="#007A47"/>
<path fill-rule="evenodd" clip-rule="evenodd" d="M2.2666 14.7243C2.2684 10.8181 3.82153 7.07263 6.58444 4.31142C9.34734 1.55022 13.0938 -0.000601278 16.9999 1.7488e-07C25.135 1.7488e-07 31.7333 6.59373 31.7333 14.7243C31.7333 20.7853 28.7005 25.5884 25.4501 28.8343C24.0132 30.2774 22.4029 31.5367 20.6561 32.5833C19.9262 33.014 19.2439 33.354 18.6501 33.5852C18.0902 33.8073 17.5031 33.9796 16.9999 33.9796C16.4967 33.9796 15.9097 33.8073 15.3498 33.5852C14.6565 33.3031 13.9858 32.9681 13.3438 32.5833C11.597 31.5366 9.9867 30.2773 8.5498 28.8343C5.2994 25.5884 2.2666 20.7853 2.2666 14.7243ZM16.9999 9.05987C15.497 9.05987 14.0557 9.65689 12.993 10.7196C11.9303 11.7823 11.3333 13.2236 11.3333 14.7265C11.3333 16.2294 11.9303 17.6708 12.993 18.7335C14.0557 19.7962 15.497 20.3932 16.9999 20.3932C18.5028 20.3932 19.9442 19.7962 21.0069 18.7335C22.0696 17.6708 22.6666 16.2294 22.6666 14.7265C22.6666 13.2236 22.0696 11.7823 21.0069 10.7196C19.9442 9.65689 18.5028 9.05987 16.9999 9.05987Z" fill="#007A47"/>
</svg>
