<svg width="30" height="29" viewBox="0 0 30 29" fill="none" xmlns="http://www.w3.org/2000/svg">
<g clip-path="url(#clip0_2564_2593)">
<path d="M14.7422 0C6.74707 0 0.242188 6.50488 0.242188 14.5C0.242188 22.4951 6.74707 29 14.7422 29C22.7373 29 29.2422 22.4951 29.2422 14.5C29.2422 6.50488 22.7373 0 14.7422 0ZM14.7422 26.4848C8.13356 26.4848 2.75737 21.1086 2.75737 14.5C2.75737 7.89137 8.13356 2.51518 14.7422 2.51518C21.3508 2.51518 26.727 7.89137 26.727 14.5C26.727 21.1086 21.3508 26.4848 14.7422 26.4848Z" fill="#222D55"/>
<path d="M13.4842 14.3772L8.2998 18.98L9.96925 20.8601L15.9994 15.5059V4.2002H13.4842V14.3772Z" fill="#222D55"/>
</g>
<defs>
<clipPath id="clip0_2564_2593">
<rect width="29" height="29" fill="white" transform="translate(0.242188)"/>
</clipPath>
</defs>
</svg>
