<svg width="138" height="138" viewBox="0 0 138 138" fill="none" xmlns="http://www.w3.org/2000/svg">
<g clip-path="url(#clip0_2487_2426)">
<path d="M119.394 100.796V1.39478H1.39478V119.394H32.8309L32.6473 120.788H0V0H120.788V102.191L119.394 100.796Z" fill="#007A47"/>
<path d="M39.8213 125.8H45.4911L42.6969 119.712L39.8213 125.8Z" fill="#222D55"/>
<path d="M30.5459 30.5458V138H138V30.5458H30.5459ZM48.5967 132.546L46.1047 127.093H39.2308L36.6527 132.546H35.0139L43.0083 115.581H43.8475L51.6536 132.546H48.5967ZM71.6711 128.667C71.3317 129.222 70.9249 129.761 70.46 130.271C69.9951 130.782 69.4488 131.24 68.8397 131.635C68.2283 132.03 67.5286 132.349 66.7615 132.581C65.992 132.814 65.1249 132.932 64.1788 132.932C62.8119 132.932 61.5543 132.7 60.4385 132.244C59.3226 131.789 58.3533 131.161 57.5559 130.382C56.7586 129.601 56.1332 128.678 55.6985 127.634C55.2638 126.593 55.0406 125.475 55.0406 124.313C55.0406 123.541 55.1406 122.776 55.3405 122.041C55.5404 121.307 55.831 120.607 56.2099 119.965C56.5865 119.322 57.0538 118.724 57.5978 118.189C58.1417 117.655 58.7647 117.187 59.4482 116.802C60.1316 116.416 60.8918 116.114 61.7031 115.902C62.5144 115.69 63.3931 115.583 64.3113 115.583C65.2295 115.583 66.0153 115.704 66.7592 115.941C67.503 116.179 68.1888 116.495 68.7979 116.885C69.4069 117.276 69.9602 117.731 70.4367 118.243C70.9133 118.752 71.3271 119.291 71.6665 119.847L71.7246 119.942L70.3252 120.865L70.267 120.751C69.5952 119.449 68.8351 118.485 68.0075 117.887C67.1846 117.292 66.2245 116.99 65.1505 116.99C64.2253 116.99 63.3466 117.162 62.5423 117.499C61.7379 117.836 61.0266 118.327 60.4268 118.952C59.8271 119.58 59.3505 120.354 59.0088 121.251C58.6648 122.151 58.4927 123.18 58.4927 124.313C58.4927 125.445 58.6648 126.458 59.0042 127.351C59.3436 128.241 59.8131 129.004 60.4036 129.62C60.9941 130.233 61.7007 130.71 62.5051 131.035C63.3094 131.361 64.1974 131.526 65.1389 131.526C65.6968 131.526 66.2431 131.417 66.7592 131.203C67.2822 130.987 67.7727 130.698 68.219 130.35C68.6677 129.999 69.0745 129.599 69.4279 129.159C69.7835 128.72 70.0764 128.269 70.3019 127.816L70.36 127.7L71.7246 128.571L71.6642 128.669L71.6711 128.667ZM93.8064 128.667C93.467 129.222 93.0602 129.761 92.5952 130.271C92.1303 130.782 91.584 131.24 90.975 131.635C90.3636 132.03 89.6639 132.349 88.8967 132.581C88.1273 132.814 87.2602 132.932 86.314 132.932C84.9472 132.932 83.6895 132.7 82.5737 132.244C81.4579 131.789 80.4885 131.161 79.6911 130.382C78.8938 129.601 78.2685 128.678 77.8338 127.634C77.3967 126.593 77.1759 125.475 77.1759 124.313C77.1759 123.541 77.2758 122.778 77.4758 122.041C77.6757 121.307 77.9686 120.607 78.3452 119.965C78.7241 119.322 79.1913 118.724 79.733 118.189C80.277 117.655 80.9 117.187 81.5834 116.802C82.2668 116.416 83.027 116.114 83.8383 115.902C84.6496 115.69 85.5283 115.583 86.4466 115.583C87.3648 115.583 88.1505 115.704 88.8944 115.941C89.636 116.179 90.3217 116.495 90.9331 116.885C91.5422 117.276 92.0954 117.731 92.572 118.243C93.0485 118.752 93.4623 119.291 93.8017 119.847L93.8598 119.942L92.4604 120.865L92.4023 120.751C91.7305 119.449 90.9703 118.485 90.1427 117.887C89.3198 117.292 88.3574 116.99 87.2858 116.99C86.3605 116.99 85.4818 117.162 84.6775 117.499C83.8732 117.836 83.1618 118.327 82.5644 118.952C81.9646 119.58 81.4881 120.354 81.144 121.251C80.8023 122.151 80.628 123.18 80.628 124.313C80.628 125.445 80.8 126.458 81.1394 127.351C81.4788 128.241 81.9484 129.004 82.5388 129.62C83.1293 130.233 83.836 130.71 84.6403 131.035C85.4446 131.361 86.3303 131.526 87.2741 131.526C87.832 131.526 88.3783 131.417 88.8944 131.203C89.4174 130.987 89.9079 130.698 90.3543 130.35C90.8006 129.999 91.2074 129.599 91.5631 129.159C91.9188 128.72 92.2117 128.267 92.4372 127.816L92.4953 127.7L93.8598 128.571L93.7994 128.669L93.8064 128.667ZM107.271 125.396V132.546H104.286V125.654L97.642 115.951H100.736L100.771 116.002L106.35 124.154L111.941 115.953H113.715L107.268 125.396H107.271ZM131.361 129.787C131.087 130.338 130.691 130.826 130.182 131.233C129.676 131.64 129.057 131.963 128.344 132.198C127.632 132.43 126.826 132.549 125.945 132.549H118.19V115.953H124.896C125.775 115.953 126.591 116.051 127.325 116.246C128.062 116.441 128.706 116.723 129.236 117.083C129.771 117.446 130.192 117.885 130.487 118.392C130.784 118.901 130.936 119.468 130.936 120.079C130.936 120.54 130.889 120.956 130.796 121.318C130.703 121.686 130.533 122.03 130.294 122.341C130.057 122.65 129.738 122.946 129.35 123.218C129.02 123.448 128.611 123.687 128.132 123.927C128.616 124.022 129.064 124.166 129.464 124.357C129.943 124.585 130.359 124.875 130.701 125.226C131.042 125.577 131.312 125.993 131.496 126.46C131.682 126.928 131.775 127.448 131.775 128.002C131.775 128.634 131.635 129.234 131.361 129.787Z" fill="#222D55"/>
<path d="M127.565 125.591C127.204 125.277 126.726 125.026 126.137 124.843C125.547 124.659 124.81 124.564 123.945 124.564H121.174V131.117H124.031C124.817 131.117 125.505 131.04 126.082 130.891C126.653 130.743 127.13 130.533 127.5 130.268C127.865 130.006 128.139 129.687 128.313 129.32C128.49 128.95 128.581 128.539 128.581 128.099C128.581 127.597 128.499 127.125 128.341 126.695C128.183 126.272 127.923 125.9 127.565 125.589V125.591Z" fill="#222D55"/>
<path d="M125.991 123.092C126.402 122.941 126.753 122.732 127.037 122.469C127.318 122.206 127.537 121.888 127.681 121.525C127.827 121.158 127.902 120.756 127.902 120.328C127.902 119.87 127.813 119.449 127.641 119.075C127.469 118.705 127.197 118.382 126.832 118.115C126.463 117.845 125.986 117.636 125.417 117.492C124.84 117.348 124.138 117.273 123.329 117.273H121.174V123.322H124.564C125.098 123.322 125.58 123.245 125.991 123.094V123.092Z" fill="#222D55"/>
</g>
<defs>
<clipPath id="clip0_2487_2426">
<rect width="138" height="138" fill="white"/>
</clipPath>
</defs>
</svg>
