<svg width="53" height="53" viewBox="0 0 53 53" fill="none" xmlns="http://www.w3.org/2000/svg">
<g clip-path="url(#clip0_1856_4737)">
<path d="M45.854 38.7117V0.535678H0.535678V45.854H12.609L12.5384 46.3897H0V0H46.3897V39.2474L45.854 38.7117Z" fill="#007A47"/>
<path d="M15.2935 48.3148H17.471L16.3978 45.9766L15.2935 48.3148Z" fill="#222D55"/>
<path d="M11.7314 11.7314V53.0001H53.0001V11.7314H11.7314ZM18.664 50.9056L17.7069 48.8111H15.0669L14.0768 50.9056H13.4474L16.5177 44.39H16.84L19.838 50.9056H18.664ZM27.5259 49.4155C27.3956 49.6289 27.2393 49.836 27.0608 50.0315C26.8822 50.228 26.6724 50.4038 26.4385 50.5556C26.2037 50.7074 25.935 50.8297 25.6403 50.919C25.3448 51.0083 25.0118 51.0538 24.6484 51.0538C24.1235 51.0538 23.6405 50.9645 23.2119 50.7895C22.7834 50.6145 22.4111 50.3735 22.1049 50.0744C21.7986 49.7744 21.5585 49.42 21.3915 49.0191C21.2246 48.6191 21.1388 48.1897 21.1388 47.7433C21.1388 47.4469 21.1772 47.1532 21.254 46.871C21.3308 46.5889 21.4424 46.3202 21.5879 46.0738C21.7326 45.8265 21.912 45.597 22.1209 45.3917C22.3298 45.1863 22.5691 45.0069 22.8316 44.8587C23.0941 44.7105 23.386 44.5944 23.6976 44.5132C24.0092 44.4319 24.3467 44.3909 24.6993 44.3909C25.052 44.3909 25.3537 44.4373 25.6394 44.5283C25.9251 44.6194 26.1885 44.7408 26.4224 44.8908C26.6563 45.0408 26.8688 45.2158 27.0518 45.4122C27.2349 45.6077 27.3938 45.8149 27.5241 46.0282L27.5465 46.0648L27.009 46.4193L26.9867 46.3755C26.7286 45.8756 26.4367 45.5051 26.1189 45.2756C25.8028 45.0471 25.4341 44.931 25.0216 44.931C24.6663 44.931 24.3288 44.9971 24.0199 45.1265C23.711 45.256 23.4378 45.4444 23.2075 45.6845C22.9771 45.9256 22.7941 46.2229 22.6629 46.5675C22.5307 46.913 22.4647 47.3085 22.4647 47.7433C22.4647 48.1781 22.5307 48.5674 22.6611 48.9102C22.7914 49.2521 22.9718 49.545 23.1985 49.7816C23.4253 50.0173 23.6967 50.2003 24.0056 50.3253C24.3145 50.4503 24.6556 50.5137 25.0172 50.5137C25.2314 50.5137 25.4412 50.4717 25.6394 50.3896C25.8403 50.3065 26.0287 50.1958 26.2001 50.0619C26.3724 49.9271 26.5287 49.7735 26.6644 49.6048C26.801 49.436 26.9135 49.2628 27.0001 49.0887L27.0224 49.0441L27.5465 49.3789L27.5232 49.4164L27.5259 49.4155ZM36.0271 49.4155C35.8968 49.6289 35.7405 49.836 35.562 50.0315C35.3834 50.228 35.1736 50.4038 34.9397 50.5556C34.7049 50.7074 34.4362 50.8297 34.1415 50.919C33.846 51.0083 33.513 51.0538 33.1496 51.0538C32.6247 51.0538 32.1417 50.9645 31.7131 50.7895C31.2846 50.6145 30.9123 50.3735 30.6061 50.0744C30.2998 49.7744 30.0597 49.42 29.8927 49.0191C29.7249 48.6191 29.6401 48.1897 29.6401 47.7433C29.6401 47.4469 29.6784 47.1541 29.7552 46.871C29.832 46.5889 29.9445 46.3202 30.0891 46.0738C30.2347 45.8265 30.4141 45.597 30.6221 45.3917C30.8311 45.1863 31.0703 45.0069 31.3328 44.8587C31.5953 44.7105 31.8872 44.5944 32.1988 44.5132C32.5104 44.4319 32.8479 44.3909 33.2005 44.3909C33.5532 44.3909 33.855 44.4373 34.1406 44.5283C34.4255 44.6194 34.6888 44.7408 34.9236 44.8908C35.1575 45.0408 35.37 45.2158 35.5531 45.4122C35.7361 45.6077 35.895 45.8149 36.0253 46.0282L36.0477 46.0648L35.5102 46.4193L35.4879 46.3755C35.2299 45.8756 34.9379 45.5051 34.6201 45.2756C34.304 45.0471 33.9344 44.931 33.5228 44.931C33.1675 44.931 32.83 44.9971 32.5211 45.1265C32.2122 45.256 31.939 45.4444 31.7096 45.6845C31.4792 45.9256 31.2962 46.2229 31.1641 46.5675C31.0328 46.913 30.9659 47.3085 30.9659 47.7433C30.9659 48.1781 31.0319 48.5674 31.1623 48.9102C31.2926 49.2521 31.473 49.545 31.6997 49.7816C31.9265 50.0173 32.1979 50.2003 32.5068 50.3253C32.8157 50.4503 33.1559 50.5137 33.5184 50.5137C33.7326 50.5137 33.9424 50.4717 34.1406 50.3896C34.3415 50.3065 34.5299 50.1958 34.7013 50.0619C34.8727 49.9271 35.029 49.7735 35.1656 49.6048C35.3022 49.436 35.4147 49.262 35.5013 49.0887L35.5236 49.0441L36.0477 49.3789L36.0245 49.4164L36.0271 49.4155ZM41.1982 48.1593V50.9056H40.0519V48.2584L37.5002 44.5319H38.6886L38.7019 44.5516L40.8447 47.6826L42.9918 44.5328H43.673L41.1973 48.1593H41.1982ZM50.4503 49.8458C50.3449 50.0574 50.1931 50.2449 49.9976 50.4012C49.803 50.5574 49.5655 50.6815 49.2914 50.7717C49.0182 50.861 48.7084 50.9065 48.37 50.9065H45.3917V44.5328H47.9674C48.3049 44.5328 48.6182 44.5703 48.9004 44.6453C49.1834 44.7203 49.4307 44.8283 49.6342 44.9667C49.8396 45.106 50.0012 45.2747 50.1146 45.4694C50.2289 45.6649 50.2869 45.8827 50.2869 46.1175C50.2869 46.2943 50.269 46.4541 50.2333 46.5934C50.1976 46.7344 50.1324 46.8666 50.0405 46.9862C49.9494 47.105 49.8271 47.2183 49.678 47.3228C49.5512 47.4112 49.3941 47.5031 49.2102 47.5951C49.3959 47.6317 49.5682 47.6871 49.7217 47.7603C49.9057 47.8478 50.0655 47.9594 50.1967 48.0942C50.3279 48.229 50.4315 48.3888 50.502 48.5682C50.5735 48.7477 50.6092 48.9477 50.6092 49.1602C50.6092 49.403 50.5556 49.6334 50.4503 49.8458Z" fill="#222D55"/>
<path d="M48.9924 48.2345C48.854 48.1139 48.6701 48.0175 48.4442 47.947C48.2174 47.8764 47.9344 47.8398 47.6023 47.8398H46.5381V50.3566H47.6353C47.9371 50.3566 48.2014 50.3272 48.4228 50.27C48.6424 50.2129 48.8254 50.1325 48.9674 50.0308C49.1076 49.9299 49.2129 49.8076 49.2799 49.6665C49.3477 49.5245 49.3825 49.3665 49.3825 49.1978C49.3825 49.0049 49.3513 48.8237 49.2906 48.6585C49.2299 48.496 49.1299 48.3532 48.9924 48.2336V48.2345Z" fill="#222D55"/>
<path d="M48.388 47.2745C48.546 47.2164 48.6808 47.1361 48.7897 47.0352C48.8977 46.9343 48.9817 46.812 49.037 46.6727C49.0933 46.5317 49.1218 46.3772 49.1218 46.2129C49.1218 46.037 49.0879 45.8755 49.0218 45.7317C48.9558 45.5898 48.8513 45.4657 48.7112 45.363C48.5692 45.2594 48.3862 45.1791 48.1674 45.1237C47.946 45.0684 47.6764 45.0398 47.3657 45.0398H46.5381V47.3629H47.8398C48.0451 47.3629 48.2299 47.3334 48.388 47.2754V47.2745Z" fill="#222D55"/>
</g>
<defs>
<clipPath id="clip0_1856_4737">
<rect width="53" height="53" fill="white"/>
</clipPath>
</defs>
</svg>
