<svg width="23" height="20" viewBox="0 0 23 20" fill="none" xmlns="http://www.w3.org/2000/svg">
<g clip-path="url(#clip0_2564_2917)">
<path d="M6.30335 4.33165H16.6892C16.9203 4.33165 17.1094 4.14259 17.1094 3.91151C17.1094 3.8737 17.1052 3.83589 17.0926 3.80228L16.7312 2.48303C16.3321 1.01674 15.0045 0 13.4878 0H9.50482C7.98812 0 6.66047 1.01674 6.25714 2.47883L5.89581 3.79807C5.83279 4.02075 5.96724 4.25183 6.18991 4.31485C6.22773 4.32325 6.26134 4.33165 6.29915 4.33165H6.30335ZM16.1388 3.49137H6.85374L7.06801 2.70151C7.37051 1.60494 8.36624 0.844483 9.50482 0.840282H13.4878C14.6263 0.840282 15.6221 1.60494 15.9246 2.70151L16.1388 3.49137Z" fill="white"/>
<path d="M11.4972 12.0286C11.535 12.0286 11.5686 12.0244 11.6064 12.016L19.2866 9.99512V19.7046H3.7162V9.99512L11.3964 12.016C11.43 12.0244 11.4678 12.0286 11.5014 12.0286H11.4972ZM8.76629 18.0576H14.2281V17.2173H8.76209V18.0576H8.76629Z" fill="white"/>
<path d="M0.420162 3.51172H22.5784C22.8095 3.51172 22.9985 3.70078 22.9985 3.93186V8.15007L11.4993 11.1751L2.09808e-05 8.15007V3.93186C2.09808e-05 3.70078 0.189083 3.51172 0.420162 3.51172ZM11.4993 9.77182C11.9278 9.77182 12.2765 9.4231 12.2765 8.99456C12.2765 8.56601 11.9278 8.2173 11.4993 8.2173C11.0707 8.2173 10.722 8.56601 10.722 8.99456C10.722 9.4231 11.0707 9.77182 11.4993 9.77182Z" fill="white"/>
<path d="M22.9987 19.2846C22.9987 19.5156 22.8097 19.7047 22.5786 19.7047H20.1292V9.77676L23.0029 9.02051V19.2846H22.9987Z" fill="white"/>
<path d="M2.87207 19.705H0.42265C0.191572 19.705 0.00250888 19.5159 0.00250888 19.2848V9.0166L2.87207 9.77286V19.705Z" fill="white"/>
</g>
<defs>
<clipPath id="clip0_2564_2917">
<rect width="22.9985" height="19.7046" fill="white" transform="matrix(-1 0 0 1 22.9985 0)"/>
</clipPath>
</defs>
</svg>
