<svg width="29" height="20" viewBox="0 0 29 20" fill="none" xmlns="http://www.w3.org/2000/svg">
<g clip-path="url(#clip0_2564_2939)">
<path d="M13.8739 6.59459H27.4955L28.7568 5.94595L14.6667 0L0 6.63063L14.6667 13.2613L25.8378 7.45946H13.8739V6.59459Z" fill="white"/>
<path d="M14.7029 14.2339L4.93713 9.80149L4.07227 9.40509V16.2159L4.25245 16.36C7.63983 18.8105 11.0633 19.9997 14.4506 19.9997C17.838 19.9997 21.2254 18.7745 24.6128 16.324L24.793 16.1799V8.97266L23.9281 9.40509L14.7029 14.2339Z" fill="white"/>
<path d="M28.7557 15.0991L28.1071 13.982C28.2152 13.9099 28.2873 13.8018 28.2873 13.6577C28.2873 13.4775 28.1792 13.3694 28.035 13.2973V7.2793L27.1702 7.74777V13.2973C26.99 13.3334 26.8458 13.4775 26.8458 13.6577C26.8458 13.8018 26.9539 13.946 27.062 14.018L26.4494 15.0991C26.2332 15.4595 26.4855 15.9279 26.9179 15.9279H28.2512C28.6837 15.9279 28.972 15.4595 28.7557 15.0991Z" fill="white"/>
</g>
<defs>
<clipPath id="clip0_2564_2939">
<rect width="28.8288" height="20" fill="white"/>
</clipPath>
</defs>
</svg>
