<svg width="27" height="27" viewBox="0 0 27 27" fill="none" xmlns="http://www.w3.org/2000/svg">
<g clip-path="url(#clip0_2564_2955)">
<path d="M3.72852 12.2747H0C0.197196 9.08315 1.5533 6.07667 3.81347 3.8165C6.07364 1.5533 9.08315 0.197196 12.2747 0V3.72852C10.0722 3.91662 8.00616 4.87833 6.44376 6.44073C4.88136 8.00313 3.91965 10.0691 3.73156 12.2717L3.72852 12.2747ZM22.4015 12.2747H26.13C25.9328 9.08315 24.5767 6.07667 22.3165 3.8165C20.0533 1.5533 17.0438 0.197196 13.8553 0V3.72852C16.0578 3.91662 18.1238 4.87833 19.6862 6.44073C21.2486 8.00313 22.2103 10.0691 22.3984 12.2717L22.4015 12.2747ZM3.72852 13.8523H0C0.197196 17.0438 1.5533 20.0533 3.81347 22.3135C6.07364 24.5737 9.08315 25.9298 12.2717 26.127V22.3984C10.0691 22.2103 8.00313 21.2486 6.44073 19.6862C4.87833 18.1238 3.91662 16.0578 3.72852 13.8553V13.8523ZM13.8432 22.3863V26.1148C17.0347 25.9207 20.0442 24.5676 22.3074 22.3105C24.5706 20.0503 25.9298 17.0468 26.13 13.8553H22.4015C22.2134 16.0578 21.2517 18.1238 19.6893 19.6862C18.1269 21.2486 16.0609 22.2103 13.8583 22.3984L13.8462 22.3863H13.8432ZM13.0635 20.8542C10.9975 20.8542 9.01641 20.0351 7.55413 18.5728C6.09184 17.1106 5.27272 15.1295 5.27272 13.0635C5.27272 10.9975 6.09184 9.01641 7.55413 7.55413C9.01641 6.09184 10.9975 5.27272 13.0635 5.27272C15.1295 5.27272 17.1106 6.09184 18.5728 7.55413C20.0351 9.01641 20.8542 10.9975 20.8542 13.0635C20.8542 15.1295 20.0321 17.1075 18.5698 18.5698C17.1075 20.0291 15.1295 20.8512 13.0635 20.8542ZM11.9167 10.9793C12.3748 10.1389 13.0938 9.5898 13.8826 9.5898C14.8564 9.5898 15.7453 10.4089 16.1458 11.6801L17.6536 11.2038C17.0408 9.25608 15.5633 8.01223 13.8826 8.01223C12.2019 8.01223 10.8306 9.23484 10.1905 10.9884H8.46426V12.569H9.84464C9.84464 12.7358 9.82643 12.9057 9.82643 13.0756C9.82643 13.2455 9.82643 13.4124 9.84464 13.5823H8.46426V15.1629H10.1905C10.8215 16.9164 12.2413 18.139 13.8826 18.139C15.5239 18.139 17.0438 16.8739 17.6536 14.9475L16.1458 14.4712C15.7453 15.7362 14.8564 16.5614 13.8826 16.5614C13.0908 16.5614 12.3748 16.0063 11.9167 15.1629H14.2072V13.5823H11.4374C11.4222 13.4154 11.4101 13.2455 11.4101 13.0756C11.4101 12.9057 11.4101 12.7389 11.4374 12.569H14.2103V10.9884L11.9197 10.9823L11.9167 10.9793Z" fill="white"/>
</g>
<defs>
<clipPath id="clip0_2564_2955">
<rect width="26.13" height="26.127" fill="white"/>
</clipPath>
</defs>
</svg>
