<svg width="21" height="32" viewBox="0 0 21 32" fill="none" xmlns="http://www.w3.org/2000/svg">
<path d="M10.2804 0C4.61474 0 0 4.61474 0 10.2804C0 19.9949 8.70063 30.9592 9.07116 31.4206C9.36084 31.7844 9.80547 32 10.2804 32C10.7554 32 11.2 31.7844 11.4897 31.4206C11.8602 30.9592 20.5608 19.9949 20.5608 10.2804C20.5608 4.61474 15.9461 0 10.2804 0ZM10.2804 16.0101C7.12084 16.0101 4.55074 13.44 4.55074 10.2804C4.55074 7.12084 7.12084 4.55074 10.2804 4.55074C13.44 4.55074 16.0101 7.12084 16.0101 10.2804C16.0101 13.44 13.44 16.0101 10.2804 16.0101Z" fill="white"/>
</svg>
