<svg width="29" height="29" viewBox="0 0 29 29" fill="none" xmlns="http://www.w3.org/2000/svg">
<g clip-path="url(#clip0_2564_2926)">
<path d="M14.5 0C6.50488 0 0 6.50488 0 14.5C0 22.4951 6.50488 29 14.5 29C22.4951 29 29 22.4951 29 14.5C29 6.50488 22.4951 0 14.5 0ZM14.5 26.4848C7.89137 26.4848 2.51518 21.1086 2.51518 14.5C2.51518 7.89137 7.89137 2.51518 14.5 2.51518C21.1086 2.51518 26.4848 7.89137 26.4848 14.5C26.4848 21.1086 21.1086 26.4848 14.5 26.4848Z" fill="white"/>
<path d="M13.242 14.3772L8.05762 18.98L9.72707 20.8601L15.7572 15.5059V4.2002H13.242V14.3772Z" fill="white"/>
</g>
<defs>
<clipPath id="clip0_2564_2926">
<rect width="29" height="29" fill="white"/>
</clipPath>
</defs>
</svg>
