<svg width="45" height="45" viewBox="0 0 45 45" fill="none" xmlns="http://www.w3.org/2000/svg">
<path d="M42.3419 37.0049L24.3638 5.73871C23.6741 4.49725 21.8809 4.49725 21.1912 5.73871L3.16719 37.0049C2.47749 38.2463 3.3511 39.7637 4.77647 39.7637H22.7545H40.7326C42.1579 39.7637 43.0316 38.2463 42.3419 37.0049ZM21.3751 13.0955H24.1339V29.1883H21.3751V13.0955ZM22.7545 35.6255C21.4671 35.6255 20.4555 34.614 20.4555 33.3265C20.4555 32.0391 21.4671 31.0275 22.7545 31.0275C24.042 31.0275 25.0535 32.0391 25.0535 33.3265C25.0535 34.614 24.042 35.6255 22.7545 35.6255Z" fill="white"/>
</svg>
