<svg width="41" height="41" viewBox="0 0 41 41" fill="none" xmlns="http://www.w3.org/2000/svg">
<g clip-path="url(#clip0_1856_4788)">
<path d="M0.276808 40.8414C0.276808 34.8271 0.19651 29.0456 0.308928 23.2641C0.373167 20.0682 2.68577 17.4986 5.79333 16.7358C8.72423 16.0131 11.8318 17.33 13.5181 20.012C14.6342 21.7785 16.2803 21.9472 17.8221 20.4376C19.5324 18.7673 21.2267 17.0811 22.921 15.3868C23.9569 14.3509 23.7401 13.4114 22.3911 12.9055C21.3793 12.5281 19.7091 12.3033 19.5164 11.6529C19.0828 10.1914 19.3237 8.50517 19.412 6.91526C19.428 6.63421 19.9901 6.24075 20.3595 6.15242C26.5907 4.55448 32.8299 2.99668 39.0771 1.44692C39.3742 1.37465 39.7115 1.47101 40.1531 1.50313V17.2015C37.7924 16.6394 35.6564 16.0372 33.4723 15.6518C32.7817 15.5313 31.9546 15.9167 31.248 16.2219C30.2844 16.6314 29.369 17.1855 28.1806 17.8038C27.2572 18.936 26.0607 20.4456 24.8081 21.907C24.2058 22.6137 23.443 23.1838 22.8568 23.8984C20.769 26.4439 18.352 28.2105 14.57 27.1907V40.8495H0.276808V40.8414ZM24.5993 13.4516C26.3498 15.8364 29.4252 16.4146 30.2282 14.7845C28.4857 14.375 26.7754 13.9655 24.5993 13.4516Z" fill="white"/>
<path d="M7.35922 0.218506C11.3501 0.218506 14.546 3.48666 14.4978 7.5016C14.4416 11.4282 11.2617 14.5839 7.35922 14.5759C3.37641 14.5759 0.15643 11.2917 0.212639 7.29282C0.268848 3.36621 3.45671 0.218506 7.35922 0.218506Z" fill="white"/>
<path d="M18.1028 6.68259H18.6087V11.5969H18.1028C17.7495 11.5969 17.4604 11.3078 17.4604 10.9545V7.31695C17.4604 6.96364 17.7495 6.67456 18.1028 6.67456V6.68259Z" fill="white"/>
</g>
<defs>
<clipPath id="clip0_1856_4788">
<rect width="39.9406" height="40.6231" fill="white" transform="translate(0.212402 0.218506)"/>
</clipPath>
</defs>
</svg>
