<svg width="34" height="44" viewBox="0 0 34 44" fill="none" xmlns="http://www.w3.org/2000/svg">
<g clip-path="url(#clip0_1856_4872)">
<path d="M11.7922 28.3675C11.7922 30.3018 11.6588 32.2428 11.8189 34.1504C12.1391 37.9923 15.5141 40.8937 19.3827 40.8137C23.2312 40.7337 26.4995 37.6721 26.6196 33.8036C26.7396 30.1084 26.5996 26.4065 26.6863 22.7114C26.713 21.6108 25.9393 21.5241 25.3323 21.1439C22.9978 19.6899 22.064 16.8485 23.1045 14.3606C24.105 11.946 26.8264 10.5453 29.3409 11.139C32.0156 11.7726 33.8232 14.1671 33.5897 16.8685C33.4163 18.8828 32.4158 20.4303 30.5882 21.3174C29.8078 21.6975 29.6144 22.1511 29.6211 22.9582C29.6611 26.3265 29.6544 29.6948 29.6344 33.0565C29.5944 39.1595 25.0588 43.8085 19.1826 43.7952C13.313 43.7818 8.81743 39.1329 8.77741 33.0032C8.76407 31.4624 8.77741 29.9216 8.77741 28.3742C4.00837 27.247 0.900167 24.5123 0.03974 19.6966C-0.140349 18.676 0.379909 17.5355 0.573338 16.4483C0.666718 15.9213 0.813457 15.3944 0.820127 14.8608C0.840137 11.4925 0.820127 8.12415 0.833467 4.76248C0.833467 2.68812 2.69439 0.353627 4.71539 0.153528C5.40907 0.0868282 6.40957 0.480357 6.82977 1.00728C7.18995 1.45417 7.20996 2.62142 6.86312 3.07498C6.45626 3.61524 5.50912 3.8687 4.76208 3.98209C4.30852 4.04879 3.77493 3.61524 3.0479 3.30176C2.96786 3.91539 2.84113 4.47567 2.83446 5.02928C2.80778 7.2904 3.02122 9.5782 2.77443 11.8126C2.4476 14.7541 3.50813 17.3954 4.22848 20.0834C4.98219 22.8781 7.8236 24.579 10.7651 24.3589C13.6932 24.1388 15.7675 21.991 16.6813 19.1696C18.2421 14.3406 17.5418 9.42479 17.7152 4.5357C17.7218 4.2689 17.6685 3.98876 17.6085 3.72196C17.5884 3.62858 17.4817 3.55522 17.3216 3.35512C16.9815 3.52854 16.6413 3.77532 16.2544 3.89538C15.1406 4.24889 14 4.08881 13.5798 2.96826C13.333 2.30793 13.5531 1.15402 14.0133 0.627096C14.7537 -0.213321 15.8609 -0.23333 16.8081 0.627096C17.0882 0.880555 17.3883 1.14068 17.7218 1.28742C19.1959 1.90773 19.7228 3.0483 19.7028 4.58239C19.6761 7.51051 19.6828 10.432 19.7028 13.3601C19.7095 14.7074 19.5094 16.0414 20.4699 17.282C20.8434 17.7689 20.6966 18.7894 20.5633 19.5231C19.6561 24.4056 16.608 27.227 11.7856 28.3609L11.7922 28.3675ZM28.087 13.0066C26.1994 13.0399 24.6386 14.6541 24.6786 16.5417C24.712 18.4293 26.3261 19.99 28.2137 19.95C30.1013 19.9167 31.6621 18.3025 31.6221 16.4149C31.5887 14.5273 29.9746 12.9665 28.087 13.0066Z" fill="white"/>
<path d="M28.0871 13.0066C29.9747 12.9733 31.5822 14.5274 31.6222 16.415C31.6555 18.3026 30.1014 19.9101 28.2138 19.9501C26.3262 19.9834 24.7188 18.4293 24.6787 16.5417C24.6454 14.6541 26.1995 13.0467 28.0871 13.0066ZM30.6217 16.5417C30.655 15.2344 29.6079 14.0938 28.2939 14.0071C26.9265 13.9204 25.7126 15.0343 25.6726 16.4083C25.6392 17.7156 26.6864 18.8562 28.0004 18.9429C29.3677 19.0296 30.5817 17.9157 30.6217 16.5417Z" fill="white"/>
</g>
<defs>
<clipPath id="clip0_1856_4872">
<rect width="33.61" height="43.7951" fill="white"/>
</clipPath>
</defs>
</svg>
