<svg width="64" height="65" viewBox="0 0 64 65" fill="none" xmlns="http://www.w3.org/2000/svg">
<path d="M21.2608 22.5403H49.5353V19.4557C49.5353 18.2084 48.5244 17.1975 47.2771 17.1975H30.3549L24.1493 13.0795C23.778 12.8391 23.3496 12.7029 22.9079 12.6843H12.3042C11.0568 12.6843 10.0459 13.6952 10.0459 14.9426V43.1003H10.0685L17.5406 24.9473C18.2081 23.4907 19.6587 22.5522 21.2608 22.5403Z" fill="white"/>
<path d="M37.9147 34.586C41.5173 30.9855 47.0858 30.2442 51.5047 32.7781L53.8227 27.7967C53.9741 27.4819 54.0519 27.1358 54.0485 26.7865C54.0552 25.6268 53.1818 24.6504 52.0287 24.5282H21.2708C20.4445 24.5335 19.6966 25.0177 19.3526 25.7689L11.7383 44.2772H34.7472C34.2005 40.7271 35.3768 37.1286 37.9147 34.586Z" fill="white"/>
<path d="M42.1414 38.8129C40.7121 40.2442 40.2199 42.3623 40.8722 44.2772H46.1505L48.964 38.233C46.8525 36.7393 43.972 36.983 42.1414 38.8109V38.8129Z" fill="white"/>
<path d="M52.4739 35.9947C48.8468 32.3622 42.9614 32.3583 39.3296 35.9854C36.0047 39.305 35.6799 44.584 38.5737 48.2862L37.1172 49.7428C36.3188 49.5263 35.4653 49.7528 34.8795 50.3366L30.6526 54.5635C29.7447 55.4714 29.7447 56.9433 30.6526 57.8512C31.5606 58.7592 33.0324 58.7592 33.9403 57.8512L38.1673 53.6243C38.7511 53.0385 38.9776 52.185 38.761 51.3867L40.2223 49.9254C44.2805 53.0677 50.1187 52.3258 53.261 48.267C56.1296 44.5628 55.7922 39.3024 52.4739 35.9947ZM51.0652 47.7363C48.2118 50.5896 43.5858 50.5896 40.7331 47.7363C37.8797 44.8836 37.8797 40.2575 40.7324 37.4041C43.5857 34.5508 48.2118 34.5508 51.0652 37.4041C53.9139 40.2588 53.9139 44.8816 51.0652 47.7363Z" fill="white"/>
</svg>
