<svg width="65" height="53" viewBox="0 0 65 53" fill="none" xmlns="http://www.w3.org/2000/svg">
<path d="M45.131 24.6879H21.333C20.4136 24.6879 19.7104 25.391 19.7104 26.3105C19.7104 27.2299 20.4136 27.933 21.333 27.933H31.6094V42.5363H28.3642V45.7815H38.0998V42.5363H34.8546V27.933H45.131C46.0504 27.933 46.7535 27.2299 46.7535 26.3105C46.7535 25.391 46.0504 24.6879 45.131 24.6879Z" fill="white"/>
<path d="M19.1695 34.9643H8.89312V20.361C8.89312 19.4415 8.19 18.7384 7.27053 18.7384C6.35107 18.7384 5.64795 19.4415 5.64795 20.361V36.5868C5.64795 37.5063 6.35107 38.2094 7.27053 38.2094H11.5974V42.5363H8.35226V45.7815H18.0878V42.5363H14.8426V38.2094H19.1695C20.089 38.2094 20.7921 37.5063 20.7921 36.5868C20.7921 35.6674 20.089 34.9643 19.1695 34.9643Z" fill="white"/>
<path d="M19.4399 22.6867C19.7644 22.9031 20.143 23.0653 20.5216 23.0653H25.9303C26.9579 23.0653 27.8233 22.2 27.8233 21.1723C27.8233 20.1447 26.9579 19.2793 25.9303 19.2793H21.1707L16.8979 16.1964C16.0866 15.4933 15.0589 15.1147 13.9772 15.2228C12.0301 15.4392 10.5157 17.1159 10.5698 19.1171V29.5557C10.5698 31.665 12.2464 33.3417 14.3558 33.3417H23.0096V42.8068C23.0096 43.8344 23.875 44.6998 24.9026 44.6998C25.9302 44.6998 26.7956 43.8344 26.7956 42.8068V31.4487C26.7956 30.4211 25.9302 29.5557 24.9026 29.5557H18.0878V21.7673L19.4399 22.6867Z" fill="white"/>
<path d="M18.0877 10.0846C18.0877 12.194 16.411 13.8706 14.3017 13.8706C12.1923 13.8706 10.5156 12.194 10.5156 10.0846C10.5156 7.97526 12.1923 6.29858 14.3017 6.29858C16.411 6.29858 18.0877 7.97526 18.0877 10.0846Z" fill="white"/>
<path d="M45.4014 36.5868C45.4014 37.5063 46.1045 38.2094 47.024 38.2094H51.3508V42.5363H48.1057V45.7815H57.8412V42.5363H54.596V38.2094H58.9229C59.8424 38.2094 60.5455 37.5063 60.5455 36.5868V20.361C60.5455 19.4415 59.8424 18.7384 58.9229 18.7384C58.0034 18.7384 57.3003 19.4415 57.3003 20.361V34.9643H47.024C46.1586 34.9643 45.4014 35.6674 45.4014 36.5868Z" fill="white"/>
<path d="M48.1058 21.7672V29.5556H41.345C40.3173 29.5556 39.452 30.421 39.452 31.4487V42.8068C39.452 43.8344 40.3173 44.6998 41.345 44.6998C42.3726 44.6998 43.238 43.8344 43.238 42.8068V33.3417H51.8918C54.0012 33.3417 55.6778 31.665 55.6778 29.5556V19.117C55.6778 17.1158 54.2175 15.4391 52.2704 15.2228C51.1887 15.1146 50.1069 15.4391 49.3497 16.1963L45.0769 19.2793H40.3173C39.2897 19.2793 38.4243 20.1446 38.4243 21.1723C38.4243 22.1999 39.2897 23.0653 40.3173 23.0653H45.726C46.1046 23.0653 46.4832 22.9571 46.8077 22.6867L48.1058 21.7672Z" fill="white"/>
<path d="M51.8915 6.29858C54.0009 6.29858 55.6775 7.97526 55.6775 10.0846C55.6775 12.194 54.0009 13.8706 51.8915 13.8706C49.7821 13.8706 48.1055 12.194 48.1055 10.0846C48.1055 7.97526 49.8362 6.29858 51.8915 6.29858Z" fill="white"/>
</svg>
