<svg width="45" height="45" viewBox="0 0 45 45" fill="none" xmlns="http://www.w3.org/2000/svg">
<path d="M42.3419 37.0051L24.3638 5.73895C23.6741 4.4975 21.8809 4.4975 21.1912 5.73895L3.16719 37.0051C2.47749 38.2466 3.3511 39.7639 4.77647 39.7639H22.7545H40.7326C42.1579 39.7639 43.0316 38.2466 42.3419 37.0051ZM21.3751 13.0957H24.1339V29.1886H21.3751V13.0957ZM22.7545 35.6257C21.4671 35.6257 20.4555 34.6142 20.4555 33.3268C20.4555 32.0393 21.4671 31.0278 22.7545 31.0278C24.042 31.0278 25.0535 32.0393 25.0535 33.3268C25.0535 34.6142 24.042 35.6257 22.7545 35.6257Z" fill="white"/>
</svg>
