<svg width="36" height="49" viewBox="0 0 36 49" fill="none" xmlns="http://www.w3.org/2000/svg">
<path d="M27.9157 44.323C26.3092 42.8355 24.1671 41.8835 21.8466 41.8835C21.5491 41.8835 21.2516 41.8835 20.9541 41.943C21.1326 38.968 20.6566 35.9335 20.0616 32.78C20.2401 32.423 20.6566 32.0064 21.1921 31.6494C22.2036 33.7914 24.3456 35.3385 26.9042 35.3385C28.0347 35.3385 29.1057 35.041 29.9982 34.5055C34.8177 31.8874 35.4127 26.9489 35.4127 21.4749C35.4127 21.4749 30.2362 22.9029 26.9636 22.7839C23.5126 22.7839 20.7161 25.5804 20.7161 29.0314C20.7161 29.0909 20.7161 29.0909 20.7161 29.1504C20.3591 29.3289 20.0021 29.5669 19.6451 29.8644C18.9311 25.4614 18.5146 20.9394 19.9426 16.0008C20.5376 15.7628 21.2516 15.5843 21.9061 15.5248C21.9656 16.3579 22.3821 17.1313 23.0961 17.6668C23.5721 18.0238 24.0481 18.2023 24.5836 18.2618C27.2611 18.6784 28.9867 16.8933 30.6527 14.6918C30.6527 14.6918 28.1537 13.6803 26.8447 12.6688C25.5357 11.6573 23.7506 11.8953 22.6796 13.0258C22.0846 13.0258 21.4301 13.0853 20.8351 13.2043C21.5491 11.5383 22.5011 9.81281 23.6911 8.0278C23.9291 8.0873 24.1076 8.0873 24.3456 8.0873C26.0712 8.0873 27.4397 6.65928 27.4397 4.99327C27.4397 3.44626 28.1536 0.828247 28.1536 0.828247C25.4166 0.828247 22.9771 1.12575 21.6681 3.50576C21.4301 3.98177 21.2516 4.51727 21.2516 5.05278C21.2516 5.70728 21.4301 6.24278 21.7871 6.77828C21.0731 7.84929 20.4186 8.92029 19.8236 9.9913C19.5856 9.6938 19.3476 9.4558 19.0501 9.1583C19.0501 9.0393 19.1096 8.92029 19.1096 8.80129C19.1096 7.07578 17.6816 5.70728 16.0156 5.70728C14.3496 5.76679 11.791 5.05278 11.791 5.05278C11.791 7.78979 12.0885 10.2293 14.4686 11.5383C14.9446 11.7763 15.4801 11.9548 16.0156 11.9548C16.7296 11.9548 17.3246 11.7168 17.8601 11.3598C18.2171 11.7168 18.4551 12.0738 18.6931 12.4903C16.7891 16.8934 16.3726 21.0584 16.6106 24.9854C16.5511 24.9259 16.4916 24.9259 16.3726 24.8664C15.9561 24.6879 15.5991 24.4499 15.1826 24.2714C15.2421 23.9144 15.2421 23.6169 15.2421 23.2599C15.2421 19.8089 12.4456 17.0124 8.99455 17.0124C5.78153 17.1314 0.60498 15.7033 0.60498 15.7033C0.60498 21.1774 1.20001 26.0564 6.01954 28.7339C6.91204 29.2694 7.98302 29.5669 9.11353 29.5669C11.3745 29.5669 13.3381 28.3769 14.4686 26.5919C14.7661 26.7704 15.1231 26.8894 15.4206 27.0679C15.8966 27.3059 16.4321 27.5439 16.9676 27.7819C17.2056 29.5074 17.5031 31.2329 17.7411 32.8394C18.3361 36.231 18.9311 39.5035 18.5741 42.538C17.4436 43.014 16.4321 43.6685 15.5396 44.5015C14.4091 43.966 13.1001 43.6685 11.7316 43.6685C8.28054 43.6685 5.36502 45.5725 3.81802 48.4285H34.6987C33.2707 46.108 30.8312 44.561 27.9157 44.323Z" fill="white"/>
</svg>
