<svg width="54" height="44" viewBox="0 0 54 44" fill="none" xmlns="http://www.w3.org/2000/svg">
<g clip-path="url(#clip0_1856_4802)">
<path d="M47.9637 17.453H47.4079L45.8022 13.5153C49.5076 11.6027 50.8044 7.32742 48.7665 3.95222C46.6668 0.577028 41.9733 -0.60429 38.268 1.25207C36.4771 2.15212 35.1184 3.72721 34.6244 5.52731L28.8811 4.96478C28.4488 2.48964 25.9168 0.745788 23.1995 1.13956C20.7293 1.47708 18.9384 3.38969 18.9384 5.63982C18.9384 6.42737 19.1854 7.21491 19.6177 7.9462L12.701 14.1341C11.4042 13.234 9.79852 12.7277 8.13111 12.7277C3.86995 12.7277 0.411621 15.8779 0.411621 19.7594C0.411621 23.6409 3.86995 26.791 8.13111 26.791L9.675 35.229C7.14301 36.2416 5.96965 38.9417 7.08126 41.2481C8.19286 43.5545 11.1571 44.6233 13.6891 43.6108C16.0359 42.7107 17.2092 40.3481 16.5299 38.0979L21.9644 35.5103C25.4845 39.0542 31.5366 39.3355 35.489 36.1291C37.4652 34.4977 38.6385 32.1351 38.6385 29.7162C38.6385 29.0974 38.5768 28.4224 38.3915 27.8036L44.3818 24.9909C46.2345 26.9035 49.384 27.0723 51.4837 25.3847C53.5834 23.6971 53.7687 20.8282 51.916 18.9156C50.7427 18.0155 49.384 17.453 47.9637 17.453ZM47.9637 19.1406C48.7665 19.1406 49.384 19.7031 49.384 20.4344C49.384 21.1657 48.7665 21.7282 47.9637 21.7282C47.1608 21.7282 46.5433 21.1657 46.5433 20.4344C46.5433 19.7031 47.1608 19.1406 47.9637 19.1406ZM42.0351 3.10842C43.2085 3.10842 44.1965 4.00848 44.1965 5.07729C44.1965 6.1461 43.2085 7.04615 42.0351 7.04615C40.8617 7.04615 39.8736 6.1461 39.8736 5.07729C39.8736 4.00848 40.8 3.10842 42.0351 3.10842ZM37.6504 9.52129C37.6504 9.24003 37.8357 8.90251 38.0827 8.73375C38.7003 8.33998 39.4413 8.00246 40.1824 7.8337C40.7382 7.66494 41.3558 7.60868 41.9733 7.60868C42.5909 7.60868 43.2085 7.72119 43.7643 7.8337C44.5053 8.00246 45.2464 8.33998 45.864 8.79C46.111 8.95876 46.2962 9.29628 46.2962 9.57755V11.0964H37.6504V9.52129ZM23.8789 2.77091C24.6817 2.77091 25.2992 3.33344 25.2992 4.06473C25.2992 4.79602 24.6817 5.35855 23.8789 5.35855C23.076 5.35855 22.4585 4.79602 22.4585 4.06473C22.4585 3.38969 23.076 2.77091 23.8789 2.77091ZM20.9763 6.9899C20.9763 6.76489 21.0998 6.59613 21.2851 6.48362C21.7174 6.20235 22.2114 6.03359 22.7055 5.92109C23.076 5.80858 23.5083 5.75233 23.8789 5.75233C24.2494 5.75233 24.6817 5.80858 25.0522 5.92109C25.5463 6.03359 25.9786 6.25861 26.4109 6.53987C26.5961 6.65238 26.7196 6.87739 26.7196 7.04615V8.05871H21.0381V6.9899H20.9763ZM8.0076 15.4841C9.18096 15.4841 10.1691 16.3842 10.1691 17.453C10.1691 18.5218 9.18096 19.4219 8.0076 19.4219C6.83423 19.4219 5.84614 18.5218 5.84614 17.453C5.9079 16.3842 6.83423 15.4841 8.0076 15.4841ZM3.68468 23.4158V21.897C3.68468 21.6157 3.86995 21.2782 4.11697 21.1095C4.73453 20.7157 5.4756 20.3782 6.21667 20.2094C6.77248 20.0406 7.39004 19.9844 8.0076 19.9844C8.62515 19.9844 9.24271 20.0969 9.79852 20.2094C10.5396 20.3782 11.2807 20.7157 11.8982 21.1657C12.1452 21.3345 12.3305 21.672 12.3305 21.9533V23.4721L3.68468 23.4158ZM14.3685 41.7544H8.62515V40.7418C8.62515 40.5168 8.74867 40.3481 8.93393 40.2356C9.36623 39.9543 9.86027 39.7293 10.3543 39.6168C10.7249 39.5043 11.1571 39.448 11.5277 39.448C11.8982 39.448 12.3305 39.5043 12.701 39.6168C13.1951 39.7293 13.6274 39.9543 14.0597 40.2356C14.2449 40.3481 14.3685 40.5731 14.3685 40.7418V41.7544ZM10.0455 37.8167C10.0455 37.0854 10.6631 36.5229 11.4659 36.5229C12.2688 36.5229 12.8863 37.0854 12.8863 37.8167C12.8863 38.548 12.2688 39.1105 11.4659 39.1105C10.7249 39.1668 10.1073 38.548 10.0455 37.8167ZM14.986 36.2416C14.1832 35.5103 13.0716 35.0603 11.96 34.9478L10.4161 26.5098C11.8982 26.0597 13.1951 25.2159 14.1214 24.0909L19.8647 26.8473C18.9384 29.0974 19.1237 31.6288 20.3588 33.7664L14.986 36.2416ZM21.0381 24.7659L15.3565 22.0658C15.6036 21.3345 15.7271 20.6032 15.7271 19.8156C15.7271 18.3531 15.233 16.9467 14.3067 15.7654L21.2234 9.6338C23.5701 10.9276 26.6579 10.3088 28.0783 8.17122C28.2635 7.88995 28.387 7.60868 28.5106 7.32742L34.2538 7.88995C34.3774 9.91507 35.489 11.8277 37.2799 13.0652L32.2159 21.672C28.2018 20.2094 23.5701 21.5032 21.0381 24.7659ZM31.5366 26.8473C31.5366 28.1974 30.3015 29.2662 28.8193 29.2662C27.3372 29.2662 26.1638 28.1974 26.1638 26.8473C26.1638 25.4972 27.3372 24.4284 28.8193 24.4284H28.8811C30.3632 24.4284 31.5366 25.4972 31.5366 26.8473ZM34.1921 34.2165H23.5083V32.3601C23.5083 31.9663 23.6936 31.6288 24.0641 31.4038C24.867 30.8975 25.7315 30.5038 26.6579 30.2225C27.3989 30.0537 28.14 29.9412 28.8811 29.9412C29.6222 29.9412 30.3632 30.0537 31.1043 30.2225C32.0306 30.4475 32.957 30.8413 33.698 31.4038C34.0068 31.6288 34.2538 32.0226 34.2538 32.3601L34.1921 34.2165ZM42.9614 22.0658C42.9614 22.4033 43.0232 22.7408 43.1467 23.0783L37.4652 25.7785C36.7858 24.5409 35.736 23.5283 34.5009 22.7408L39.5649 14.1341C40.3677 14.4153 41.2323 14.5278 42.0968 14.5278C42.5909 14.5278 43.0849 14.4716 43.579 14.4153L45.1846 18.3531C43.7025 19.1406 42.8997 20.5469 42.9614 22.0658ZM50.8044 24.3159H45.0611V23.3033C45.0611 23.0783 45.1846 22.9096 45.3699 22.7971C45.8022 22.5158 46.2962 22.2908 46.7903 22.1783C47.1608 22.0658 47.5931 22.0095 47.9637 22.0095C48.3342 22.0095 48.7665 22.0658 49.137 22.1783C49.6311 22.2908 50.0634 22.5158 50.4956 22.7971C50.6809 22.9096 50.8044 23.1346 50.8044 23.3033V24.3159Z" fill="white"/>
</g>
<defs>
<clipPath id="clip0_1856_4802">
<rect width="52.7766" height="43.6188" fill="white" transform="translate(0.411621 0.374268)"/>
</clipPath>
</defs>
</svg>
