<svg width="54" height="48" viewBox="0 0 54 48" fill="none" xmlns="http://www.w3.org/2000/svg">
<g clip-path="url(#clip0_1856_4848)">
<path d="M26.0364 36.1363C26.0364 37.6915 24.7786 38.9492 23.2235 38.9492C21.6684 38.9492 20.4106 37.6915 20.4106 36.1363C20.4106 34.5812 21.6684 33.3235 23.2235 33.3235C24.7786 33.3235 26.0364 34.5812 26.0364 36.1363Z" fill="white"/>
<path d="M28.7563 45.343V42.5302C28.7439 42.0903 28.5394 41.6814 28.1987 41.4087C27.3932 40.783 26.4639 40.3307 25.4788 40.0705C24.7353 39.8412 23.9608 39.7235 23.1801 39.7235C22.3995 39.7359 21.6312 39.8536 20.8815 40.0705C19.9026 40.3617 18.9856 40.814 18.1616 41.4087C17.8209 41.6814 17.6164 42.0903 17.604 42.5302V45.343H28.7563Z" fill="white"/>
<path d="M38.341 36.1363C38.341 37.6915 37.0833 38.9492 35.5282 38.9492C33.9731 38.9492 32.7153 37.6915 32.7153 36.1363C32.7153 34.5812 33.9731 33.3235 35.5282 33.3235C37.0833 33.3235 38.341 34.5812 38.341 36.1363Z" fill="white"/>
<path d="M41.1479 45.343V42.5302C41.1355 42.0903 40.931 41.6814 40.5903 41.4087C39.7848 40.783 38.8555 40.3307 37.8704 40.0705C37.1269 39.8412 36.3524 39.7235 35.5718 39.7235C34.7911 39.7359 34.0228 39.8536 33.2731 40.0705C32.2942 40.3617 31.3773 40.814 30.5532 41.4087C30.2125 41.6814 30.008 42.0903 29.9956 42.5302V45.343H41.1479Z" fill="white"/>
<path d="M50.7326 36.1363C50.7326 37.6915 49.4749 38.9492 47.9198 38.9492C46.3647 38.9492 45.1069 37.6915 45.1069 36.1363C45.1069 34.5812 46.3647 33.3235 47.9198 33.3235C49.4749 33.3235 50.7326 34.5812 50.7326 36.1363Z" fill="white"/>
<path d="M53.5395 45.343V42.5302C53.5271 42.0903 53.3226 41.6814 52.9819 41.4087C52.1764 40.783 51.2471 40.3307 50.262 40.0705C49.5185 39.8412 48.744 39.7235 47.9634 39.7235C47.1827 39.7359 46.4144 39.8536 45.6647 40.0705C44.6858 40.3617 43.7689 40.814 42.9448 41.4087C42.6041 41.6814 42.3996 42.0903 42.3872 42.5302V45.343H53.5395Z" fill="white"/>
<path d="M14.7668 10.1267C14.7668 12.1589 13.1187 13.8069 11.0865 13.8069C9.05431 13.8069 7.40625 12.1589 7.40625 10.1267C7.40625 8.09447 9.05431 6.44641 11.0865 6.44641C13.1187 6.44641 14.7668 8.09447 14.7668 10.1267Z" fill="white"/>
<path d="M32.79 8.70787C32.4244 8.34852 31.842 8.34852 31.4765 8.70787L23.4716 16.7127C22.8334 16.5331 22.1457 16.7127 21.6686 17.1712C21.5385 17.3013 19.2275 21.0807 19.2275 21.0807L18.5336 18.1254C18.4407 17.7412 18.2548 17.3943 17.9822 17.1093C16.8422 16.1861 15.5287 15.4984 14.1161 15.0895C13.1186 14.8788 12.1086 14.7549 11.0864 14.7239C10.0579 14.7425 9.03557 14.8912 8.05045 15.1824C6.62544 15.5541 5.30575 16.2481 4.19052 17.2022C3.91791 17.4872 3.72584 17.8342 3.6391 18.2183C3.6391 18.2183 0.96875 29.4325 0.96875 29.6184C0.96875 30.6469 1.79898 31.4771 2.82747 31.4771C3.6515 31.4585 4.364 30.8947 4.57466 30.1017L6.50772 22.103V47.8214H10.1694V31.2727H12.0281V47.8214H15.6836V21.9853L16.3651 24.8973C16.4147 25.1017 16.5448 25.269 16.7307 25.362C17.4432 25.9072 18.3106 26.217 19.2089 26.2356C19.7913 26.3161 20.3737 26.0559 20.6959 25.5602L24.4753 19.3645C24.7169 18.9804 24.8099 18.5281 24.7293 18.082L32.7838 10.0276C33.1493 9.66201 33.1493 9.07342 32.79 8.70787Z" fill="white"/>
<path d="M45.4848 0.11438H15.1257C13.7565 0.11438 12.6475 1.22341 12.6475 2.59267V4.82312C13.5954 5.08334 14.4504 5.59759 15.1257 6.3101V2.59267H45.4848V23.0385H24.3388L22.827 25.5168H45.4848C46.854 25.5168 47.963 24.4078 47.963 23.0385V2.59267C47.963 1.22341 46.854 0.11438 45.4848 0.11438Z" fill="white"/>
</g>
<defs>
<clipPath id="clip0_1856_4848">
<rect width="52.5707" height="47.707" fill="white" transform="translate(0.96875 0.11438)"/>
</clipPath>
</defs>
</svg>
