<svg width="57" height="47" viewBox="0 0 57 47" fill="none" xmlns="http://www.w3.org/2000/svg">
<g clip-path="url(#clip0_1430_1773)">
<path d="M54.5026 0H25.5956C24.5886 0 23.8185 0.829299 23.8185 1.77707V14.7497H26.5434C26.8395 14.7497 27.0765 14.7497 27.3727 14.8089V3.55414H52.7255V28.7885H27.3727V25.1159C26.8395 25.4121 26.1879 25.5898 25.4771 25.5898H23.7593V30.6248C23.7593 31.6318 24.5886 32.4019 25.5363 32.4019H38.2128V37.3777L32.1707 43.4197C31.4599 44.1306 31.4599 45.2561 32.1707 45.9669C32.5262 46.3223 33 46.5 33.4147 46.5C33.8293 46.5 34.3032 46.3223 34.6586 45.9669L40.0491 40.5764L45.4395 45.9669C46.1504 46.6777 47.2758 46.6777 47.9867 45.9669C48.6975 45.2561 48.6975 44.1306 47.9867 43.4197L41.8262 37.3185V32.3427H54.5026C55.5096 32.3427 56.2797 31.5134 56.2797 30.5656V1.77707C56.2797 0.770064 55.4504 0 54.5026 0Z" fill="white"/>
<path d="M26.3659 21.8579L27.4321 19.0738C27.6691 18.4814 27.1952 17.8298 26.6028 17.8298H6.87737C3.73788 17.8298 1.13151 20.1993 0.776093 23.3388L0.000105492 30.8024C-0.0591302 31.5133 0.414755 32.2241 1.12558 32.3426C1.95488 32.5203 3.02112 32.6388 4.1466 32.7572L4.85743 44.6636C4.91667 45.6706 5.74597 46.4407 6.75297 46.4407H12.4988C13.5058 46.4407 14.3351 45.6706 14.3944 44.6636L15.4014 24.2865C15.4014 23.2795 16.2307 22.4502 17.2969 22.4502H25.6492C25.8861 22.4502 26.2415 22.2133 26.36 21.8579H26.3659Z" fill="white"/>
<path d="M9.60222 16.1712C13.07 16.1712 15.8812 13.36 15.8812 9.89226C15.8812 6.42448 13.07 3.61328 9.60222 3.61328C6.13444 3.61328 3.32324 6.42448 3.32324 9.89226C3.32324 13.36 6.13444 16.1712 9.60222 16.1712Z" fill="white"/>
</g>
<defs>
<clipPath id="clip0_1430_1773">
<rect width="56.2798" height="46.5" fill="white"/>
</clipPath>
</defs>
</svg>
