<svg width="33" height="38" viewBox="0 0 33 38" fill="none" xmlns="http://www.w3.org/2000/svg">
<g clip-path="url(#clip0_1856_4154)">
<path d="M32.4187 37.5979H0.76342C0.76342 34.7817 0.59073 32.032 0.849764 29.3221C0.949393 28.2859 1.81948 27.0572 2.69621 26.393C10.3012 20.6278 21.9444 20.4485 29.8085 25.8151C31.5885 27.0306 32.5582 28.525 32.4387 30.7634C32.3191 33.0017 32.4121 35.2533 32.4121 37.6045L32.4187 37.5979Z" fill="white"/>
<path d="M17.0029 19.7377C12.5595 20.0034 8.82673 16.5761 8.66733 12.2655C8.50128 7.87525 11.9816 4.12922 16.3321 4.01631C20.6427 3.90339 24.4086 7.43689 24.5083 11.6146C24.5282 12.4847 24.2492 12.9032 23.4256 13.1356C22.2633 13.4611 21.1275 13.8729 19.9851 14.2581C17.5675 15.0684 17.1291 15.6728 17.076 18.1835C17.0627 18.675 17.0361 19.1598 17.0096 19.7377H17.0029Z" fill="white"/>
<path d="M26.3483 14.4376C27.0523 7.07169 22.662 1.83123 16.2127 2.03713C13.8814 2.11019 11.8224 2.94707 10.0491 4.45478C9.44464 4.96621 8.76053 5.63704 8.15611 4.72046C7.95021 4.40829 8.3753 3.37879 8.79373 3.0002C14.8644 -2.4528 24.5284 -0.0816379 27.6501 7.57647C27.9291 8.26059 27.9755 9.15725 29.0914 8.99784C29.2309 8.97792 29.5098 9.09747 29.5165 9.17717C29.6958 10.831 29.9748 12.4915 29.9283 14.1387C29.915 14.6368 29.0781 15.3209 28.4737 15.5667C26.7003 16.2906 24.8406 16.8021 23.0406 17.4596C22.2901 17.7386 21.6325 18.2766 20.8754 18.529C20.3639 18.695 19.6134 18.7747 19.2414 18.5157C18.8629 18.25 18.5706 17.4397 18.6968 17.0013C18.823 16.5563 19.4606 16.0847 19.9654 15.9519C22.1107 15.3741 24.2826 14.9224 26.3483 14.4442V14.4376Z" fill="white"/>
</g>
<defs>
<clipPath id="clip0_1856_4154">
<rect width="31.7483" height="37.5666" fill="white" transform="translate(0.710449 0.03125)"/>
</clipPath>
</defs>
</svg>
