<svg width="60" height="34" viewBox="0 0 60 34" fill="none" xmlns="http://www.w3.org/2000/svg">
<path d="M28.6509 4.75445V7.41121C29.1158 7.41121 29.5143 7.34478 29.9793 7.34478C30.4442 7.34478 30.8427 7.34479 31.3076 7.41121V4.75445C33.898 4.88728 36.3555 5.41863 38.6137 6.28207L37.6174 8.67316C38.4809 9.00526 39.2779 9.33736 40.0749 9.73587L41.0712 7.27836C42.3332 7.87613 43.4623 8.60675 44.5914 9.40378L47.4475 6.54775C42.5989 2.8947 36.5547 0.702881 29.9793 0.702881C13.8394 0.702881 0.754883 13.7874 0.754883 29.9273V32.584H4.74002V29.9273C4.74002 27.2041 5.20495 24.5473 6.00198 22.0898L8.45949 23.0861C8.72517 22.2227 9.05726 21.4256 9.38936 20.6286L6.93185 19.6323C7.92814 17.3741 9.32294 15.2487 10.917 13.4553L12.7767 15.3151C13.3745 14.6509 13.9723 13.9867 14.6365 13.3889L12.7767 11.5292C14.57 9.8687 16.629 8.40748 18.8873 7.27836L19.8836 9.73587C20.6806 9.33736 21.4776 9.00526 22.3411 8.67316L21.3448 6.21565C23.603 5.3522 26.0605 4.88728 28.6509 4.75445Z" fill="white"/>
<path d="M53.9567 13.1897L51.1007 16.0457C51.8313 17.1749 52.4955 18.3704 53.0268 19.5659L50.5693 20.6286C50.9014 21.4257 51.2335 22.2891 51.4992 23.0861L53.9567 22.0899C54.7537 24.5474 55.2187 27.2041 55.2187 29.9273V32.5841H59.2038V29.9273C59.2038 23.6839 57.2777 17.9719 53.9567 13.1897Z" fill="white"/>
<path d="M28.1194 28.7318C27.9865 28.7982 27.9201 28.931 27.7873 29.0639C26.8574 30.193 26.9903 31.8535 28.1194 32.8497C29.2485 33.7796 30.909 33.6468 31.9053 32.5176L52.5616 8.00903L28.1194 28.7318Z" fill="white"/>
</svg>
