<svg width="66" height="66" viewBox="0 0 66 66" fill="none" xmlns="http://www.w3.org/2000/svg">
<path d="M40.4846 26.1858C37.695 26.1858 35.5032 23.9276 35.5032 21.2044C35.5032 18.4812 37.7615 16.2229 40.4846 16.2229C43.2742 16.2229 45.4661 18.4812 45.4661 21.2044C45.4661 23.9276 43.2078 26.1858 40.4846 26.1858ZM51.7095 18.0827C51.4438 17.1528 51.1117 16.2894 50.6468 15.4924L51.7095 12.3707L49.3184 9.97956L46.1967 11.0423C45.3997 10.5773 44.5362 10.2452 43.6063 9.97956L42.1451 7.05713H38.8242L37.363 9.97956C36.4331 10.2452 35.5697 10.5773 34.7726 11.0423L31.6509 9.97956L29.2598 12.3707L30.3225 15.4924C29.8576 16.2894 29.5255 17.1528 29.2598 18.0827L26.3374 19.5439V22.8648L29.2598 24.3261C29.5255 25.2559 29.8576 26.1194 30.3225 26.9164L29.2598 30.0381L31.5845 32.3628L34.7062 31.3001C35.5032 31.765 36.3667 32.0971 37.2965 32.3628L38.7578 35.2852H42.0787L43.5399 32.3628C44.4698 32.0971 45.3332 31.765 46.1303 31.3001L49.252 32.3628L51.6431 30.0381L50.5803 26.9164C51.0453 26.1194 51.4438 25.1895 51.7095 24.3261L54.6319 22.8648V19.5439L51.7095 18.0827Z" fill="white"/>
<path d="M25.4739 50.3623C22.6843 50.3623 20.4925 48.1041 20.4925 45.3809C20.4925 42.5913 22.7507 40.3995 25.4739 40.3995C28.2635 40.3995 30.4553 42.6577 30.4553 45.3809C30.4553 48.1041 28.2635 50.3623 25.4739 50.3623ZM35.636 39.6689L36.6987 36.5472L34.3076 34.1561L31.1859 35.2188C30.3889 34.7539 29.4591 34.4218 28.5956 34.1561L27.1344 31.2336H23.8134L22.3522 34.1561C21.4224 34.4218 20.5589 34.7539 19.7619 35.2188L16.6402 34.1561L14.3155 36.4807L15.3118 39.6024C14.8469 40.3995 14.5148 41.3293 14.2491 42.1928L11.3267 43.654V46.975L14.2491 48.4362C14.5148 49.366 14.8469 50.2295 15.3118 51.0265L14.3155 54.1482L16.6402 56.4729L19.7619 55.4766C20.5589 55.9415 21.4224 56.2736 22.3522 56.5393L23.8134 59.4617H27.1344L28.5956 56.5393C29.5255 56.2736 30.3889 55.9415 31.1859 55.4766L34.3076 56.5393L36.6323 54.1482L35.636 51.0929C36.101 50.2959 36.4331 49.4325 36.6987 48.5026L39.6212 47.0414V43.7204L36.6987 42.2592C36.4331 41.3293 36.101 40.4659 35.636 39.6689Z" fill="white"/>
</svg>
