<svg width="48" height="48" viewBox="0 0 48 48" fill="none" xmlns="http://www.w3.org/2000/svg">
<g clip-path="url(#clip0_1430_1863)">
<path d="M48 1.5C48 0.66 47.34 0 46.5 0H34.5C33.66 0 33 0.66 33 1.5V4.5C33 5.34 33.66 6 34.5 6H42V13.5C42 14.34 42.66 15 43.5 15H46.5C47.34 15 48 14.34 48 13.5V1.5Z" fill="white"/>
<path d="M6 6H13.5C14.34 6 15 5.34 15 4.5V1.5C15 0.66 14.34 0 13.5 0H1.5C0.66 0 0 0.66 0 1.5V13.5C0 14.34 0.66 15 1.5 15H4.5C5.34 15 6 14.34 6 13.5V6Z" fill="white"/>
<path d="M13.5 48C14.34 48 15 47.34 15 46.5V43.5C15 42.66 14.34 42 13.5 42H6V34.5C6 33.66 5.34 33 4.5 33H1.5C0.66 33 0 33.66 0 34.5V46.5C0 47.34 0.66 48 1.5 48H13.5Z" fill="white"/>
<path d="M34.5 48C33.66 48 33 47.34 33 46.5V43.5C33 42.66 33.66 42 34.5 42H42V34.5C42 33.66 42.66 33 43.5 33H46.5C47.34 33 48 33.66 48 34.5V46.5C48 47.34 47.34 48 46.5 48H34.5Z" fill="white"/>
<path d="M21 1.5C21 0.66 21.66 0 22.5 0H25.5C26.34 0 27 0.66 27 1.5V46.5C27 47.34 26.34 48 25.5 48H22.5C21.66 48 21 47.34 21 46.5V1.5Z" fill="white"/>
</g>
<defs>
<clipPath id="clip0_1430_1863">
<rect width="48" height="48" fill="white"/>
</clipPath>
</defs>
</svg>
