<svg width="56" height="56" viewBox="0 0 56 56" fill="none" xmlns="http://www.w3.org/2000/svg">
<path d="M53.8971 46.8675L45.2924 38.2629C44.1209 37.0914 42.539 36.6789 41.0251 36.9552L37.9953 33.9255C40.6807 30.4832 42.2627 26.0777 42.2627 21.3979C42.2627 10.0398 32.9711 0.746338 21.613 0.746338C10.2549 0.746338 0.961426 10.0398 0.961426 21.3979C0.961426 32.756 10.2549 42.0476 21.613 42.0476C26.2928 42.0476 30.6302 40.4656 34.1406 37.7803L37.1703 40.808C36.894 42.3239 37.3065 43.9058 38.478 45.0773L47.0826 53.682C48.0458 54.6452 49.2854 55.1258 50.5229 55.1258C51.7624 55.1258 53.002 54.6452 53.9652 53.682C55.7554 51.7536 55.7554 48.7258 53.8971 46.8675ZM21.5429 37.8483C12.4577 37.8483 5.02244 30.4151 5.02244 21.3278C5.02244 12.2426 12.4577 4.80736 21.5429 4.80736C30.6302 4.80736 38.0634 12.2426 38.0634 21.3278C38.0634 30.4151 30.6302 37.8483 21.5429 37.8483Z" fill="white"/>
<path d="M21.0583 29.5201H20.9721C20.6037 29.4921 20.2913 29.2077 20.2072 28.8393L18.2488 18.4564L17.0293 22.145C16.9151 22.4854 16.6027 22.7117 16.2343 22.7117H11.1279V21.0096H15.6115L17.6821 14.7958C17.7942 14.4274 18.1647 14.2011 18.5331 14.2291C18.9016 14.2572 19.242 14.5415 19.2981 14.91L21.2845 25.5492L24.1781 17.8897C24.3203 17.5493 24.6327 17.321 25.0011 17.351C25.3696 17.379 25.682 17.6053 25.7941 17.9738L27.4121 23.2784L29.2284 21.2939C29.3986 21.1237 29.6249 21.0096 29.8512 21.0096H33.8241V22.7117H30.2196L27.6384 25.5492C27.4402 25.7755 27.1278 25.8616 26.8154 25.8035C26.505 25.7474 26.2767 25.5211 26.1926 25.2088L24.9151 20.8393L21.8512 28.9815C21.7391 29.2938 21.3987 29.5201 21.0583 29.5201Z" fill="white"/>
</svg>
