<svg width="60" height="58" viewBox="0 0 60 58" fill="none" xmlns="http://www.w3.org/2000/svg">
<g clip-path="url(#clip0_1430_1796)">
<path d="M48.8461 32.2893C48.8461 32.2893 48.8522 32.3136 48.8522 32.3197V32.3319L48.1953 36.6742C48.1953 36.7046 48.1588 36.729 48.1284 36.729L43.4881 36.0235C43.032 35.9505 42.588 36.2059 42.4116 36.6316C41.8886 37.9392 41.1588 39.1495 40.2405 40.2198C39.9425 40.5726 39.9242 41.0835 40.1918 41.4544L42.9772 45.2373C43.0016 45.2737 43.0016 45.3042 42.9711 45.3224L39.4316 47.9375C39.4316 47.9375 39.3708 47.9436 39.3525 47.9254L36.5671 44.1365C36.2934 43.7655 35.8008 43.6317 35.3812 43.8141C34.0858 44.3676 32.7052 44.7021 31.3004 44.8176C30.8381 44.8602 30.4672 45.2129 30.4003 45.6691L29.6948 50.3155C29.6948 50.3155 29.6583 50.3641 29.6279 50.3641L25.2795 49.7073C25.2795 49.7073 25.2369 49.6708 25.2308 49.6404L25.9363 45.0001C26.0093 44.5439 25.7538 44.1 25.3281 43.9236C24.0205 43.3945 22.8103 42.6647 21.7338 41.7524C21.7095 41.7281 21.6852 41.7038 21.6548 41.6855V40.3901C21.6548 39.5691 21.1743 38.8211 20.4263 38.4805C20.3715 38.4501 20.3107 38.4257 20.2499 38.4075C20.2012 38.3893 20.1465 38.371 20.0978 38.3588C20.037 38.3406 19.9823 38.3284 19.9215 38.3163V32.9705C20.0735 32.934 20.2256 32.9096 20.3776 32.8731C20.5114 32.8488 20.6513 32.8123 20.7851 32.7819C20.8033 32.7819 20.8216 32.7819 20.8398 32.7698C21.2595 32.6664 21.673 32.5447 22.0866 32.4049C22.3238 32.3319 22.5549 32.2467 22.786 32.1616C22.8042 32.6116 22.8711 33.0617 22.9806 33.4996C22.9867 33.5239 22.9927 33.5543 22.9988 33.5847C23.4854 35.464 24.6835 37.0817 26.3377 38.1034C26.362 38.1095 26.3803 38.1217 26.3985 38.1399C27.2378 38.6386 28.1622 38.9731 29.1231 39.1191C30.084 39.2589 31.0692 39.2164 32.0119 38.9853H32.0302C32.9789 38.742 33.8668 38.3163 34.6575 37.7385C35.442 37.1608 36.111 36.437 36.6158 35.6038L36.6523 35.543C37.1388 34.7159 37.4611 33.8036 37.6071 32.8488C37.753 31.8879 37.7105 30.9027 37.4733 29.96C37.4733 29.9478 37.4733 29.9357 37.4733 29.9235C37.1935 28.8045 36.6583 27.7706 35.9164 26.8948C35.4116 26.2927 34.8095 25.7819 34.1405 25.3744C34.1344 25.3683 34.1223 25.3622 34.1162 25.3622C34.104 25.3562 34.0858 25.344 34.0797 25.3379C33.3864 24.9183 32.6262 24.6203 31.8295 24.45C31.9511 24.2432 32.0666 24.0243 32.1822 23.8114C32.4741 23.258 32.7296 22.6863 32.9607 22.1024C33.0762 21.8166 33.1735 21.5368 33.2647 21.251C33.2769 21.2267 33.283 21.2024 33.2891 21.178C33.3803 20.8922 33.4715 20.6063 33.5445 20.3205C33.6236 20.0468 33.6905 19.7732 33.7452 19.4934C33.7634 19.4326 33.7756 19.3718 33.7817 19.3109C33.8364 19.0859 33.8729 18.867 33.9094 18.642C33.9276 18.5446 33.9459 18.4413 33.9581 18.344C33.9945 18.0885 34.031 17.8209 34.0554 17.5594C34.0919 17.2432 34.1162 16.9269 34.1283 16.6107C34.1405 16.3187 34.1466 16.0207 34.1466 15.7288C34.1466 15.4855 34.1405 15.2301 34.1283 14.9869C34.1283 14.8956 34.1283 14.7983 34.1162 14.7071C34.104 14.4273 34.0858 14.1597 34.0493 13.88C34.0493 13.7888 34.031 13.6975 34.0189 13.6002H34.025L35.1805 13.7705C35.217 13.7705 35.2413 13.807 35.2413 13.8435L34.5358 18.4899C34.4628 18.946 34.7244 19.3961 35.1501 19.5664C36.4576 20.0833 37.6679 20.8131 38.7383 21.7193C39.091 22.0173 39.6019 22.0355 39.9729 21.768L43.7496 18.9764C43.7496 18.9764 43.8104 18.9643 43.8287 18.9886L46.4377 22.5221L46.4256 22.6011L42.6488 25.3866C42.3082 25.6663 42.1744 26.1346 42.3082 26.5543C42.3265 26.6029 42.3508 26.6516 42.3751 26.7002C42.8982 27.9591 43.2205 29.291 43.336 30.6533C43.3725 31.1155 43.7192 31.4865 44.1814 31.5534L48.8582 32.2832L48.8461 32.2893ZM10.9814 30.2884C10.4766 30.0938 9.98397 29.8749 9.50352 29.6316C4.00566 26.8462 0.666798 21.0868 0.983047 14.9382C1.13509 11.6237 2.35751 8.44902 4.4557 5.88862C7.42966 2.24568 11.8754 0.135324 16.5765 0.129242C16.832 0.129242 17.0874 0.135324 17.3428 0.147487C19.6296 0.256958 21.8615 0.87121 23.8807 1.95375C27.9919 4.13709 30.9111 8.04762 31.8295 12.6089C32.091 13.8861 32.1883 15.1936 32.1214 16.5012C32.0241 18.7332 31.4341 20.9104 30.4063 22.887C29.8955 23.8601 29.2873 24.7723 28.594 25.6177C26.8911 27.6915 24.6774 29.2971 22.1717 30.2641C21.9467 30.3492 21.7095 30.4344 21.4602 30.5134C21.0101 30.6594 20.5601 30.7871 20.1161 30.8905C19.7086 30.9817 19.3133 31.0608 18.9241 31.1216L18.8572 31.1338C18.8572 31.1338 18.8024 31.1399 18.7781 31.1459H18.766C18.5409 31.1824 18.3098 31.2068 18.0787 31.225H18.0605L17.9267 31.2372C17.8598 31.2433 17.7929 31.2493 17.726 31.2493C15.4332 31.4196 13.1282 31.0912 10.9753 30.2763L10.9814 30.2884ZM16.0109 26.4509C21.9345 26.7428 26.9763 22.1876 27.2803 16.264C27.2864 16.0816 27.2925 15.8991 27.2925 15.7227C27.2803 10.0059 22.7981 5.29869 17.0935 5.00677C16.905 4.99461 16.7225 4.99461 16.5401 4.99461C10.6104 5.00677 5.81192 9.8174 5.818 15.7471C5.82409 21.4578 10.3063 26.1589 16.0049 26.4509H16.0109ZM15.6704 33.2928C15.5122 33.2867 15.3541 33.2745 15.1838 33.2624V38.298H17.9328V33.2502C17.1786 33.3171 16.4245 33.3354 15.6704 33.2989V33.2928ZM19.5627 40.2807H13.5479C13.487 40.2807 13.4445 40.3354 13.4445 40.3901V57.6439C13.4445 57.6987 13.487 57.7473 13.5479 57.7473H19.5627C19.6235 57.7473 19.666 57.6987 19.666 57.6439V40.3901C19.666 40.3293 19.6174 40.2807 19.5627 40.2807ZM59.9999 1.83212V25.496C59.9999 26.463 59.2215 27.2476 58.2545 27.2476H44.6679C44.595 27.0104 44.5159 26.7793 44.4308 26.5421L46.1823 25.2528L47.5932 24.2128C48.5055 23.5438 48.7001 22.2667 48.0372 21.3544L45.4282 17.827C44.7592 16.9148 43.482 16.7141 42.5637 17.383L39.4012 19.7184C38.5376 19.0555 37.601 18.4899 36.6097 18.0338L37.1935 14.1415C37.3577 13.0225 36.5914 11.9886 35.4724 11.8122L33.6357 11.5324H33.6296C33.6296 11.5324 33.6236 11.4716 33.6175 11.4473C33.5992 11.3804 33.581 11.3196 33.5627 11.2588C33.4958 11.0033 33.4229 10.7418 33.3438 10.4925C33.3134 10.3769 33.2769 10.2674 33.2283 10.1519C33.1553 9.92079 33.0762 9.69577 32.9911 9.47074C32.9303 9.30045 32.8573 9.12409 32.7843 8.95988C32.76 8.8869 32.7235 8.81392 32.6991 8.74094C32.6322 8.58889 32.5593 8.43685 32.4924 8.28481C32.2673 7.81652 32.0302 7.35431 31.7686 6.90426C31.7078 6.78871 31.6409 6.68532 31.574 6.58193C31.4767 6.41773 31.3673 6.24136 31.2578 6.07715C31.2213 6.02241 31.1848 5.96768 31.1422 5.91294C31.0388 5.74874 30.9233 5.57845 30.8017 5.42033C30.7348 5.3291 30.6618 5.22571 30.5888 5.13449C30.3942 4.88514 30.2056 4.63579 29.9989 4.3986C29.8103 4.17358 29.6218 3.95463 29.415 3.74178C29.2508 3.55932 29.0684 3.37079 28.8859 3.2005C28.8008 3.1032 28.7035 3.01197 28.6062 2.92683C28.4237 2.75046 28.2291 2.57409 28.0284 2.40988C27.0432 1.55844 25.9667 0.822556 24.8173 0.208304C24.7382 0.165732 24.6591 0.12316 24.5801 0.0866699H58.2423C59.2093 0.0866699 59.9938 0.87121 59.9938 1.8382L59.9999 1.83212ZM55.39 21.7436C55.39 21.1963 54.946 20.7523 54.3987 20.7462H49.9469C49.3995 20.7341 48.9434 21.1659 48.9251 21.7193C48.913 22.2667 49.3448 22.7228 49.8982 22.741C49.9165 22.741 49.9286 22.741 49.9469 22.741H54.3987C54.946 22.741 55.39 22.2971 55.3961 21.7497L55.39 21.7436ZM55.39 16.3552C55.39 15.8079 54.946 15.3639 54.3987 15.3578H46.1945C45.6471 15.37 45.2092 15.8261 45.2214 16.3796C45.2335 16.9087 45.6593 17.3344 46.1945 17.3526H54.3987C54.946 17.3526 55.39 16.9087 55.3961 16.3613L55.39 16.3552ZM55.39 10.9729C55.39 10.4256 54.946 9.98161 54.3987 9.97552H39.8695C39.3221 9.96336 38.866 10.3952 38.8478 10.9486C38.8356 11.496 39.2674 11.9521 39.8208 11.9703C39.8391 11.9703 39.8512 11.9703 39.8695 11.9703H54.3987C54.946 11.9703 55.39 11.5264 55.3961 10.979L55.39 10.9729ZM55.39 5.59061C55.39 5.04326 54.946 4.59321 54.3987 4.59321H39.8695C39.3221 4.58105 38.866 5.01285 38.8478 5.56629C38.8356 6.11364 39.2674 6.56977 39.8208 6.58801C39.8391 6.58801 39.8512 6.58801 39.8695 6.58801H54.3987C54.946 6.58801 55.39 6.14405 55.3961 5.5967L55.39 5.59061Z" fill="white"/>
</g>
<defs>
<clipPath id="clip0_1430_1796">
<rect width="59.0351" height="57.6789" fill="white" transform="translate(0.964844 0.0805664)"/>
</clipPath>
</defs>
</svg>
