<svg width="68" height="68" viewBox="0 0 68 68" fill="none" xmlns="http://www.w3.org/2000/svg">
<g clip-path="url(#clip0_1430_1805)">
<path d="M52.4763 65.3924C53.1925 65.3439 53.8116 65.8901 53.8601 66.6063C53.9087 67.3225 53.3624 67.9416 52.6462 67.9901C51.93 68.0387 51.311 67.4924 51.2624 66.7762C51.2624 66.752 51.2624 66.7155 51.2624 66.6913C51.2503 65.9994 51.7844 65.4288 52.4763 65.3924Z" fill="white"/>
<path d="M1.25039 51.1656C1.95445 51.1292 2.57353 51.6633 2.60995 52.3795C2.64637 53.0957 2.11226 53.7026 1.39606 53.739C0.692004 53.7754 0.0729202 53.2413 0.0365035 52.5251C0.0365035 52.5009 0.0365035 52.4766 0.0365035 52.4523C8.67397e-05 51.7847 0.509921 51.202 1.17756 51.1656C1.20184 51.1656 1.22612 51.1656 1.25039 51.1656Z" fill="white"/>
<path d="M15.5016 67.9779C14.7854 68.0265 14.1663 67.4802 14.1177 66.764C14.0692 66.0478 14.6154 65.4288 15.3316 65.3802C16.0478 65.3316 16.6669 65.8779 16.7155 66.5941C16.7155 66.6305 16.7155 66.6548 16.7155 66.6912C16.7519 67.3588 16.2421 67.9415 15.5744 67.9779C15.5501 67.9779 15.5259 67.9779 15.5016 67.9779Z" fill="white"/>
<path d="M64.3481 17.0672C64.3846 16.3996 64.9672 15.8897 65.6349 15.9262C66.3025 15.9626 66.8123 16.5452 66.7759 17.2129C66.7395 17.8562 66.2054 18.3539 65.562 18.3539C64.8944 18.3539 64.3481 17.8077 64.3481 17.14C64.3481 17.1158 64.3481 17.0915 64.3481 17.0672Z" fill="white"/>
<path d="M15.5013 67.9777C16.1918 67.9777 16.7516 67.4017 16.7516 66.691C16.7516 65.9804 16.1918 65.4043 15.5013 65.4043C14.8108 65.4043 14.251 65.9804 14.251 66.691C14.251 67.4017 14.8108 67.9777 15.5013 67.9777Z" fill="white"/>
<path d="M42.9717 0.0727539C42.3041 0.0727539 41.7578 0.619005 41.7578 1.28664V9.63821C42.5833 9.90527 43.3966 10.2087 44.1856 10.5486V2.50054H48.1307V0.0727539H42.9717Z" fill="white"/>
<path d="M66.7274 53.739C67.4179 53.739 67.9777 53.1629 67.9777 52.4522C67.9777 51.7416 67.4179 51.1655 66.7274 51.1655C66.0368 51.1655 65.4771 51.7416 65.4771 52.4522C65.4771 53.1629 66.0368 53.739 66.7274 53.739Z" fill="white"/>
<path d="M52.4764 67.9777C53.1669 67.9777 53.7267 67.4017 53.7267 66.691C53.7267 65.9804 53.1669 65.4043 52.4764 65.4043C51.7859 65.4043 51.2261 65.9804 51.2261 66.691C51.2261 67.4017 51.7859 67.9777 52.4764 67.9777Z" fill="white"/>
<path d="M43.3115 66.691C43.3115 67.3587 43.8578 67.9049 44.5254 67.9049H48.7133C48.5919 67.5165 48.5191 67.1038 48.5191 66.691C48.5191 66.2783 48.5919 65.8656 48.7133 65.4772H45.7393V58.9707C44.9503 59.3834 44.137 59.7476 43.3115 60.0753V66.691Z" fill="white"/>
<path d="M67.9414 48.2401V43.688C67.9414 43.0204 67.3951 42.4741 66.7275 42.4741H59.08C58.8493 43.3117 58.5823 44.1129 58.2788 44.9019H65.5622V48.2401C66.3512 47.9609 67.2009 47.9609 67.9899 48.2401H67.9414Z" fill="white"/>
<path d="M65.5985 18.354C66.289 18.354 66.8488 17.7779 66.8488 17.0672C66.8488 16.3566 66.289 15.7805 65.5985 15.7805C64.9079 15.7805 64.3481 16.3566 64.3481 17.0672C64.3481 17.7779 64.9079 18.354 65.5985 18.354Z" fill="white"/>
<path d="M65.5987 26.3658C66.2664 26.3658 66.8126 25.8195 66.8126 25.1519V21.1946C66.0236 21.4738 65.1739 21.4738 64.3848 21.1946V23.938H57.6963C58.0483 24.7513 58.3639 25.5524 58.6431 26.3658H65.5987Z" fill="white"/>
<path d="M10.1483 23.9379H3.59331V21.3037C3.20486 21.4251 2.79214 21.4858 2.37942 21.4979C1.9667 21.4979 1.55397 21.4251 1.16553 21.3037V25.1517C1.16553 25.8194 1.71178 26.3656 2.37942 26.3656H9.33501C9.6142 25.5523 9.92982 24.7512 10.2818 23.9379H10.1483Z" fill="white"/>
<path d="M25.0062 0.0727539H19.8472V2.50053H23.7923V10.5365C24.5813 10.1966 25.3946 9.89313 26.2201 9.62607V1.28664C26.2201 0.619004 25.6738 0.0727539 25.0062 0.0727539Z" fill="white"/>
<path d="M16.3875 2.57345C17.078 2.57345 17.6378 1.99736 17.6378 1.28672C17.6378 0.576086 17.078 0 16.3875 0C15.697 0 15.1372 0.576086 15.1372 1.28672C15.1372 1.99736 15.697 2.57345 16.3875 2.57345Z" fill="white"/>
<path d="M2.37921 18.354C3.06974 18.354 3.62952 17.7779 3.62952 17.0672C3.62952 16.3566 3.06974 15.7805 2.37921 15.7805C1.68869 15.7805 1.12891 16.3566 1.12891 17.0672C1.12891 17.7779 1.68869 18.354 2.37921 18.354Z" fill="white"/>
<path d="M22.2383 65.4772H19.8105C19.9319 65.8656 20.0048 66.2783 20.029 66.691C20.029 67.1038 19.9684 67.5043 19.8591 67.9049H23.5008C24.1684 67.9049 24.7147 67.3587 24.7147 66.691V60.0753C23.8892 59.7476 23.0759 59.3834 22.2869 58.9707L22.2383 65.4772Z" fill="white"/>
<path d="M1.25051 42.4741C0.582872 42.4741 0.0366211 43.0204 0.0366211 43.688V48.3129C0.425066 48.1794 0.837789 48.1187 1.25051 48.1066C1.66323 48.1066 2.07596 48.1794 2.4644 48.3129V44.9019H9.74774C9.44427 44.1129 9.17722 43.3117 8.94658 42.4741H1.25051Z" fill="white"/>
<path d="M51.5901 2.57345C52.2807 2.57345 52.8405 1.99736 52.8405 1.28672C52.8405 0.576086 52.2807 0 51.5901 0C50.8996 0 50.3398 0.576086 50.3398 1.28672C50.3398 1.99736 50.8996 2.57345 51.5901 2.57345Z" fill="white"/>
<path d="M1.25031 53.739C1.94083 53.739 2.50061 53.1629 2.50061 52.4522C2.50061 51.7416 1.94083 51.1655 1.25031 51.1655C0.559781 51.1655 0 51.7416 0 52.4522C0 53.1629 0.559781 53.739 1.25031 53.739Z" fill="white"/>
<path d="M33.9645 11.2041C20.9274 11.3255 10.4636 21.9834 10.5607 35.0206C10.5607 37.6548 10.9977 40.2768 11.8475 42.7653C12.0538 43.1416 12.1995 43.5543 12.2723 43.9791C16.873 55.9602 30.3107 61.9447 42.2918 57.3441C48.4705 54.977 53.3504 50.0729 55.6932 43.882V43.7485C55.6932 43.4208 55.8388 43.1051 56.0816 42.8745C56.9435 40.3617 57.3926 37.7276 57.3926 35.0813C57.5261 22.032 47.0503 11.3376 34.001 11.2041C33.9888 11.2041 33.9767 11.2041 33.9645 11.2041ZM33.9645 54.5036C33.7946 54.5885 33.6004 54.6371 33.4061 54.6371C33.2119 54.6371 33.0298 54.5885 32.8599 54.5036C14.4816 45.2052 16.5938 28.6234 16.618 28.4535C16.6666 28.065 16.9094 27.7252 17.2614 27.5431C21.2065 25.528 23.3309 19.2886 23.3309 19.2158C23.5008 18.7181 23.9621 18.3903 24.4841 18.3903H42.219C42.741 18.3903 43.2022 18.7181 43.3722 19.2158C43.3722 19.2886 45.4965 25.5401 49.4416 27.5431C49.7937 27.7252 50.0364 28.065 50.0971 28.4535C50.0971 28.6234 52.2093 45.2052 33.9038 54.5521L33.9645 54.5036Z" fill="white"/>
<path d="M41.3814 20.8184H25.3216C24.5811 22.6878 22.4932 27.2156 18.9608 29.3156C18.8152 32.1925 18.8152 44.3921 33.3818 52.1246C47.7422 44.5256 47.9485 32.2168 47.7664 29.4248C44.1976 27.2034 42.1219 22.6878 41.3814 20.8184ZM43.093 31.5977L31.998 42.8747C31.5246 43.3482 30.7598 43.3603 30.2864 42.899C30.2864 42.899 30.2743 42.8869 30.2621 42.8747L23.6707 36.1012C23.1609 35.6642 23.1123 34.8995 23.5493 34.3897C23.9863 33.8798 24.7511 33.8313 25.2609 34.2683C25.3095 34.3047 25.3459 34.3532 25.3944 34.4018L31.1968 40.2892L41.4178 29.8983C41.8062 29.352 42.5589 29.2063 43.1051 29.5948C43.6514 29.9832 43.797 30.7358 43.4086 31.2821C43.3236 31.4035 43.2144 31.5127 43.093 31.5977Z" fill="white"/>
</g>
<defs>
<clipPath id="clip0_1430_1805">
<rect width="67.99" height="67.99" fill="white"/>
</clipPath>
</defs>
</svg>
