<svg width="65" height="66" viewBox="0 0 65 66" fill="none" xmlns="http://www.w3.org/2000/svg">
<path d="M54.2333 43.9199C54.1669 41.9937 53.3034 40.134 51.7758 38.9385C49.3183 36.8795 46.3958 35.6175 43.3405 34.5548L41.6801 33.8906V32.8943C41.6801 32.4958 41.4144 32.2301 41.0159 32.2301C40.9494 32.2301 40.8831 32.2301 40.8831 32.2301L39.6211 32.4958V30.9682C41.4808 29.507 42.7428 27.448 43.2741 25.1897L44.8682 24.7248C47.3257 23.6621 48.8533 22.3337 48.8533 20.8725C48.8533 19.6769 47.857 18.5478 46.1301 17.5515C45.3331 17.0202 44.4697 16.6217 43.5398 16.2896C43.407 12.5701 41.2816 9.18274 37.9606 7.38943L36.9643 13.1679C36.8979 13.5 36.6322 13.6992 36.3001 13.6992H36.1673C35.8352 13.6328 35.5695 13.3007 35.6359 12.9022L36.8979 6.2603C36.6987 5.39685 35.9016 4.73267 34.9718 4.73267H30.9866C30.0567 4.73267 29.2597 5.39685 29.0604 6.2603L30.3224 12.9022C30.3888 13.2343 30.1896 13.6328 29.7911 13.6992H29.6582C29.3261 13.6992 29.0605 13.5 28.994 13.1679L27.9314 7.38943C24.6104 9.18274 22.5514 12.5701 22.3521 16.2896C21.4223 16.6217 20.5588 17.0202 19.7618 17.5515C18.0349 18.4814 17.0386 19.6105 17.0386 20.8725C17.0386 22.3337 17.9685 23.6621 20.2931 24.7248L22.6842 25.2561C23.2156 27.5144 24.544 29.507 26.3373 30.9682V32.4958L25.2081 32.2301C24.8761 32.1637 24.4775 32.363 24.4111 32.6951C24.4111 32.7615 24.4111 32.8279 24.4111 32.8279V33.8242L22.6842 34.4884C19.629 35.5511 16.7065 36.813 14.249 38.872C12.655 40.134 11.7251 41.9273 11.7251 43.9199V55.6096L12.3229 56.0082C14.9132 57.7351 20.9573 58.7313 27.6657 59.1298V38.8056L28.994 39.1377V59.1963C30.3888 59.2627 31.7836 59.2627 33.1784 59.2627C34.4404 59.2627 35.7024 59.2627 36.9643 59.1963V39.1377L38.2927 38.8056V59.1298C45.2003 58.7977 51.3108 57.735 53.7019 55.9417L54.2333 55.5432V43.9199ZM19.6954 50.5618H13.7177V48.5692H19.6954V50.5618ZM25.0089 22.6658V18.2821C27.5328 17.3523 30.256 16.9538 32.9128 17.0202C35.636 16.9538 38.3591 17.3523 40.9495 18.2821V22.6658C40.9495 27.0495 37.3628 30.6361 32.9792 30.6361C28.5955 30.6361 25.0089 27.0495 25.0089 22.6658ZM34.1747 33.8242C33.909 33.8906 33.6434 34.1563 33.6434 34.4884V37.278C33.4441 37.278 33.1784 37.3444 32.9792 37.3444C32.7799 37.3444 32.5142 37.3444 32.315 37.278V34.4884C32.315 34.1563 32.1157 33.8906 31.7836 33.8242L28.9276 33.0936C28.9276 32.8943 28.994 32.7615 28.994 32.5622V32.4958C31.518 33.5585 34.4404 33.5585 36.9643 32.4958V32.5622C36.9643 32.7615 36.9643 32.8943 37.0307 33.0936L34.1747 33.8242ZM46.1301 42.7244C46.1301 44.9162 43.6062 45.6468 43.6062 45.6468C43.6062 45.6468 41.0823 44.9162 41.0823 42.7244C41.0823 41.8609 41.348 41.8609 41.348 41.1303C41.2815 40.8646 41.2151 40.5989 41.0159 40.3333L41.8793 39.4698C42.4107 39.9347 43.1413 39.9347 43.6726 39.4698C44.204 39.9347 44.9346 39.9347 45.466 39.4698L46.3294 40.3333C46.1301 40.5325 45.9973 40.8646 45.9973 41.1303C45.9309 41.8609 46.1301 41.8609 46.1301 42.7244ZM52.2407 50.5618H46.263V48.5692H52.2407V50.5618Z" fill="white"/>
</svg>
