<svg width="75" height="63" viewBox="0 0 75 63" fill="none" xmlns="http://www.w3.org/2000/svg">
<g clip-path="url(#clip0_1430_1833)">
<path d="M20.6021 44.0909C22.153 44.0909 23.4102 42.8337 23.4102 41.2828C23.4102 39.7319 22.153 38.4746 20.6021 38.4746C19.0512 38.4746 17.7939 39.7319 17.7939 41.2828C17.7939 42.8337 19.0512 44.0909 20.6021 44.0909Z" fill="white"/>
<path d="M55.6548 33.0633C57.2057 33.0633 58.463 31.8061 58.463 30.2552C58.463 28.7043 57.2057 27.447 55.6548 27.447C54.1039 27.447 52.8467 28.7043 52.8467 30.2552C52.8467 31.8061 54.1039 33.0633 55.6548 33.0633Z" fill="white"/>
<path d="M30.9876 54.2804C32.5385 54.2804 33.7957 53.0231 33.7957 51.4722C33.7957 49.9213 32.5385 48.6641 30.9876 48.6641C29.4367 48.6641 28.1794 49.9213 28.1794 51.4722C28.1794 53.0231 29.4367 54.2804 30.9876 54.2804Z" fill="white"/>
<path d="M36.9249 13.745C38.4757 13.745 39.733 12.4877 39.733 10.9368C39.733 9.38591 38.4757 8.12866 36.9249 8.12866C35.374 8.12866 34.1167 9.38591 34.1167 10.9368C34.1167 12.4877 35.374 13.745 36.9249 13.745Z" fill="white"/>
<path d="M36.9249 41.4967C38.4757 41.4967 39.733 40.2394 39.733 38.6885C39.733 37.1376 38.4757 35.8804 36.9249 35.8804C35.374 35.8804 34.1167 37.1376 34.1167 38.6885C34.1167 40.2394 35.374 41.4967 36.9249 41.4967Z" fill="white"/>
<path d="M56.8584 42.3793C55.7975 42.1742 54.7812 42.8785 54.5851 43.9304L53.8095 48.0223L48.4696 40.1862C47.8634 39.2947 46.651 39.063 45.7684 39.6692C44.8859 40.2754 44.6541 41.4878 45.2603 42.3703L50.6002 50.2064L46.5083 49.4308C45.4475 49.2258 44.4312 49.9211 44.2351 50.982C44.039 52.0339 44.7254 53.0591 45.7862 53.2553L56.4126 55.27L58.4274 44.6436C58.6235 43.5827 57.9371 42.5665 56.8762 42.3703L56.8584 42.3793Z" fill="white"/>
<path d="M19.3451 25.5838L17.8296 21.7059L26.5215 25.5036C26.78 25.6105 27.0386 25.664 27.2971 25.664C28.0459 25.664 28.7591 25.2272 29.08 24.4962C29.5079 23.5156 29.0622 22.3656 28.0816 21.9287L19.3897 18.131L23.2676 16.6155C24.2661 16.2233 24.7653 15.0911 24.373 14.0927C23.9808 13.0942 22.8575 12.595 21.8502 12.9872L11.7854 16.9276L15.7257 26.9923C16.0288 27.759 16.7598 28.2315 17.5354 28.2315C17.7672 28.2315 18.0079 28.1869 18.2486 28.0977C19.2471 27.7055 19.7463 26.5822 19.354 25.5749L19.3451 25.5838Z" fill="white"/>
<path d="M51.3134 22.5974C51.7056 22.5974 52.1068 22.4815 52.4456 22.2319L60.1479 16.6958L59.4704 20.8055C59.301 21.8664 60.0142 22.8648 61.0751 23.0431C61.182 23.061 61.289 23.0699 61.396 23.0699C62.332 23.0699 63.1611 22.3924 63.3127 21.4385L65.06 10.7675L54.389 9.02022C53.3281 8.84192 52.3297 9.56402 52.1514 10.6249C51.982 11.6857 52.6952 12.6842 53.756 12.8625L57.8657 13.5311L50.1634 19.0672C49.2897 19.6912 49.0936 20.9125 49.7176 21.7862C50.101 22.3121 50.6983 22.5974 51.3045 22.5974H51.3134Z" fill="white"/>
<path d="M46.1338 3.92096C47.0053 3.92096 47.7117 3.21451 47.7117 2.34305C47.7117 1.47159 47.0053 0.765137 46.1338 0.765137C45.2624 0.765137 44.5559 1.47159 44.5559 2.34305C44.5559 3.21451 45.2624 3.92096 46.1338 3.92096Z" fill="white"/>
<path d="M10.1094 37.4583C10.9809 37.4583 11.6873 36.7519 11.6873 35.8804C11.6873 35.0089 10.9809 34.3025 10.1094 34.3025C9.23795 34.3025 8.53149 35.0089 8.53149 35.8804C8.53149 36.7519 9.23795 37.4583 10.1094 37.4583Z" fill="white"/>
<path d="M1.83646 22.1339C2.70791 22.1339 3.41437 21.4274 3.41437 20.5559C3.41437 19.6845 2.70791 18.978 1.83646 18.978C0.965001 18.978 0.258545 19.6845 0.258545 20.5559C0.258545 21.4274 0.965001 22.1339 1.83646 22.1339Z" fill="white"/>
<path d="M23.4192 3.92096C24.2907 3.92096 24.9971 3.21451 24.9971 2.34305C24.9971 1.47159 24.2907 0.765137 23.4192 0.765137C22.5478 0.765137 21.8413 1.47159 21.8413 2.34305C21.8413 3.21451 22.5478 3.92096 23.4192 3.92096Z" fill="white"/>
<path d="M39.7422 62.6246C40.6137 62.6246 41.3201 61.9181 41.3201 61.0467C41.3201 60.1752 40.6137 59.4688 39.7422 59.4688C38.8708 59.4688 38.1643 60.1752 38.1643 61.0467C38.1643 61.9181 38.8708 62.6246 39.7422 62.6246Z" fill="white"/>
<path d="M66.2456 39.0362C67.1171 39.0362 67.8236 38.3297 67.8236 37.4583C67.8236 36.5868 67.1171 35.8804 66.2456 35.8804C65.3742 35.8804 64.6677 36.5868 64.6677 37.4583C64.6677 38.3297 65.3742 39.0362 66.2456 39.0362Z" fill="white"/>
<path d="M8.53153 53.0501C9.40298 53.0501 10.1094 52.3437 10.1094 51.4722C10.1094 50.6007 9.40298 49.8943 8.53153 49.8943C7.66007 49.8943 6.95361 50.6007 6.95361 51.4722C6.95361 52.3437 7.66007 53.0501 8.53153 53.0501Z" fill="white"/>
<path d="M73.4221 22.8292C74.2936 22.8292 75.0001 22.1227 75.0001 21.2513C75.0001 20.3798 74.2936 19.6733 73.4221 19.6733C72.5507 19.6733 71.8442 20.3798 71.8442 21.2513C71.8442 22.1227 72.5507 22.8292 73.4221 22.8292Z" fill="white"/>
</g>
<defs>
<clipPath id="clip0_1430_1833">
<rect width="74.7414" height="61.8595" fill="white" transform="translate(0.258545 0.765137)"/>
</clipPath>
</defs>
</svg>
