<svg width="64" height="65" viewBox="0 0 64 65" fill="none" xmlns="http://www.w3.org/2000/svg">
<path d="M29.9203 48.8349C29.5882 48.8349 29.1897 48.7685 28.924 48.5028C28.3926 48.0379 28.3262 47.1744 28.7911 46.6431L31.3815 43.6542C31.8464 43.1229 32.7099 43.0564 33.2412 43.5214C33.7726 43.9863 33.839 44.8498 33.374 45.3811L30.7837 48.37C30.5845 48.6356 30.2524 48.7685 29.9203 48.8349Z" fill="white"/>
<path d="M25.8685 47.3072C25.4036 47.3736 25.0051 47.2408 24.6066 46.9087C23.9424 46.3109 23.876 45.2482 24.4737 44.584L27.529 41.0638C28.1268 40.3997 29.1895 40.3332 29.8536 40.931C30.5178 41.5288 30.5843 42.5915 29.9865 43.2557L26.9312 46.7759C26.6656 47.108 26.267 47.3072 25.8685 47.3072Z" fill="white"/>
<path d="M21.6842 44.8497C21.1528 44.9161 20.6214 44.7169 20.2229 44.3848C19.4259 43.6542 19.2931 42.3922 20.0237 41.5952L23.0789 38.075C23.8095 37.278 25.0715 37.1451 25.8685 37.8757C26.6656 38.6063 26.7984 39.8683 26.0678 40.6653L23.0125 44.1855C22.6804 44.584 22.1491 44.8497 21.6842 44.8497Z" fill="white"/>
<path d="M16.8355 42.3921C16.3042 42.4585 15.7728 42.2592 15.3743 41.9271C14.5773 41.1965 14.4444 39.9345 15.175 39.1375L18.6952 35.1524C19.4259 34.3553 20.6878 34.2225 21.4849 34.9531C22.2819 35.6837 22.4147 36.9457 21.6841 37.7427L18.1639 41.7279C17.7654 42.1264 17.3005 42.3256 16.8355 42.3921Z" fill="white"/>
<path d="M3.15332 27.78L8.26759 30.9017C8.86537 31.3002 9.72882 31.101 10.0609 30.4368L16.2379 20.2082C16.6364 19.6104 16.4371 18.747 15.7729 18.4149L10.7251 15.2932L3.15332 27.78Z" fill="white"/>
<path d="M46.1927 36.4809L35.4993 27.3151L34.7687 26.6509L30.1857 31.898C29.5215 32.6951 28.5917 33.16 27.529 33.2264C27.3961 33.2264 27.2633 33.2264 27.1969 33.2264C26.2006 33.2264 25.2708 32.8943 24.6066 32.2301C22.9461 30.7689 22.8132 28.245 24.208 26.5845L28.1268 22.068C25.0715 21.6695 21.1527 23.2636 17.1012 21.271L11.3228 30.8353L15.8392 36.0825L17.5661 34.0899C18.1639 33.3593 19.0937 32.9607 20.09 32.9607C20.8871 32.9607 21.6841 33.2264 22.2819 33.7578C23.0125 34.3556 23.3446 35.219 23.411 36.1489C23.7431 36.016 24.1416 35.9496 24.5401 35.9496C25.3371 35.9496 26.1342 36.2153 26.7319 36.7466C27.4625 37.4108 27.8611 38.2743 27.8611 39.2041C28.1267 39.1377 28.4588 39.0713 28.7245 39.0713C29.4551 39.0713 30.1193 39.337 30.7171 39.8019C31.3148 40.3333 31.6469 41.0639 31.7134 41.8609C31.9126 41.7945 32.1783 41.7281 32.444 41.7281C33.1082 41.7281 33.7059 41.9273 34.1709 42.3923C34.7022 42.8572 35.0343 43.5214 35.1008 44.1856C35.1672 44.9162 34.9015 45.5804 34.4366 46.1117L32.1783 48.7021L33.1082 49.4327C33.5731 49.6983 34.1044 49.8976 34.7022 49.8312C36.1634 49.6983 37.2262 48.4364 37.0933 46.9752V46.9087C37.2926 46.9752 37.5583 46.9752 37.7575 46.9752C39.2187 46.8423 40.2814 45.5804 40.1486 44.1191V44.0527C40.3478 44.1192 40.6135 44.1191 40.8128 44.1191C42.274 43.9863 43.3367 42.7243 43.2039 41.2631C43.2039 41.1303 43.1374 40.9974 43.1374 40.8646C43.536 41.0639 44.0009 41.1967 44.5323 41.1303C45.9935 40.9974 47.0562 39.7355 46.9233 38.2743C46.9898 37.5437 46.6577 36.9459 46.1927 36.4809Z" fill="white"/>
<path d="M60.8051 27.78L55.6909 30.9017C55.0931 31.3002 54.2296 31.101 53.8975 30.4368L47.7206 20.2082C47.3221 19.6104 47.5213 18.747 48.1855 18.4149L53.2998 15.2932L60.8051 27.78Z" fill="white"/>
<path d="M46.9234 21.5367C41.4106 23.5292 37.4255 21.6031 32.9754 20.7397C32.909 20.7397 32.6433 20.6732 32.6433 20.6732C31.8463 20.6068 30.9828 20.8725 30.3851 21.5367L25.138 27.5144C24.1417 28.6435 24.2745 30.304 25.4036 31.2338C26.0014 31.6988 26.6656 31.9645 27.3962 31.898C28.0604 31.8316 28.7246 31.5659 29.1895 30.9682L34.6359 24.7248L47.0563 35.4183C47.3884 35.7504 47.5212 35.8832 47.7869 36.2817L52.569 30.7689L46.9234 21.5367Z" fill="white"/>
</svg>
