<svg width="66" height="66" viewBox="0 0 66 66" fill="none" xmlns="http://www.w3.org/2000/svg">
<path d="M33.0416 8.22119C18.9376 8.22119 7.52002 19.6387 7.52002 33.7427C7.52002 47.8467 18.9376 59.2643 33.0416 59.2643C47.1456 59.2643 58.5631 47.8467 58.5631 33.7427C58.5631 19.6387 47.1456 8.22119 33.0416 8.22119ZM31.6983 14.9374C33.5789 14.9374 35.0564 16.415 35.0564 18.2955C35.0564 20.176 33.5789 21.6536 31.6983 21.6536C29.8178 21.6536 28.3402 20.176 28.3402 18.2955C28.3402 16.415 29.8178 14.9374 31.6983 14.9374ZM39.7578 52.5481H26.3254V48.5184H31.0267V28.3698H26.997V24.3401H35.0564V28.3698V48.5184H39.7578V52.5481Z" fill="white"/>
</svg>
