<svg width="65" height="65" viewBox="0 0 65 65" fill="none" xmlns="http://www.w3.org/2000/svg">
<path d="M24.0127 29.6398C24.0127 34.9533 28.3299 39.2705 33.6435 39.2705C38.957 39.2705 43.2742 34.9533 43.2742 29.6398C43.2742 24.3263 38.957 20.009 33.6435 20.009C28.3299 20.009 24.0127 24.3263 24.0127 29.6398ZM39.0234 32.4958V34.5548H28.1971V32.4958C28.1971 32.0973 28.3964 31.6988 28.7284 31.4331C29.5255 30.8353 30.3889 30.4368 31.3852 30.1711C32.1158 29.9719 32.8464 29.839 33.6435 29.839C34.3741 29.839 35.1711 29.9719 35.9017 30.1711C36.8316 30.4368 37.7614 30.8353 38.5585 31.4331C38.8241 31.6988 39.0234 32.0973 39.0234 32.4958ZM33.6435 23.7285C35.1047 23.7285 36.3666 24.924 36.3666 26.4517C36.3666 27.9129 35.1711 29.1749 33.6435 29.1749C32.1822 29.1749 30.9203 27.9793 30.9203 26.4517C30.9203 24.924 32.1158 23.7285 33.6435 23.7285Z" fill="white"/>
<path d="M61.5396 22.0017H63.5321V23.9943H61.5396V22.0017Z" fill="white"/>
<path d="M50.1819 22.0017H52.108V23.9943H50.1819V22.0017Z" fill="white"/>
<path d="M54.0342 22.0017H55.9603V23.9943H54.0342V22.0017Z" fill="white"/>
<path d="M57.8201 22.0017H59.7462V23.9943H57.8201V22.0017Z" fill="white"/>
<path d="M46.2632 22.0017H48.2558V23.9943H46.2632V22.0017Z" fill="white"/>
<path d="M46.2632 14.0312H48.2558V16.0238H46.2632V14.0312Z" fill="white"/>
<path d="M46.2632 18.0164H48.2558V20.0089H46.2632V18.0164Z" fill="white"/>
<path d="M46.2632 10.0461H48.2558V12.0387H46.2632V10.0461Z" fill="white"/>
<path d="M46.2632 6.06104H48.2558V8.05361H46.2632V6.06104Z" fill="white"/>
<path d="M54.0342 6.06104H55.9603V8.05361H54.0342V6.06104Z" fill="white"/>
<path d="M57.8201 6.06104H59.7462V8.05361H57.8201V6.06104Z" fill="white"/>
<path d="M50.1819 6.06104H52.108V8.05361H50.1819V6.06104Z" fill="white"/>
<path d="M61.5396 6.06104H63.5321V8.05361H61.5396V6.06104Z" fill="white"/>
<path d="M61.5396 10.0461H63.5321V12.0387H61.5396V10.0461Z" fill="white"/>
<path d="M61.5396 14.0312H63.5321V16.0238H61.5396V14.0312Z" fill="white"/>
<path d="M61.5396 18.0164H63.5321V20.0089H61.5396V18.0164Z" fill="white"/>
<path d="M47.5916 40.931C47.658 41.0639 47.7908 41.1303 47.9237 41.1303C47.9901 41.1303 48.0565 41.0639 48.1229 40.931L49.1192 38.2079L52.2409 41.3296L53.6357 39.9348L50.514 36.8131L53.2372 35.8168C53.37 35.7504 53.4364 35.6175 53.4364 35.4847C53.4364 35.4183 53.37 35.3518 53.2372 35.2854L45.3333 32.6287H45.2669C45.1341 32.6287 45.0012 32.7615 45.0012 32.8943V32.9608L47.5916 40.931Z" fill="white"/>
<path d="M20.3596 16.688H2.42651V30.636H20.3596V16.688ZM18.3671 28.6434H4.41908V18.6806H18.3671V28.6434Z" fill="white"/>
<path d="M7.07593 20.3411H15.0462V22.3336H7.07593V20.3411Z" fill="white"/>
<path d="M7.07593 24.3262H12.3894V26.3187H7.07593V24.3262Z" fill="white"/>
<path d="M57.5543 10.7104H49.584V14.6956H56.2259V20.6733H60.211V13.3672C60.211 11.906 59.0155 10.7104 57.5543 10.7104Z" fill="white"/>
<path d="M56.226 43.9198H11.0611V33.2928H7.07593V45.2482C7.07593 46.7094 8.27147 47.905 9.73269 47.905H28.33V51.8901H21.6881V55.8753H45.599V51.8901H38.9571V47.905H57.5544C59.0156 47.905 60.2111 46.7094 60.2111 45.2482V25.3225H56.226V43.9198Z" fill="white"/>
<path d="M44.9348 10.7104H9.73269C8.27147 10.7104 7.07593 11.906 7.07593 13.3672V14.6956H44.9348V10.7104Z" fill="white"/>
</svg>
