<svg width="65" height="65" viewBox="0 0 65 65" fill="none" xmlns="http://www.w3.org/2000/svg">
<path d="M49.3081 19.0691L46.0608 22.3163L42.8136 19.0691L40.9353 20.9474L44.1825 24.1946L40.9353 27.4418L42.8136 29.3209L46.0608 26.073L49.3081 29.3209L51.1871 27.4418L47.9392 24.1946L51.1871 20.9474L49.3081 19.0691Z" fill="white"/>
<path d="M33.8524 27.182C34.0796 26.8147 34.3473 26.4733 34.6495 26.1645L33.2341 24.7617C32.8289 25.1735 32.4709 25.6292 32.1654 26.1193C32.0538 26.2953 31.9562 26.48 31.8718 26.6706L33.6983 27.4676C33.7422 27.3686 33.794 27.273 33.8524 27.182Z" fill="white"/>
<path d="M37.5966 24.7186L37.3136 22.7466C36.5531 22.8529 35.8139 23.0773 35.1218 23.4108L35.9939 25.2041C36.5 24.9603 37.0407 24.7963 37.5966 24.7186Z" fill="white"/>
<path d="M31.9397 29.4203C32.2977 30.1071 32.7666 30.7294 33.3279 31.2628L34.7519 29.868C34.3467 29.4874 34.004 29.0444 33.7363 28.5569L31.9397 29.4203Z" fill="white"/>
<path d="M41.1858 23.0494C40.6538 22.884 40.1059 22.7724 39.5513 22.7173L39.3347 24.6985C39.7459 24.7397 40.1517 24.8194 40.5482 24.9363L41.1858 23.0494Z" fill="white"/>
<path d="M38.1645 37.0121L40.0195 36.2815C39.7472 35.5947 39.3978 34.9412 38.9781 34.3328L37.3315 35.4552C37.667 35.9408 37.9466 36.4635 38.1645 37.0121Z" fill="white"/>
<path d="M21.5212 45.9081C21.5531 45.9141 22.3282 46.0409 23.557 46.1791L23.7742 44.1985C22.6092 44.0709 21.8613 43.9454 21.854 43.9441L21.5212 45.9081Z" fill="white"/>
<path d="M25.5828 46.3593C26.2715 46.4064 26.957 46.439 27.6185 46.455L27.6663 44.4624C27.034 44.4478 26.3791 44.4172 25.7196 44.3721L25.5828 46.3593Z" fill="white"/>
<path d="M33.4082 44.0718L33.7888 46.0285C34.4868 45.895 35.1749 45.7137 35.8478 45.4846L35.1962 43.6016C34.6117 43.8002 34.0146 43.9569 33.4082 44.0718Z" fill="white"/>
<path d="M36.7922 42.8569L37.8549 44.5426C38.5284 44.1269 39.1169 43.5882 39.5904 42.9546L37.9798 41.7803C37.6557 42.2107 37.2525 42.5767 36.7922 42.8569Z" fill="white"/>
<path d="M38.5848 38.6826C38.616 38.9569 38.6319 39.2326 38.6319 39.5089C38.6319 39.6324 38.6319 39.7573 38.6233 39.8841C38.6153 40.0502 38.5967 40.2156 38.5688 40.3796L40.5322 40.721C40.574 40.4773 40.6013 40.2302 40.6132 39.9831C40.6212 39.8224 40.6245 39.665 40.6245 39.5089C40.6245 39.1555 40.6039 38.8028 40.5634 38.4521L38.5848 38.6826Z" fill="white"/>
<path d="M36.1625 31.2163L34.8022 32.6715C35.2446 33.0853 35.7169 33.535 36.1712 34.0238L37.6284 32.6669C37.1322 32.1315 36.6089 31.6321 36.1625 31.2163Z" fill="white"/>
<path d="M29.6057 44.4595L29.6641 46.4521C30.3834 46.4308 31.0756 46.3857 31.7231 46.3246L31.5285 44.3413C30.9261 44.3998 30.2792 44.4396 29.6057 44.4595Z" fill="white"/>
<path d="M24.8315 28.6426H26.1598V27.0704H28.6406L25.4963 19.2097L22.3521 27.0704H24.8315V28.6426Z" fill="white"/>
<path d="M48.3313 40.6931H49.3939L46.8322 34.6204L44.2704 40.6931H45.3324L43.6062 44.2989H46.168V45.9116H47.4964V44.2989H50.0581L48.3313 40.6931Z" fill="white"/>
<path d="M30.3222 39.9339V41.2623H31.6506V39.9339H33.6431L30.9864 33.292L28.9938 38.2734L27.0012 33.292L24.3445 39.9339H26.3371V41.2623H27.6654V39.9339H28.3296H29.658H30.3222Z" fill="white"/>
<path d="M53.2004 11.3743H19.0311V4.73242H12.3892C9.45614 4.73574 7.079 7.11288 7.07568 10.0459V48.569C7.079 51.502 9.45614 53.8792 12.3892 53.8825H46.9271V60.5244H53.569C56.5021 60.5211 58.8792 58.1439 58.8825 55.2109V16.6878C58.7743 13.6545 56.2344 11.2793 53.2004 11.3743ZM11.0608 10.0459C11.0608 9.31201 11.6553 8.71756 12.3892 8.71756H15.046V43.2555H12.3892C11.9409 43.2555 11.4945 43.3119 11.0608 43.4235V10.0459ZM11.0608 48.569C11.0608 47.835 11.6553 47.2406 12.3892 47.2406H19.0311V15.3595H53.2004C54.0286 15.2818 54.7738 15.8649 54.8974 16.6878V49.8974H12.3892C11.6553 49.8974 11.0608 49.3029 11.0608 48.569ZM54.8974 55.2109C54.8974 55.9448 54.3029 56.5393 53.569 56.5393H50.9122V53.8825H54.8974V55.2109Z" fill="white"/>
</svg>
