<svg width="65" height="65" viewBox="0 0 65 65" fill="none" xmlns="http://www.w3.org/2000/svg">
<path d="M38.824 7.72144H41.4807V15.6917H38.824V7.72144Z" fill="white"/>
<path d="M55.6951 14.69L50.0588 20.3257L48.1804 18.4474L53.8161 12.811L55.6951 14.69Z" fill="white"/>
<path d="M52.772 26.9829H60.7423V29.6397H52.772V26.9829Z" fill="white"/>
<path d="M55.6812 41.9166L53.8029 43.7949L48.1672 38.1593L50.0456 36.2803L55.6812 41.9166Z" fill="white"/>
<path d="M19.5625 26.9829H27.5328V29.6397H19.5625V26.9829Z" fill="white"/>
<path d="M32.1781 18.4806L30.2997 20.3596L24.6641 14.7233L26.5424 12.845L32.1781 18.4806Z" fill="white"/>
<path d="M44.1375 44.9161C43.8054 44.9161 43.4733 44.9161 43.1412 44.9825V44.9161C43.1412 42.3922 41.9457 39.9347 39.8203 38.4735C37.7613 36.9458 35.1045 36.5473 32.647 37.3444C30.588 33.4921 26.138 31.4995 21.8871 32.5622C17.6363 33.5585 14.6475 37.3444 14.5146 41.728C11.725 41.1967 8.73618 42.2594 6.87645 44.584C5.08314 46.9087 4.68462 50.0968 5.88017 52.7536C7.07571 55.4767 9.66604 57.2701 12.6549 57.4693L44.536 57.5357C47.9898 57.4693 50.7794 54.5469 50.6466 51.0267C50.5802 47.5729 47.6577 44.8497 44.1375 44.9161Z" fill="white"/>
<path d="M30.7208 31.4996C31.9164 32.2302 33.0455 33.2265 33.9089 34.3556C37.3627 33.9571 40.7501 35.219 43.0748 37.8094C46.9271 36.6138 49.7167 33.2265 50.0488 29.1749C50.3809 25.1233 48.2554 21.271 44.6688 19.4113C41.0822 17.5516 36.6985 18.0829 33.6433 20.7397C30.588 23.3964 29.4589 27.6473 30.7208 31.4996Z" fill="white"/>
</svg>
