<svg width="64" height="65" viewBox="0 0 64 65" fill="none" xmlns="http://www.w3.org/2000/svg">
<path d="M31.9794 58.0669C27.6621 58.0669 23.8763 55.0117 22.9464 50.8273C21.9501 46.5765 24.0755 42.2592 27.9942 40.3995V11.1751C27.9942 8.98329 29.7875 7.18998 31.9794 7.18998C34.1712 7.18998 35.9645 8.98329 35.9645 11.1751V40.3995C39.8832 42.2592 41.9422 46.5765 41.0124 50.8273C40.0161 55.0117 36.2966 58.0005 31.9794 58.0669ZM39.9497 38.1412V11.1751C39.9497 6.79146 36.363 3.20483 31.9794 3.20483C27.5957 3.20483 24.0091 6.72504 24.0091 11.1751V38.1412C19.4262 41.595 17.5664 47.5727 19.3598 52.9527C21.1531 58.399 26.2673 62.0521 31.9794 62.0521C37.6914 62.0521 42.8057 58.399 44.599 52.9527C46.3923 47.5727 44.5326 41.595 39.9497 38.1412Z" fill="white"/>
<path d="M33.3077 42.2592V26.1858H30.6509V42.2592C27.33 42.9234 25.0053 46.0451 25.4038 49.4324C25.7359 52.8198 28.5919 55.4102 31.9793 55.4102C35.3667 55.4102 38.2227 52.8198 38.5548 49.4324C38.9533 46.0451 36.6286 42.9234 33.3077 42.2592Z" fill="white"/>
</svg>
