<svg width="48" height="57" viewBox="0 0 48 57" fill="none" xmlns="http://www.w3.org/2000/svg">
<g clip-path="url(#clip0_1430_825)">
<path d="M47.74 56.5599H0.0800151C0.0800151 52.3199 -0.179985 48.1799 0.210015 44.0999C0.360015 42.5399 1.67002 40.6899 2.99002 39.6899C14.44 31.0099 31.97 30.7399 43.81 38.8199C46.49 40.6499 47.95 42.8999 47.77 46.2699C47.59 49.6399 47.73 53.0299 47.73 56.5699L47.74 56.5599Z" fill="white"/>
<path d="M24.5298 29.6701C17.8398 30.0701 12.2198 24.9101 11.9798 18.4201C11.7298 11.8101 16.9698 6.17006 23.5198 6.00006C30.0098 5.83006 35.6798 11.1501 35.8298 17.4401C35.8598 18.7501 35.4398 19.3801 34.1998 19.7301C32.4498 20.2201 30.7398 20.8401 29.0198 21.4201C25.3798 22.6401 24.7198 23.5501 24.6398 27.3301C24.6198 28.0701 24.5798 28.8001 24.5398 29.6701H24.5298Z" fill="white"/>
<path d="M38.6001 21.69C39.6601 10.6 33.0501 2.71003 23.3401 3.02003C19.8301 3.13003 16.7301 4.39003 14.0601 6.66003C13.1501 7.43003 12.1201 8.44003 11.2101 7.06003C10.9001 6.59003 11.5401 5.04003 12.1701 4.47003C21.3101 -3.73997 35.8601 -0.169969 40.5601 11.36C40.9801 12.39 41.0501 13.74 42.7301 13.5C42.9401 13.47 43.3601 13.65 43.3701 13.77C43.6401 16.26 44.0601 18.76 43.9901 21.24C43.9701 21.99 42.7101 23.02 41.8001 23.39C39.1301 24.48 36.3301 25.25 33.6201 26.24C32.4901 26.66 31.5001 27.47 30.3601 27.85C29.5901 28.1 28.4601 28.22 27.9001 27.83C27.3301 27.43 26.8901 26.21 27.0801 25.55C27.2701 24.88 28.2301 24.17 28.9901 23.97C32.2201 23.1 35.4901 22.42 38.6001 21.7V21.69Z" fill="white"/>
</g>
<defs>
<clipPath id="clip0_1430_825">
<rect width="47.8" height="56.56" fill="white"/>
</clipPath>
</defs>
</svg>
