<svg width="60" height="62" viewBox="0 0 60 62" fill="none" xmlns="http://www.w3.org/2000/svg">
<g clip-path="url(#clip0_1430_816)">
<path d="M0.096427 61.0253C0.096427 51.9904 -0.0242002 43.3052 0.144678 34.62C0.24118 29.8191 3.71525 25.959 8.38352 24.813C12.7864 23.7274 17.4547 25.7057 19.9879 29.7346C21.6646 32.3884 24.1374 32.6417 26.4535 30.374C29.0228 27.8649 31.5681 25.3317 34.1133 22.7865C35.6694 21.2304 35.3437 19.8191 33.3172 19.0591C31.7973 18.4922 29.2882 18.1544 28.9987 17.1773C28.3473 14.9819 28.7092 12.4487 28.8419 10.0603C28.866 9.63813 29.7104 9.04706 30.2653 8.91437C39.626 6.51388 48.9987 4.17372 58.3835 1.84561C58.8298 1.73704 59.3365 1.8818 59.9999 1.93005V25.5127C56.4535 24.6683 53.2448 23.7636 49.9637 23.1846C48.9263 23.0036 47.6839 23.5826 46.6224 24.041C45.1748 24.6562 43.7997 25.4886 42.0144 26.4174C40.6272 28.1182 38.8298 30.386 36.9481 32.5814C36.0434 33.643 34.8974 34.4994 34.0168 35.573C30.8805 39.3969 27.2496 42.0507 21.5681 40.5187V61.0374H0.096427V61.0253ZM36.6344 19.8794C39.2641 23.462 43.8841 24.3305 45.0904 21.8818C42.4728 21.2666 39.9034 20.6514 36.6344 19.8794Z" fill="white"/>
<path d="M10.7359 0C16.7311 0 21.5321 4.90953 21.4597 10.9409C21.3753 16.8396 16.5984 21.5802 10.7359 21.5682C4.75283 21.5682 -0.0843267 16.6345 0.000112365 10.6273C0.0845514 4.72859 4.87345 0 10.7359 0Z" fill="white"/>
<path d="M26.8757 9.71055H27.6356V17.0929H26.8757C26.3449 17.0929 25.9106 16.6587 25.9106 16.1279V10.6635C25.9106 10.1327 26.3449 9.69849 26.8757 9.69849V9.71055Z" fill="white"/>
</g>
<defs>
<clipPath id="clip0_1430_816">
<rect width="60" height="61.0253" fill="white"/>
</clipPath>
</defs>
</svg>
