<svg width="51" height="66" viewBox="0 0 51 66" fill="none" xmlns="http://www.w3.org/2000/svg">
<path d="M17.6798 42.5299C17.6798 45.4299 17.4798 48.3399 17.7198 51.1999C18.1998 56.9599 23.2598 61.3099 29.0598 61.1899C34.8298 61.0699 39.7298 56.4799 39.9098 50.6799C40.0898 45.1399 39.8798 39.5899 40.0098 34.0499C40.0498 32.3999 38.8898 32.2699 37.9798 31.6999C34.4798 29.5199 33.0798 25.2599 34.6398 21.5299C36.1398 17.9099 40.2198 15.8099 43.9898 16.6999C47.9998 17.6499 50.7098 21.2399 50.3598 25.2899C50.0998 28.3099 48.5998 30.6299 45.8598 31.9599C44.6898 32.5299 44.3998 33.2099 44.4098 34.4199C44.4698 39.4699 44.4598 44.5199 44.4298 49.5599C44.3698 58.7099 37.5698 65.6799 28.7598 65.6599C19.9598 65.6399 13.2198 58.6699 13.1598 49.4799C13.1398 47.1699 13.1598 44.8599 13.1598 42.5399C6.00983 40.8499 1.34983 36.7499 0.0598265 29.5299C-0.210174 27.9999 0.569826 26.2899 0.859827 24.6599C0.999826 23.8699 1.21983 23.0799 1.22983 22.2799C1.25983 17.2299 1.22983 12.1799 1.24983 7.13993C1.24983 4.02993 4.03983 0.529926 7.06983 0.229926C8.10983 0.129926 9.60983 0.719926 10.2398 1.50993C10.7798 2.17993 10.8098 3.92993 10.2898 4.60993C9.67983 5.41993 8.25983 5.79993 7.13983 5.96993C6.45983 6.06993 5.65983 5.41993 4.56983 4.94993C4.44983 5.86993 4.25983 6.70993 4.24983 7.53993C4.20983 10.9299 4.52983 14.3599 4.15983 17.7099C3.66983 22.1199 5.25983 26.0799 6.33983 30.1099C7.46983 34.2999 11.7298 36.8499 16.1398 36.5199C20.5298 36.1899 23.6398 32.9699 25.0098 28.7399C27.3498 21.4999 26.2998 14.1299 26.5598 6.79993C26.5698 6.39993 26.4898 5.97993 26.3998 5.57993C26.3698 5.43993 26.2098 5.32993 25.9698 5.02993C25.4598 5.28993 24.9498 5.65993 24.3698 5.83993C22.6998 6.36993 20.9898 6.12993 20.3598 4.44993C19.9898 3.45993 20.3198 1.72993 21.0098 0.939926C22.1198 -0.320074 23.7798 -0.350074 25.1998 0.939926C25.6198 1.31993 26.0698 1.70993 26.5698 1.92993C28.7798 2.85993 29.5698 4.56993 29.5398 6.86993C29.4998 11.2599 29.5098 15.6399 29.5398 20.0299C29.5498 22.0499 29.2498 24.0499 30.6898 25.9099C31.2498 26.6399 31.0298 28.1699 30.8298 29.2699C29.4698 36.5899 24.8998 40.8199 17.6698 42.5199L17.6798 42.5299ZM42.1098 19.4999C39.2798 19.5499 36.9398 21.9699 36.9998 24.7999C37.0498 27.6299 39.4698 29.9699 42.2998 29.9099C45.1298 29.8599 47.4698 27.4399 47.4098 24.6099C47.3598 21.7799 44.9398 19.4399 42.1098 19.4999Z" fill="white"/>
</svg>
