<svg width="63" height="47" viewBox="0 0 63 47" fill="none" xmlns="http://www.w3.org/2000/svg">
<g clip-path="url(#clip0_1430_834)">
<path d="M62.98 17.06V19.87H0.14C0.1 19.1 0.06 18.24 0 17.06C4.28 17.06 8.42 17.15 12.55 17C13.76 16.96 15.15 16.49 16.1 15.76C26.72 7.55002 36.14 7.53002 46.81 15.68C47.83 16.46 49.3 16.94 50.58 17C54.63 17.17 58.7 17.06 62.97 17.06H62.98ZM37.93 16.92C33.6 13.11 28.62 13.19 25.36 16.92H37.93Z" fill="white"/>
<path d="M22.3501 22.2C23.0101 28.5 26.4701 32.05 31.5001 32.05C36.5201 32.05 39.9001 28.58 40.6301 22.6C42.0401 22.02 42.9601 22.37 42.5701 24.04C42.0801 26.18 41.3001 28.26 40.7101 30.15C44.3101 29.24 49.7501 24.64 49.4501 21.96C51.0301 22.39 52.4401 22.77 53.8501 23.15C53.1301 24.46 52.6801 26.04 51.6501 27.02C47.1401 31.33 42.0401 34.7 35.8201 36.08C30.0601 37.35 24.6701 36.14 19.7501 33.18C16.5701 31.26 13.6501 28.86 10.7901 26.46C9.92012 25.72 9.66012 24.25 9.12012 23.12C10.2501 22.85 11.3801 22.56 12.5201 22.33C12.8201 22.27 13.1601 22.38 13.2401 22.39C13.5501 23.29 13.5901 24.28 14.1001 24.69C16.7401 26.8 19.4901 28.77 22.1201 30.72C21.5301 27.91 20.9801 25.35 20.5301 22.76C20.5201 22.69 21.6001 22.43 22.3401 22.21L22.3501 22.2Z" fill="white"/>
<path d="M10.3999 0.100098V4.2601H4.5899V10.1401H0.149902V0.100098H10.3999Z" fill="white"/>
<path d="M52.5898 4.19V0H62.8698V10.11H58.5898V4.46C56.5198 4.37 54.6598 4.28 52.5898 4.19Z" fill="white"/>
<path d="M0.140137 46.1899V35.9399H4.47014V41.7699H10.3501V46.1799H0.140137V46.1899Z" fill="white"/>
<path d="M62.9101 46.16H52.6201V41.82H58.4801V35.96H62.9101V46.16Z" fill="white"/>
<path d="M25.7598 22.48H36.5098C36.9398 25.72 34.9198 28.29 31.8298 28.57C28.4298 28.88 26.0898 26.66 25.7598 22.48Z" fill="white"/>
</g>
<defs>
<clipPath id="clip0_1430_834">
<rect width="62.98" height="46.19" fill="white"/>
</clipPath>
</defs>
</svg>
