<svg width="51" height="51" viewBox="0 0 51 51" fill="none" xmlns="http://www.w3.org/2000/svg">
<path d="M50.3 50.72H0V46.52C1.43 46.45 2.74 46.38 4.15 46.2999C4.24 44.82 4.32 43.5 4.4 42C5.88 41.8899 7.26 41.7999 8.8 41.6899C9.49 34.7499 10.18 27.93 10.85 21.11C11.03 19.28 11.2 17.45 11.37 15.62C11.64 12.88 12.59 11.93 15.3 11.91C21.89 11.88 28.48 11.88 35.07 11.91C37.75 11.92 38.72 12.9 38.99 15.64C39.8 23.91 40.6 32.1799 41.41 40.4399C41.45 40.8199 41.57 41.1999 41.67 41.6899C43.06 41.7799 44.38 41.87 45.9 41.97C46.01 43.41 46.11 44.7999 46.23 46.34H50.28V50.72H50.3ZM15.82 16.34C14.97 24.91 14.14 33.2099 13.3 41.68H36.91C36.96 41.34 37.05 41.1099 37.03 40.8899C36.25 33.1899 35.5 25.49 34.62 17.8C34.56 17.26 33.59 16.4 33.03 16.39C27.41 16.29 21.78 16.33 15.82 16.33V16.34Z" fill="white"/>
<path d="M23.8901 0H26.5101V8.75H23.8901V0Z" fill="white"/>
<path d="M45.7602 3.23999C46.1502 3.66999 46.6802 4.25999 47.2002 4.82999C45.1802 6.78999 43.2202 8.68999 41.0902 10.76C40.7702 10.41 40.1902 9.77999 39.7202 9.26999C41.6802 7.30999 43.5602 5.42999 45.7602 3.23999Z" fill="white"/>
<path d="M2.87012 4.95996C3.58012 4.24996 4.18012 3.65996 4.89012 2.95996C6.89012 5.10996 8.71012 7.06996 10.7101 9.21996C10.1801 9.64996 9.47012 10.24 8.90012 10.71C6.96012 8.85996 5.02012 7.00996 2.87012 4.96996V4.95996Z" fill="white"/>
<path d="M0.0800781 20.99H7.11008V23.73H0.0800781V20.99Z" fill="white"/>
<path d="M43.2202 23.72V21.05H50.3702C50.4102 21.87 50.4502 22.7 50.4902 23.72H43.2202Z" fill="white"/>
<path d="M28.7798 19.49H31.7298C32.3698 25.88 32.9998 32.18 33.6598 38.66H30.6198C30.0198 32.35 29.4098 26.04 28.7798 19.49Z" fill="white"/>
</svg>
